<?xml version="1.0" encoding="UTF-8" standalone="no"?>
<svg
   xmlns:dc="http://purl.org/dc/elements/1.1/"
   xmlns:cc="http://creativecommons.org/ns#"
   xmlns:rdf="http://www.w3.org/1999/02/22-rdf-syntax-ns#"
   xmlns:svg="http://www.w3.org/2000/svg"
   xmlns="http://www.w3.org/2000/svg"
   xmlns:sodipodi="http://sodipodi.sourceforge.net/DTD/sodipodi-0.dtd"
   xmlns:inkscape="http://www.inkscape.org/namespaces/inkscape"
   id="svgRoot"
   viewBox="0 0 100 100"
   xml:space="preserve"
   sodipodi:version="0.32"
   inkscape:version="0.46"
   width="253.55191"
   height="256"
   sodipodi:docname="Hokkaido University.svg"
   inkscape:output_extension="org.inkscape.output.svg.inkscape"
   version="1.0"><metadata
   id="metadata14"><rdf:RDF><cc:Work
       rdf:about=""><dc:format>image/svg+xml</dc:format><dc:type
         rdf:resource="http://purl.org/dc/dcmitype/StillImage" /></cc:Work></rdf:RDF></metadata><sodipodi:namedview
   inkscape:window-height="667"
   inkscape:window-width="984"
   inkscape:pageshadow="2"
   inkscape:pageopacity="0.0"
   guidetolerance="10.0"
   gridtolerance="10.0"
   objecttolerance="10.0"
   borderopacity="1.0"
   bordercolor="#666666"
   pagecolor="#ffffff"
   id="base"
   showgrid="false"
   inkscape:zoom="1.8046875"
   inkscape:cx="126.77596"
   inkscape:cy="128"
   inkscape:window-x="22"
   inkscape:window-y="0"
   inkscape:current-layer="svgRoot" />
<defs
   id="defs3"><inkscape:perspective
   sodipodi:type="inkscape:persp3d"
   inkscape:vp_x="0 : 526.18109 : 1"
   inkscape:vp_y="0 : 1000 : 0"
   inkscape:vp_z="744.09448 : 526.18109 : 1"
   inkscape:persp3d-origin="372.04724 : 350.78739 : 1"
   id="perspective16" />
</defs>
<g
   transform="matrix(4.5977028,0,0,-4.5977012,-176.3219,310.64368)"
   id="g7"
   style="fill:#1e552e;fill-opacity:1">
<path
   d="M 47.53,45.79 L 47.08,45.76 L 46.81,45.77 L 46.41,45.83 L 46.06,45.94 L 45.87,46.02 L 45.47,46.21 L 45.02,46.56 L 44.88,46.69 L 44.66,46.86 L 44.47,47.07 L 44.34,47.2 L 44.14,47.4 L 43.96,47.54 L 43.85,47.7 L 43.53,48.04 L 43.29,48.32 L 42.98,48.61 L 42.52,49.07 L 42.23,49.38 L 42.08,49.49 L 41.82,49.76 L 41.52,49.99 L 41.17,50.24 L 40.77,50.49 L 40.52,50.65 L 39.82,51 L 39.68,51.06 L 39.59,51.11 L 39.57,51.15 L 39.6,51.8 L 39.62,52.02 L 39.6,52.76 L 39.53,53.59 L 39.45,54.03 L 39.4,54.32 L 39.35,54.58 L 39.28,54.91 L 39.21,55.1 L 39.09,55.5 L 38.81,56.58 L 38.75,56.72 L 38.69,56.86 L 38.62,57.05 L 38.53,57.42 L 38.37,58.36 L 38.36,58.66 L 38.35,59.07 L 38.39,59.23 L 38.5,59.71 L 38.71,60.17 L 38.87,60.34 L 39.02,60.59 L 39.25,60.82 L 39.47,61 L 39.67,61.12 L 40.06,61.32 L 40.62,61.41 L 40.72,61.45 L 40.74,61.49 L 40.74,61.54 L 40.58,61.97 L 40.53,62.32 L 40.53,62.63 L 40.56,62.98 L 40.6,63.25 L 40.71,63.55 L 40.95,63.96 L 41.24,64.34 L 41.44,64.53 L 41.66,64.7 L 41.84,64.86 L 41.97,64.93 L 42.23,65.06 L 42.94,65.33 L 43.85,65.59 L 44.4,65.7 L 44.71,65.78 L 44.92,65.82 L 45.6,65.99 L 45.9,66.08 L 46.66,66.3 L 47.54,66.66 L 47.79,66.75 L 47.9,66.83 L 48.22,66.97 L 48.38,67.07 L 48.63,67.22 L 48.91,67.46 L 49.04,67.53 L 49.23,67.67 L 49.32,67.67 L 49.4,67.56 L 49.57,67.46 L 49.76,67.32 L 49.96,67.19 L 50.27,66.97 L 50.75,66.72 L 51.03,66.61 L 51.26,66.5 L 51.64,66.35 L 52.24,66.14 L 52.75,65.99 L 53.33,65.83 L 54.19,65.63 L 54.83,65.46 L 55.38,65.28 L 55.7,65.2 L 56.22,64.99 L 56.39,64.9 L 56.81,64.66 L 56.94,64.52 L 57.09,64.41 L 57.29,64.21 L 57.65,63.65 L 57.83,63.3 L 57.93,62.75 L 57.94,62.31 L 57.88,61.96 L 57.74,61.49 L 57.76,61.39 L 57.8,61.36 L 58.23,61.25 L 58.72,61.07 L 59.11,60.8 L 59.35,60.58 L 59.74,60.06 L 59.86,59.78 L 59.98,59.5 L 60.06,59.19 L 60.09,58.9 L 60.1,58.46 L 60.03,58.06 L 59.97,57.65 L 59.76,56.79 L 59.67,56.49 L 59.5,56.05 L 59.42,55.8 L 59.31,55.38 L 59.08,54.61 L 58.98,54.1 L 58.92,53.69 L 58.84,53.44 L 58.82,53.22 L 58.76,52.56 L 58.8,52.22 L 58.8,51.56 L 58.83,51.33 L 58.83,51.01 L 58.78,50.93 L 58.69,50.88 L 58.39,50.79 L 58.19,50.66 L 57.92,50.54 L 57.6,50.34 L 57.27,50.15 L 57.12,50.02 L 56.96,49.92 L 56.73,49.76 L 56.12,49.25 L 55.98,49.13 L 55.61,48.78 L 55.41,48.58 L 55.14,48.32 L 55,48.13 L 54.86,48.01 L 54.71,47.83 L 53.84,46.92 L 53.7,46.79 L 53.52,46.64 L 53.37,46.52 L 53.22,46.41 L 52.93,46.18 L 52.71,46.07 L 52.6,45.98 L 52.11,45.82 L 51.89,45.78 L 51.62,45.72 L 51.35,45.72 L 51.03,45.71 L 50.88,45.76 L 50.49,45.84 L 50.06,46.01 L 49.84,46.18 L 49.46,46.47 L 49.29,46.76 L 49.2,46.8 L 49.12,46.76 L 48.97,46.57 L 48.72,46.36 L 48.47,46.15 L 48.04,45.93 L 47.53,45.79 M 47.55,46.07 L 47.9,46.18 L 48.29,46.38 L 48.45,46.49 L 48.69,46.7 L 48.88,46.91 L 48.98,47.08 L 49,47.17 L 48.65,47.93 L 48.57,48.05 L 48.43,48.44 L 48.34,48.8 L 48.16,49.34 L 48.11,49.55 L 47.98,50.11 L 47.93,50.44 L 47.93,50.66 L 48.01,50.71 L 48.1,50.69 L 48.17,50.62 L 48.28,50.14 L 48.33,49.93 L 48.4,49.61 L 48.46,49.47 L 48.45,49.32 L 48.55,49.02 L 48.67,48.55 L 48.75,48.37 L 48.79,48.21 L 48.83,48.19 L 48.86,48.19 L 48.85,48.27 L 48.77,48.71 L 48.68,49.21 L 48.64,49.36 L 48.6,49.59 L 48.57,49.72 L 48.55,50.08 L 48.48,50.54 L 48.47,50.64 L 48.54,50.7 L 48.65,50.7 L 48.72,50.63 L 48.75,50.41 L 48.78,50.09 L 48.84,49.67 L 48.83,49.51 L 48.91,49.07 L 48.94,48.84 L 48.98,48.59 L 49,48.45 L 49.01,48.28 L 49.09,47.97 L 49.1,47.98 L 49.12,48.32 L 49.08,48.48 L 49.09,48.7 L 49.07,48.87 L 49.08,49.03 L 49.08,49.49 L 49.07,49.69 L 49.08,49.87 L 49.09,50.12 L 49.06,50.61 L 49.08,50.66 L 49.12,50.69 L 49.23,50.69 L 49.28,50.67 L 49.31,50.63 L 49.31,50.53 L 49.32,50.36 L 49.32,50.26 L 49.29,50.1 L 49.31,49.83 L 49.29,49.25 L 49.26,48.84 L 49.28,48.34 L 49.27,48.18 L 49.29,48.04 L 49.3,48.03 L 49.33,48.12 L 49.44,48.82 L 49.46,49.07 L 49.54,49.52 L 49.57,49.76 L 49.6,50 L 49.61,50.52 L 49.65,50.62 L 49.73,50.68 L 49.82,50.66 L 49.87,50.57 L 49.8,49.89 L 49.8,49.73 L 49.72,49.41 L 49.59,48.53 L 49.6,48.49 L 49.63,48.49 L 49.71,48.67 L 49.77,48.94 L 49.91,49.35 L 49.97,49.68 L 50.08,50.11 L 50.13,50.52 L 50.2,50.66 L 50.28,50.7 L 50.38,50.7 L 50.45,50.63 L 50.46,50.52 L 50.4,50.18 L 50.3,49.81 L 50.14,49.17 L 49.9,48.34 L 49.75,47.96 L 49.63,47.62 L 49.52,47.45 L 49.41,47.16 L 49.41,47.05 L 49.59,46.77 L 49.79,46.58 L 50.07,46.32 L 50.43,46.15 L 50.69,46.07 L 51.03,46.02 L 51.31,45.97 L 51.78,46.02 L 52.24,46.15 L 52.69,46.36 L 53.07,46.63 L 53.28,46.82 L 53.47,46.96 L 53.78,47.31 L 53.99,47.49 L 54.15,47.67 L 54.5,48.04 L 54.69,48.25 L 54.8,48.4 L 54.96,48.51 L 55.23,48.83 L 55.72,49.26 L 55.98,49.53 L 56.28,49.76 L 57.03,50.32 L 57.39,50.56 L 57.64,50.69 L 57.97,50.9 L 57.98,50.93 L 57.9,50.98 L 57.56,51.04 L 56.77,51.18 L 56.51,51.26 L 56.03,51.38 L 54.83,51.78 L 54.45,51.93 L 54.11,52.06 L 53.89,52.17 L 53.55,52.3 L 53.24,52.45 L 53.19,52.53 L 53.17,52.64 L 53.18,52.69 L 53.22,52.72 L 53.33,52.71 L 53.61,52.59 L 53.92,52.44 L 54.39,52.24 L 54.59,52.17 L 54.91,52.03 L 55.91,51.7 L 56.17,51.62 L 56.48,51.53 L 57.35,51.33 L 58,51.24 L 58.29,51.24 L 58.32,51.27 L 58.33,51.32 L 58.1,51.75 L 57.78,52.09 L 57.53,52.43 L 57.39,52.55 L 57.02,52.97 L 56.72,53.2 L 56.44,53.46 L 56.29,53.57 L 56.06,53.8 L 55.79,54 L 55.66,54.12 L 55.32,54.39 L 54.95,54.67 L 54.63,54.89 L 54.5,55.02 L 54.24,55.16 L 53.98,55.36 L 53.72,55.5 L 53.53,55.64 L 53.28,55.79 L 53.2,55.91 L 53.19,56.02 L 53.21,56.07 L 53.25,56.1 L 53.29,56.11 L 53.62,55.9 L 54.03,55.64 L 54.19,55.54 L 54.34,55.43 L 54.63,55.25 L 54.76,55.12 L 55.13,54.89 L 55.3,54.74 L 55.5,54.6 L 55.63,54.53 L 55.83,54.34 L 56.17,54.08 L 56.37,53.88 L 56.53,53.77 L 56.8,53.52 L 57.08,53.28 L 57.35,53.01 L 57.44,52.9 L 57.57,52.78 L 57.89,52.36 L 58.1,52.18 L 58.38,51.8 L 58.42,51.77 L 58.46,51.78 L 58.49,51.81 L 58.46,52.36 L 58.48,52.81 L 58.55,53.41 L 58.74,54.49 L 58.84,54.86 L 58.87,55.02 L 58.97,55.33 L 59.04,55.53 L 59.1,55.73 L 59.23,56.13 L 59.54,57.16 L 59.78,58.18 L 59.78,58.36 L 59.78,58.55 L 59.8,58.79 L 59.76,59.08 L 59.66,59.5 L 59.55,59.72 L 59.48,59.84 L 59.3,60.18 L 59.15,60.37 L 58.85,60.66 L 58.56,60.83 L 58.09,61.03 L 57.76,61.11 L 57.61,61.14 L 57.52,61.1 L 57.27,60.76 L 57.19,60.63 L 57.07,60.49 L 56.83,60.14 L 56.61,59.9 L 56.51,59.8 L 56.37,59.67 L 56.09,59.36 L 55.81,59.11 L 55.58,58.87 L 55.24,58.62 L 54.97,58.37 L 54.75,58.2 L 54.53,58.02 L 53.98,57.64 L 53.31,57.2 L 53.27,57.2 L 53.19,57.26 L 53.18,57.36 L 53.3,57.51 L 53.49,57.64 L 53.78,57.81 L 54.11,58.07 L 54.21,58.17 L 54.38,58.27 L 54.73,58.51 L 54.85,58.65 L 55.29,59 L 55.57,59.25 L 56,59.67 L 56.1,59.78 L 56.28,59.93 L 56.53,60.21 L 56.53,60.24 L 56.52,60.25 L 56.25,60.07 L 55.92,59.8 L 55.68,59.65 L 55.46,59.48 L 55.25,59.29 L 54.96,59.12 L 54.77,58.97 L 54.63,58.86 L 54.55,58.8 L 54.42,58.74 L 54.28,58.62 L 53.95,58.42 L 53.59,58.19 L 53.35,58.03 L 53.3,58.03 L 53.23,58.08 L 53.23,58.18 L 53.3,58.31 L 53.76,58.57 L 54.32,58.94 L 54.68,59.16 L 54.8,59.24 L 54.97,59.34 L 55.38,59.65 L 55.52,59.77 L 55.65,59.83 L 55.8,59.95 L 56.44,60.42 L 56.68,60.6 L 56.69,60.64 L 56.66,60.67 L 56.61,60.68 L 56.52,60.64 L 56.33,60.49 L 55.73,60.18 L 55.52,60.06 L 55.35,59.97 L 55.11,59.81 L 54.94,59.72 L 54.61,59.53 L 54.36,59.39 L 54.15,59.27 L 53.95,59.14 L 53.31,58.79 L 53.27,58.78 L 53.23,58.8 L 53.2,58.9 L 53.24,59 L 53.35,59.09 L 53.96,59.4 L 54.97,59.96 L 55.28,60.11 L 55.95,60.49 L 56.14,60.56 L 56.4,60.7 L 56.43,60.74 L 56.43,60.76 L 56.28,60.8 L 56.18,60.77 L 55.47,60.49 L 55.06,60.32 L 54.79,60.19 L 54.4,60.06 L 54.2,59.94 L 54,59.87 L 53.76,59.72 L 53.57,59.65 L 53.3,59.53 L 53.26,59.54 L 53.23,59.58 L 53.22,59.63 L 53.25,59.73 L 53.51,59.87 L 53.7,59.94 L 53.93,60.04 L 54.11,60.12 L 54.95,60.46 L 55.42,60.63 L 55.91,60.8 L 56,60.85 L 56.02,60.88 L 56.01,60.9 L 55.84,60.94 L 55.51,60.88 L 55.14,60.79 L 54.75,60.66 L 54.48,60.6 L 53.8,60.37 L 53.47,60.24 L 53.31,60.21 L 53.27,60.21 L 53.23,60.24 L 53.22,60.34 L 53.26,60.44 L 53.39,60.51 L 54.18,60.77 L 55.03,61.02 L 55.62,61.15 L 56.56,61.31 L 56.91,61.33 L 57.27,61.34 L 57.36,61.38 L 57.41,61.45 L 57.57,61.96 L 57.67,62.39 L 57.6,62.85 L 57.51,63.21 L 57.25,63.8 L 57.03,64.04 L 56.7,64.37 L 56.13,64.74 L 55.67,64.94 L 55.16,65.09 L 54.59,65.26 L 54.26,65.33 L 54.06,65.39 L 53.83,65.43 L 53.41,65.54 L 52.94,65.67 L 52.63,65.77 L 52.15,65.89 L 51.7,66.03 L 51.51,66.11 L 51.31,66.18 L 51.09,66.29 L 50.9,66.36 L 50.25,66.71 L 50.04,66.84 L 49.82,66.95 L 49.77,66.95 L 49.74,66.91 L 49.74,66.85 L 49.91,66.44 L 50.01,66.14 L 50.11,65.92 L 50.33,65.02 L 50.37,64.8 L 50.42,64.65 L 50.5,64.22 L 50.56,64.01 L 50.67,63.07 L 50.75,62.5 L 50.84,61.35 L 50.79,61.06 L 50.76,61.02 L 50.65,61 L 50.61,61.02 L 50.56,61.11 L 50.48,62.09 L 50.44,62.43 L 50.43,62.69 L 50.38,63.03 L 50.24,63.99 L 50.06,64.98 L 49.93,65.43 L 49.73,66.09 L 49.65,66.33 L 49.52,66.66 L 49.32,67.12 L 49.26,67.18 L 49.17,67.14 L 49,66.72 L 48.91,66.6 L 48.63,65.75 L 48.59,65.53 L 48.48,65.3 L 48.25,64.26 L 48.19,63.92 L 48.16,63.75 L 48.13,63.52 L 48.09,63.15 L 47.98,62.52 L 47.89,61.61 L 47.9,61.38 L 47.84,61.1 L 47.78,61.03 L 47.68,61.03 L 47.62,61.11 L 47.61,61.2 L 47.61,61.56 L 47.63,61.81 L 47.63,62.03 L 47.66,62.2 L 47.66,62.36 L 47.68,62.52 L 47.74,63.18 L 47.77,63.33 L 47.84,63.66 L 47.85,63.87 L 48.04,64.56 L 48.24,65.42 L 48.53,66.33 L 48.66,66.66 L 48.77,66.9 L 48.77,66.95 L 48.75,66.98 L 48.62,66.93 L 47.59,66.39 L 47.32,66.27 L 47.15,66.17 L 46.61,65.99 L 45.75,65.75 L 45.47,65.7 L 45.14,65.57 L 44.81,65.51 L 44.26,65.41 L 44.06,65.35 L 43.75,65.28 L 43.23,65.14 L 42.98,65.07 L 42.85,65 L 42.63,64.95 L 42.07,64.66 L 41.83,64.5 L 41.6,64.28 L 41.33,64.02 L 41.07,63.61 L 40.96,63.33 L 40.85,62.97 L 40.81,62.54 L 40.91,61.99 L 41.04,61.59 L 41.13,61.49 L 41.29,61.45 L 41.53,61.43 L 41.85,61.43 L 42.31,61.35 L 42.69,61.27 L 43.61,61.05 L 44.57,60.74 L 44.76,60.66 L 45.06,60.56 L 45.17,60.48 L 45.2,60.39 L 45.17,60.29 L 45.13,60.26 L 45.03,60.28 L 44.85,60.36 L 43.81,60.72 L 43.49,60.8 L 43.19,60.9 L 42.24,61.1 L 42.19,61.1 L 42.16,61.08 L 42.17,61.04 L 42.31,60.98 L 42.46,60.94 L 42.59,60.87 L 43,60.74 L 43.17,60.65 L 43.58,60.52 L 44.22,60.23 L 44.35,60.17 L 44.59,60.07 L 45.1,59.85 L 45.16,59.77 L 45.17,59.67 L 45.14,59.63 L 45.04,59.63 L 44.44,59.91 L 44.27,60 L 44.04,60.11 L 43.86,60.19 L 43.44,60.37 L 43.29,60.42 L 42.94,60.6 L 42.51,60.77 L 42.38,60.83 L 42.17,60.89 L 41.98,60.98 L 41.87,60.97 L 41.86,60.96 L 42.31,60.68 L 42.56,60.54 L 42.86,60.37 L 43,60.31 L 43.23,60.15 L 43.47,60.04 L 44.07,59.72 L 44.35,59.54 L 44.54,59.46 L 44.69,59.34 L 45.04,59.17 L 45.15,59.07 L 45.2,58.93 L 45.18,58.88 L 45.15,58.84 L 45.06,58.84 L 44.91,58.96 L 44.57,59.15 L 44.42,59.26 L 44.11,59.41 L 43.99,59.5 L 43.81,59.58 L 43.65,59.68 L 43.29,59.92 L 42.53,60.35 L 42.24,60.53 L 42.13,60.61 L 42.03,60.65 L 41.9,60.78 L 41.8,60.82 L 41.75,60.83 L 41.72,60.81 L 41.72,60.78 L 41.95,60.6 L 42.31,60.29 L 42.96,59.82 L 43.21,59.61 L 43.5,59.43 L 43.65,59.32 L 44,59.08 L 44.14,58.95 L 44.93,58.48 L 45.15,58.3 L 45.17,58.19 L 45.15,58.13 L 45.12,58.09 L 45.08,58.08 L 44.96,58.16 L 44.58,58.38 L 44.33,58.59 L 44.15,58.68 L 43.92,58.85 L 43.76,58.95 L 43.66,59.05 L 43.27,59.32 L 43.03,59.48 L 42.9,59.61 L 42.61,59.79 L 42.39,60.03 L 42.2,60.17 L 42.11,60.27 L 41.97,60.4 L 41.82,60.5 L 41.81,60.48 L 42.01,60.22 L 42.25,59.93 L 42.64,59.53 L 42.8,59.36 L 42.96,59.26 L 43.1,59.07 L 43.38,58.88 L 43.52,58.76 L 43.96,58.41 L 44.06,58.31 L 44.22,58.2 L 44.53,57.99 L 44.66,57.86 L 45.1,57.57 L 45.18,57.44 L 45.18,57.34 L 45.15,57.3 L 45.1,57.29 L 45.01,57.33 L 44.64,57.55 L 44.39,57.76 L 43.95,58.05 L 43.66,58.29 L 43.47,58.43 L 43.29,58.58 L 43.01,58.83 L 42.86,58.95 L 42.75,59.03 L 42.54,59.23 L 42.44,59.38 L 42.31,59.52 L 42.16,59.64 L 41.86,60 L 41.7,60.16 L 41.31,60.69 L 41.16,60.87 L 40.96,61.2 L 40.87,61.24 L 40.65,61.21 L 40.23,61.1 L 39.7,60.85 L 39.39,60.56 L 39.2,60.35 L 39,60.09 L 38.73,59.5 L 38.7,59.33 L 38.71,59.16 L 38.65,58.89 L 38.65,58.63 L 38.68,58.41 L 38.7,58.1 L 38.8,57.67 L 38.94,57.16 L 39.04,56.81 L 39.25,56.1 L 39.52,55.14 L 39.72,54.23 L 39.83,53.75 L 39.92,52.67 L 39.92,52.4 L 39.92,52.01 L 39.96,51.91 L 39.99,51.9 L 40.06,51.97 L 40.13,52.09 L 40.38,52.37 L 40.55,52.6 L 40.98,53.02 L 41.51,53.55 L 42.15,54.1 L 42.28,54.24 L 42.46,54.39 L 42.58,54.46 L 42.94,54.76 L 43.21,54.95 L 43.75,55.33 L 44.28,55.65 L 44.51,55.82 L 44.74,55.98 L 45.05,56.13 L 45.1,56.14 L 45.14,56.11 L 45.18,56.04 L 45.12,55.9 L 45.01,55.81 L 44.89,55.74 L 44.53,55.51 L 44.2,55.31 L 43.66,54.93 L 43.51,54.81 L 43.34,54.72 L 42.78,54.29 L 42.57,54.11 L 42.35,53.94 L 42.15,53.74 L 41.97,53.6 L 41.55,53.22 L 41.12,52.8 L 40.97,52.61 L 40.61,52.24 L 40.31,51.82 L 40.24,51.69 L 40.1,51.56 L 40.06,51.46 L 40.06,51.41 L 40.08,51.36 L 40.12,51.35 L 41.11,51.46 L 41.85,51.63 L 42.28,51.77 L 42.53,51.82 L 42.81,51.93 L 43.11,52.03 L 43.86,52.32 L 44.66,52.63 L 44.88,52.74 L 45.08,52.79 L 45.12,52.77 L 45.15,52.67 L 45.12,52.56 L 45.05,52.5 L 44.22,52.14 L 44.09,52.08 L 43.96,52.02 L 43.55,51.9 L 43.32,51.81 L 42.93,51.67 L 42.59,51.55 L 42.02,51.41 L 41.34,51.24 L 40.51,51.09 L 40.4,51.07 L 40.39,51.03 L 40.46,50.98 L 40.9,50.75 L 41.18,50.56 L 41.35,50.47 L 41.61,50.26 L 41.85,50.11 L 42.16,49.83 L 42.47,49.54 L 42.7,49.31 L 42.88,49.16 L 43.16,48.84 L 43.62,48.38 L 43.74,48.24 L 43.87,48.11 L 43.98,47.96 L 44.17,47.81 L 44.66,47.25 L 44.9,47.03 L 45.47,46.54 L 45.68,46.41 L 46.23,46.16 L 46.6,46.07 L 47.03,46.03 L 47.55,46.07 M 49.46,51.28 L 49.4,51.17 L 49.24,51.07 L 49.14,51.05 L 48.98,51.09 L 48.66,51.09 L 48.41,51.11 L 48.2,51.16 L 48.13,51.22 L 48.1,51.33 L 48.13,51.51 L 48.18,51.59 L 48.32,51.65 L 48.8,51.68 L 48.88,51.74 L 48.94,51.87 L 48.92,52.02 L 48.84,52.08 L 48.58,52.09 L 48.27,52.08 L 48.03,52.1 L 47.51,52.09 L 47.14,52.07 L 46.96,52.07 L 46.78,52.15 L 46.65,52.29 L 46.64,52.4 L 46.68,52.62 L 46.65,53.19 L 46.68,54.48 L 46.72,54.57 L 46.82,54.67 L 46.97,54.72 L 47.08,54.7 L 47.19,54.62 L 47.23,54.52 L 47.24,54.28 L 47.27,53.79 L 47.25,53.48 L 47.26,53.3 L 47.25,52.85 L 47.29,52.75 L 47.46,52.65 L 47.64,52.65 L 48.12,52.62 L 48.79,52.6 L 48.88,52.64 L 48.96,52.75 L 48.95,52.85 L 48.85,53.02 L 48.76,53.06 L 48.38,53.09 L 48.03,53.06 L 47.84,53.12 L 47.77,53.19 L 47.71,53.46 L 47.71,54.3 L 47.79,54.49 L 47.88,54.6 L 47.93,54.61 L 48.6,54.59 L 49.11,54.58 L 49.77,54.57 L 50.18,54.58 L 50.36,54.58 L 50.51,54.53 L 50.61,54.43 L 50.65,54.21 L 50.66,53.61 L 50.61,53.26 L 50.56,53.1 L 50.49,53.05 L 50.34,53.03 L 50.11,53.04 L 49.83,53.05 L 49.65,53.04 L 49.52,52.97 L 49.48,52.88 L 49.48,52.76 L 49.52,52.67 L 49.61,52.62 L 49.98,52.61 L 50.33,52.61 L 50.56,52.61 L 50.86,52.62 L 51.03,52.64 L 51.1,52.7 L 51.14,52.87 L 51.15,54.02 L 51.14,54.46 L 51.16,54.57 L 51.26,54.67 L 51.41,54.71 L 51.52,54.7 L 51.64,54.62 L 51.7,54.48 L 51.71,53.66 L 51.74,53.36 L 51.71,53.11 L 51.7,52.34 L 51.64,52.14 L 51.57,52.07 L 51.36,52.03 L 51.19,52.03 L 50.65,52.05 L 49.82,52.08 L 49.6,52.07 L 49.51,52.03 L 49.46,51.81 L 49.46,51.28 M 46.19,52.28 L 46.08,52.03 L 46,51.98 L 45.82,51.98 L 45.67,52.03 L 45.6,52.1 L 45.56,52.25 L 45.56,52.9 L 45.59,53.21 L 45.58,53.58 L 45.59,54.07 L 45.57,54.44 L 45.59,54.69 L 45.59,54.87 L 45.6,55.04 L 45.6,55.34 L 45.67,55.46 L 45.78,55.54 L 45.9,55.56 L 46.22,55.53 L 46.58,55.54 L 47.15,55.53 L 48.55,55.51 L 50.12,55.49 L 51.09,55.49 L 52.03,55.46 L 52.5,55.51 L 52.66,55.47 L 52.75,55.36 L 52.78,55.2 L 52.79,54.96 L 52.79,54.34 L 52.78,54.12 L 52.8,53.81 L 52.77,53.57 L 52.79,53.26 L 52.79,53.01 L 52.8,52.85 L 52.81,52.64 L 52.8,52.46 L 52.79,52.2 L 52.76,52.03 L 52.69,51.97 L 52.55,51.91 L 52.44,51.92 L 52.26,52 L 52.22,52.09 L 52.21,53.26 L 52.2,53.5 L 52.21,54.44 L 52.18,54.88 L 52.08,54.98 L 51.94,55.03 L 51.01,55.03 L 47.43,55.07 L 46.52,55.1 L 46.35,55.1 L 46.26,55.05 L 46.21,54.97 L 46.16,54.78 L 46.18,54.58 L 46.16,54.41 L 46.16,54.19 L 46.15,53.84 L 46.18,53.66 L 46.19,53.39 L 46.18,53.18 L 46.18,52.51 L 46.19,52.28 M 41.81,52.33 L 41.62,52.61 L 41.61,52.71 L 41.68,52.77 L 42.29,53.14 L 42.49,53.28 L 42.59,53.28 L 42.91,53.26 L 43.03,53.27 L 43.28,53.41 L 43.66,53.63 L 43.91,53.77 L 44.41,54.06 L 44.61,54.18 L 44.99,54.39 L 45.05,54.4 L 45.12,54.36 L 45.13,54.27 L 45.06,54.15 L 44.73,53.95 L 44.61,53.86 L 44.35,53.73 L 43.81,53.43 L 43.65,53.32 L 43.18,53.08 L 43.05,52.94 L 42.98,52.67 L 42.89,52.57 L 42.5,52.36 L 42.26,52.21 L 42,52.07 L 41.9,52.09 L 41.86,52.18 L 41.81,52.33 M 56.12,52.09 L 56.01,52.18 L 55.51,52.47 L 55.38,52.61 L 55.28,52.9 L 55.09,53.04 L 54.77,53.18 L 54.38,53.45 L 54.19,53.53 L 54,53.67 L 53.77,53.78 L 53.53,53.94 L 53.27,54.08 L 53.21,54.15 L 53.18,54.24 L 53.19,54.29 L 53.23,54.32 L 53.34,54.32 L 53.64,54.15 L 53.79,54.03 L 54.14,53.85 L 54.66,53.58 L 54.8,53.46 L 55.11,53.3 L 55.25,53.17 L 55.4,53.12 L 55.58,53.13 L 55.73,53.17 L 55.93,53.12 L 56.72,52.65 L 56.79,52.58 L 56.81,52.54 L 56.78,52.45 L 56.58,52.05 L 56.47,51.95 L 56.37,51.94 L 56.22,51.99 L 56.12,52.09 M 49.11,53.51 L 49.35,53.49 L 49.52,53.49 L 49.7,53.49 L 49.92,53.48 L 50.01,53.52 L 50.07,53.6 L 50.09,53.85 L 50.07,54.02 L 50.01,54.09 L 49.85,54.14 L 49.08,54.11 L 48.85,54.12 L 48.43,54.13 L 48.34,54.1 L 48.27,54.03 L 48.22,53.88 L 48.23,53.76 L 48.3,53.63 L 48.4,53.53 L 48.56,53.5 L 49.11,53.51 M 50,55.91 L 49.39,56.29 L 49.2,56.36 L 49.06,56.31 L 48.61,56.03 L 48.5,55.95 L 48.23,55.83 L 48.12,55.83 L 48.03,55.87 L 47.96,56 L 47.94,56.17 L 48,56.25 L 48.34,56.43 L 48.48,56.49 L 48.57,56.59 L 48.57,56.69 L 48.49,56.81 L 48.36,56.88 L 48.21,56.93 L 48,57.12 L 47.98,57.29 L 48.02,57.4 L 48.2,57.53 L 48.47,57.66 L 48.55,57.72 L 48.59,57.81 L 48.58,57.86 L 48.47,57.96 L 48.16,58.18 L 48.03,58.25 L 47.99,58.33 L 47.97,58.5 L 47.99,58.61 L 48.06,58.67 L 48.22,58.68 L 48.4,58.61 L 48.77,58.37 L 49.03,58.24 L 49.2,58.14 L 49.31,58.13 L 49.6,58.3 L 49.92,58.52 L 50.18,58.65 L 50.3,58.66 L 50.4,58.62 L 50.49,58.52 L 50.52,58.41 L 50.45,58.27 L 50.35,58.18 L 50.19,58.08 L 49.94,57.92 L 49.88,57.85 L 49.87,57.81 L 49.92,57.74 L 50.36,57.44 L 50.43,57.39 L 50.48,57.3 L 50.48,57.19 L 50.39,57.01 L 50.26,56.94 L 50.02,56.79 L 49.9,56.71 L 49.9,56.61 L 49.95,56.54 L 50.3,56.29 L 50.44,56.23 L 50.49,56.15 L 50.5,55.97 L 50.46,55.89 L 50.34,55.8 L 50.21,55.78 L 50.07,55.83 L 50,55.91 M 46.39,55.92 L 46.26,55.94 L 46.07,55.88 L 45.91,55.89 L 45.7,56 L 45.65,56.09 L 45.65,56.54 L 45.65,56.71 L 45.64,57.13 L 45.64,57.53 L 45.62,58.09 L 45.64,58.41 L 45.71,58.54 L 45.78,58.6 L 45.99,58.61 L 46.09,58.58 L 46.14,58.5 L 46.25,58.21 L 46.36,58.13 L 46.55,58.11 L 46.75,58.13 L 47.29,58.13 L 47.38,58.11 L 47.49,57.96 L 47.5,57.86 L 47.41,57.69 L 47.28,57.62 L 46.8,57.62 L 46.49,57.65 L 46.32,57.63 L 46.25,57.57 L 46.22,57.48 L 46.29,57.3 L 46.36,57.25 L 46.92,57.26 L 47.25,57.26 L 47.39,57.2 L 47.46,57.14 L 47.49,56.98 L 47.46,56.87 L 47.36,56.77 L 47.22,56.72 L 46.92,56.74 L 46.6,56.77 L 46.42,56.77 L 46.28,56.71 L 46.24,56.63 L 46.25,56.52 L 46.3,56.44 L 46.5,56.36 L 46.8,56.37 L 47.32,56.38 L 47.4,56.33 L 47.49,56.16 L 47.46,56 L 47.4,55.93 L 47.2,55.87 L 46.91,55.9 L 46.39,55.92 M 51.68,55.84 L 51.33,55.85 L 51.18,55.84 L 51.02,55.94 L 50.97,56.03 L 50.99,56.2 L 51.05,56.28 L 51.14,56.32 L 51.4,56.32 L 51.68,56.27 L 52.11,56.3 L 52.19,56.35 L 52.23,56.44 L 52.22,56.55 L 52.14,56.68 L 52.04,56.71 L 51.47,56.7 L 51.15,56.71 L 51.07,56.76 L 50.98,56.87 L 50.97,56.99 L 51.01,57.09 L 51.11,57.19 L 51.28,57.21 L 51.72,57.17 L 52.09,57.19 L 52.19,57.22 L 52.23,57.32 L 52.2,57.48 L 52.11,57.59 L 52.02,57.62 L 51.34,57.57 L 51.17,57.57 L 51.04,57.64 L 50.98,57.78 L 50.98,57.94 L 51.06,58.06 L 51.15,58.1 L 51.31,58.08 L 51.58,58.06 L 51.96,58.03 L 52.13,58.05 L 52.2,58.11 L 52.26,58.32 L 52.32,58.45 L 52.43,58.54 L 52.54,58.57 L 52.69,58.52 L 52.78,58.41 L 52.82,58.26 L 52.82,57.7 L 52.8,56.1 L 52.75,55.95 L 52.65,55.85 L 52.55,55.82 L 52.17,55.84 L 51.68,55.84 M 48.96,57.11 L 49.17,56.98 L 49.27,56.97 L 49.49,57.07 L 49.56,57.14 L 49.55,57.24 L 49.48,57.37 L 49.37,57.46 L 49.19,57.49 L 49.08,57.47 L 48.92,57.3 L 48.91,57.2 L 48.96,57.11 M 46.18,59.11 L 46.02,58.89 L 45.92,58.86 L 45.82,58.88 L 45.66,58.99 L 45.61,59.07 L 45.6,59.45 L 45.61,59.67 L 45.63,60.42 L 45.67,60.58 L 45.78,60.67 L 45.97,60.74 L 46.19,60.7 L 46.58,60.7 L 46.83,60.69 L 47,60.7 L 47.24,60.68 L 47.54,60.7 L 47.9,60.68 L 48.34,60.65 L 48.76,60.69 L 48.88,60.76 L 48.98,61.13 L 49.12,61.26 L 49.21,61.29 L 49.4,61.22 L 49.5,61.13 L 49.54,60.9 L 49.6,60.76 L 49.67,60.7 L 49.84,60.68 L 50.03,60.68 L 50.27,60.66 L 50.93,60.66 L 51.38,60.66 L 52.09,60.65 L 52.37,60.67 L 52.55,60.67 L 52.72,60.57 L 52.81,60.47 L 52.84,60.36 L 52.81,60.06 L 52.8,59.13 L 52.76,58.99 L 52.68,58.86 L 52.57,58.85 L 52.38,58.87 L 52.29,58.97 L 52.23,59.17 L 52.22,60.03 L 52.17,60.11 L 52.08,60.15 L 51.54,60.17 L 51.16,60.16 L 51,60.12 L 50.95,60.04 L 50.94,59.73 L 50.95,59.34 L 50.9,59.1 L 50.84,58.97 L 50.75,58.93 L 50.57,58.92 L 50.43,58.98 L 50.38,59.06 L 50.36,59.29 L 50.4,59.72 L 50.4,59.9 L 50.41,60.16 L 50.19,60.19 L 48.42,60.19 L 48.18,60.16 L 48.1,60.11 L 48.06,60.02 L 48.04,59.1 L 47.97,58.97 L 47.81,58.92 L 47.65,58.95 L 47.53,59.03 L 47.46,59.16 L 47.46,60.03 L 47.43,60.13 L 47.35,60.18 L 46.57,60.19 L 46.35,60.18 L 46.27,60.13 L 46.23,60.04 L 46.23,59.69 L 46.18,59.11 M 56.53,60.78 L 56.58,60.84 L 56.54,60.84 L 56.52,60.81 L 56.53,60.78 M 56.24,60.9 L 56.16,60.95 L 56.12,60.92 L 56.14,60.9 L 56.24,60.9 M 49.08,61.89 L 49.09,62.9 L 49.11,63.49 L 49.07,63.7 L 48.95,63.85 L 48.88,63.97 L 48.83,64.53 L 48.84,64.76 L 48.82,65.06 L 48.87,65.14 L 49.03,65.17 L 49.32,65.17 L 49.5,65.17 L 49.59,65.13 L 49.64,64.99 L 49.64,64.82 L 49.64,64.53 L 49.62,64.14 L 49.6,63.96 L 49.43,63.74 L 49.37,63.59 L 49.38,62.68 L 49.38,62.31 L 49.34,61.69 L 49.31,61.65 L 49.27,61.62 L 49.16,61.63 L 49.1,61.71 L 49.08,61.89"
   class="ps00 ps10"
   id="path9"
   style="fill:#1e552e;stroke-width:0.40000001000000002;stroke-miterlimit:4;fill-opacity:1" />
<g
   id="xfrm1"
   transform="scale(100,100)"
   style="fill:#1e552e;fill-opacity:1">
<g
   id="frm2"
   transform="scale(1e-2,1e-2)"
   style="fill:#1e552e;fill-opacity:1">
</g>
</g>
</g>
</svg>