<?xml version="1.0" encoding="UTF-8" standalone="no"?>
<svg
   xmlns:dc="http://purl.org/dc/elements/1.1/"
   xmlns:cc="http://creativecommons.org/ns#"
   xmlns:rdf="http://www.w3.org/1999/02/22-rdf-syntax-ns#"
   xmlns:svg="http://www.w3.org/2000/svg"
   xmlns="http://www.w3.org/2000/svg"
   xmlns:sodipodi="http://sodipodi.sourceforge.net/DTD/sodipodi-0.dtd"
   xmlns:inkscape="http://www.inkscape.org/namespaces/inkscape"
   id="svgRoot"
   viewBox="0 0 200 200"
   xml:space="preserve"
   sodipodi:version="0.32"
   inkscape:version="0.46"
   width="256"
   height="255.85173"
   sodipodi:docname="Kyoto University.svg"
   inkscape:output_extension="org.inkscape.output.svg.inkscape"
   version="1.0"><metadata
   id="metadata597"><rdf:RDF><cc:Work
       rdf:about=""><dc:format>image/svg+xml</dc:format><dc:type
         rdf:resource="http://purl.org/dc/dcmitype/StillImage" /></cc:Work></rdf:RDF></metadata><sodipodi:namedview
   inkscape:window-height="667"
   inkscape:window-width="842"
   inkscape:pageshadow="2"
   inkscape:pageopacity="0.0"
   guidetolerance="10.0"
   gridtolerance="10.0"
   objecttolerance="10.0"
   borderopacity="1.0"
   bordercolor="#666666"
   pagecolor="#ffffff"
   id="base"
   showgrid="false"
   inkscape:zoom="1.8057333"
   inkscape:cx="128"
   inkscape:cy="127.92587"
   inkscape:window-x="88"
   inkscape:window-y="0"
   inkscape:current-layer="svgRoot" />
<defs
   id="defs3"><inkscape:perspective
   sodipodi:type="inkscape:persp3d"
   inkscape:vp_x="0 : 526.18109 : 1"
   inkscape:vp_y="0 : 1000 : 0"
   inkscape:vp_z="744.09448 : 526.18109 : 1"
   inkscape:persp3d-origin="372.04724 : 350.78739 : 1"
   id="perspective599" />
</defs>
<g
   transform="matrix(2.3183029,0,0,-2.3183054,-123.80896,324.09889)"
   id="g7">
<g
   id="q1"
   class="">
<clipPath
   id="clp1"
   clip-rule="nonzero">
<path
   d="M -195.8,-322.1 L 399.5,-322.1 L 399.5,519.8 L -195.8,519.8 L -195.8,-322.1 z"
   id="path11" />
</clipPath>
<g
   clip-path="url(#clp1)"
   id="g13">
<clipPath
   id="clp2"
   clip-rule="nonzero">
<path
   d="M -237.3,-669.4 L 1031.7,-669.4 L 1031.7,554.6 L -237.3,554.6 L -237.3,-669.4 z"
   id="path16" />
</clipPath>
<g
   clip-path="url(#clp2)"
   id="g18">
<path
   d="M 65.03,95.78 L 65.23,95.76 L 65.48,98.78 L 65.28,98.8 C 65.16,97.97 64.98,97.85 64.23,97.91 L 62.23,98.08 L 62.03,98.37 L 63.25,99.42 C 63.64,99.75 64.83,100.7 65.16,100.7 C 65.39,100.6 65.39,100.5 65.37,99.89 L 65.57,99.87 L 65.84,103.1 L 65.63,103.2 C 65.6,102.5 65.17,102.2 64.34,101.6 L 61.46,99.29 L 59.61,101.5 C 58.92,102.3 58.91,102.5 58.91,103.2 L 58.7,103.2 L 58.48,100.4 L 58.68,100.4 C 58.74,100.9 58.78,101.1 59.07,101.1 C 59.43,101.1 59.7,100.7 61.67,98.12 L 59.48,98.3 C 58.69,98.37 58.58,98.53 58.6,99.37 L 58.39,99.38 L 58.14,96.34 L 58.35,96.32 C 58.46,97.05 58.56,97.28 59.39,97.21 L 64.03,96.83 C 64.9,96.76 65.05,96.62 65.03,95.78"
   class="ps01 ps10"
   id="path20"
   style="fill:#0b1f39;stroke-width:0.2;stroke-miterlimit:4" />
</g>
</g>
</g>
<g
   id="q2"
   class="">
<clipPath
   id="clp3"
   clip-rule="nonzero">
<path
   d="M -195.8,-322.1 L 399.5,-322.1 L 399.5,519.8 L -195.8,519.8 L -195.8,-322.1 z"
   id="path24" />
</clipPath>
<g
   clip-path="url(#clp3)"
   id="g26">
<clipPath
   id="clp4"
   clip-rule="nonzero">
<path
   d="M -237.3,-669.4 L 1031.7,-669.4 L 1031.7,554.6 L -237.3,554.6 L -237.3,-669.4 z"
   id="path29" />
</clipPath>
<g
   clip-path="url(#clp4)"
   id="g31">
<path
   d="M 61.26,105.7 L 63.65,106.4 L 65.44,105.9 C 66.22,105.6 66.44,105.5 66.15,104.5 L 66.34,104.4 L 67.32,107.6 L 67.13,107.6 C 66.83,106.7 66.61,106.6 65.88,106.9 L 63.89,107.5 L 62.04,109.7 C 61.17,110.8 61.24,111.1 61.31,111.5 L 61.12,111.6 L 60.42,109.3 L 60.61,109.3 C 60.71,109.6 60.85,110 61.17,109.9 C 61.31,109.8 61.41,109.7 61.51,109.6 L 63.37,107.4 L 60.62,106.6 C 60.46,106.5 60.23,106.5 60.12,106.6 C 59.83,106.7 59.9,106.9 60.03,107.4 L 59.84,107.4 L 58.94,104.6 L 59.14,104.5 C 59.32,105 59.4,105.1 61.26,105.7"
   class="ps01 ps11"
   id="path33"
   style="fill:#0b1f39;stroke-width:0.2;stroke-linecap:butt;stroke-linejoin:miter;stroke-miterlimit:4" />
</g>
</g>
</g>
<g
   id="q3"
   class="">
<clipPath
   id="clp5"
   clip-rule="nonzero">
<path
   d="M -195.8,-322.1 L 399.5,-322.1 L 399.5,519.8 L -195.8,519.8 L -195.8,-322.1 z"
   id="path37" />
</clipPath>
<g
   clip-path="url(#clp5)"
   id="g39">
<clipPath
   id="clp6"
   clip-rule="nonzero">
<path
   d="M -237.3,-669.4 L 1031.7,-669.4 L 1031.7,554.6 L -237.3,554.6 L -237.3,-669.4 z"
   id="path42" />
</clipPath>
<g
   clip-path="url(#clp6)"
   id="g44">
<path
   d="M 64.71,110.9 C 66.7,109.8 68.7,110.4 69.67,112.1 C 70.64,113.8 70.2,115.8 68.21,117 C 66.07,118.2 64.12,117.3 63.24,115.8 C 62.36,114.3 62.57,112.1 64.71,110.9 M 63.58,115.6 C 64.12,116.6 65.47,117.2 67.59,115.9 C 69.64,114.8 69.93,113.3 69.33,112.3 C 68.74,111.3 67.36,110.8 65.31,112 C 63.19,113.2 63.03,114.6 63.58,115.6"
   class="ps01 ps11"
   id="path46"
   style="fill:#0b1f39;stroke-width:0.2;stroke-linecap:butt;stroke-linejoin:miter;stroke-miterlimit:4" />
</g>
</g>
</g>
<g
   id="q4"
   class="">
<clipPath
   id="clp7"
   clip-rule="nonzero">
<path
   d="M -195.8,-322.1 L 399.5,-322.1 L 399.5,519.8 L -195.8,519.8 L -195.8,-322.1 z"
   id="path50" />
</clipPath>
<g
   clip-path="url(#clp7)"
   id="g52">
<clipPath
   id="clp8"
   clip-rule="nonzero">
<path
   d="M -237.3,-669.4 L 1031.7,-669.4 L 1031.7,554.6 L -237.3,554.6 L -237.3,-669.4 z"
   id="path55" />
</clipPath>
<g
   clip-path="url(#clp8)"
   id="g57">
<path
   d="M 67.33,118.6 C 66.61,119.6 66.65,119.9 67.43,120.8 L 67.81,121.2 L 71.84,117.7 C 72.44,117.2 72.6,117 71.99,116.2 L 72.14,116.1 L 74.21,118.4 L 74.06,118.6 C 73.44,117.9 73.2,118 72.65,118.4 L 68.53,122.1 L 68.92,122.5 C 69.7,123.4 70.04,123.5 71.08,122.9 L 71.25,123.1 L 69.83,124.2 L 65.83,119.7 L 67.16,118.4 L 67.33,118.6"
   class="ps01 ps11"
   id="path59"
   style="fill:#0b1f39;stroke-width:0.2;stroke-linecap:butt;stroke-linejoin:miter;stroke-miterlimit:4" />
</g>
</g>
</g>
<g
   id="q5"
   class="">
<clipPath
   id="clp9"
   clip-rule="nonzero">
<path
   d="M -195.8,-322.1 L 399.5,-322.1 L 399.5,519.8 L -195.8,519.8 L -195.8,-322.1 z"
   id="path63" />
</clipPath>
<g
   clip-path="url(#clp9)"
   id="g65">
<clipPath
   id="clp10"
   clip-rule="nonzero">
<path
   d="M -237.3,-669.4 L 1031.7,-669.4 L 1031.7,554.6 L -237.3,554.6 L -237.3,-669.4 z"
   id="path68" />
</clipPath>
<g
   clip-path="url(#clp10)"
   id="g70">
<path
   d="M 77.85,121.4 C 79.4,122.6 79.8,124.6 78.42,126.5 C 76.92,128.4 74.77,128.4 73.37,127.3 C 71.97,126.2 71.32,124.2 72.82,122.2 C 74.2,120.4 76.3,120.2 77.85,121.4 M 73.6,127 C 74.48,127.7 75.95,127.7 77.43,125.7 C 78.86,123.8 78.56,122.4 77.61,121.7 C 76.66,121 75.21,121.1 73.79,123 C 72.31,124.9 72.73,126.3 73.6,127"
   class="ps01 ps11"
   id="path72"
   style="fill:#0b1f39;stroke-width:0.2;stroke-linecap:butt;stroke-linejoin:miter;stroke-miterlimit:4" />
</g>
</g>
</g>
<g
   id="q6"
   class="">
<clipPath
   id="clp11"
   clip-rule="nonzero">
<path
   d="M -195.8,-322.1 L 399.5,-322.1 L 399.5,519.8 L -195.8,519.8 L -195.8,-322.1 z"
   id="path76" />
</clipPath>
<g
   clip-path="url(#clp11)"
   id="g78">
<clipPath
   id="clp12"
   clip-rule="nonzero">
<path
   d="M -237.3,-669.4 L 1031.7,-669.4 L 1031.7,554.6 L -237.3,554.6 L -237.3,-669.4 z"
   id="path81" />
</clipPath>
<g
   clip-path="url(#clp12)"
   id="g83">
<path
   d="M 85.33,132.1 L 86.1,128.9 C 86.24,128.2 86.72,126.2 89.32,126.8 C 92.03,127.5 91.56,129.4 91.37,130.3 L 90.72,133 C 90.47,134.1 90.61,134.3 91.39,134.6 L 91.35,134.8 L 88.92,134.2 L 88.97,134 C 89.71,134.1 90,134 90.26,132.9 L 90.93,130.1 C 91.13,129.2 91.1,128.8 91.02,128.6 C 90.83,128 90.32,127.5 89.5,127.3 C 87.68,126.9 87.34,128.4 87.18,129 L 86.39,132.4 C 86.22,133.1 86.31,133.3 87.12,133.6 L 87.08,133.7 L 84.12,133.1 L 84.17,132.9 C 84.97,133 85.15,132.9 85.33,132.1"
   class="ps01 ps11"
   id="path85"
   style="fill:#0b1f39;stroke-width:0.2;stroke-linecap:butt;stroke-linejoin:miter;stroke-miterlimit:4" />
</g>
</g>
</g>
<g
   id="q7"
   class="">
<clipPath
   id="clp13"
   clip-rule="nonzero">
<path
   d="M -195.8,-322.1 L 399.5,-322.1 L 399.5,519.8 L -195.8,519.8 L -195.8,-322.1 z"
   id="path89" />
</clipPath>
<g
   clip-path="url(#clp13)"
   id="g91">
<clipPath
   id="clp14"
   clip-rule="nonzero">
<path
   d="M -237.3,-669.4 L 1031.7,-669.4 L 1031.7,554.6 L -237.3,554.6 L -237.3,-669.4 z"
   id="path94" />
</clipPath>
<g
   clip-path="url(#clp14)"
   id="g96">
<path
   d="M 95.45,128 C 94.66,128.1 94.44,128.3 94.44,129.4 L 94.45,133.6 L 94.48,133.6 L 99.18,127.7 L 99.37,127.7 L 99.39,133.3 C 99.39,134.6 99.73,134.6 100.4,134.7 L 100.4,134.9 L 97.89,134.9 L 97.89,134.7 C 98.62,134.7 98.92,134.6 98.91,133.3 L 98.9,129.8 L 98.88,129.8 L 94.78,134.9 L 92.94,134.9 L 92.94,134.7 C 93.37,134.7 93.54,134.7 93.98,134.1 L 93.97,129.4 C 93.96,128.2 93.74,128.1 92.92,128 L 92.92,127.8 L 95.45,127.8 L 95.45,128"
   class="ps01 ps11"
   id="path98"
   style="fill:#0b1f39;stroke-width:0.2;stroke-linecap:butt;stroke-linejoin:miter;stroke-miterlimit:4" />
</g>
</g>
</g>
<g
   id="q8"
   class="">
<clipPath
   id="clp15"
   clip-rule="nonzero">
<path
   d="M -195.8,-322.1 L 399.5,-322.1 L 399.5,519.8 L -195.8,519.8 L -195.8,-322.1 z"
   id="path102" />
</clipPath>
<g
   clip-path="url(#clp15)"
   id="g104">
<clipPath
   id="clp16"
   clip-rule="nonzero">
<path
   d="M -237.3,-669.4 L 1031.7,-669.4 L 1031.7,554.6 L -237.3,554.6 L -237.3,-669.4 z"
   id="path107" />
</clipPath>
<g
   clip-path="url(#clp16)"
   id="g109">
<path
   d="M 103.6,127.3 C 102.9,127.4 102.6,127.6 102.8,128.4 L 103.6,133.1 C 103.8,133.9 104,134 104.8,133.9 L 104.9,134.1 L 101.7,134.6 L 101.7,134.4 C 102.5,134.2 102.7,134.1 102.5,133.3 L 101.7,128.6 C 101.6,127.8 101.4,127.7 100.5,127.8 L 100.5,127.6 L 103.6,127.1 L 103.6,127.3"
   class="ps01 ps11"
   id="path111"
   style="fill:#0b1f39;stroke-width:0.2;stroke-linecap:butt;stroke-linejoin:miter;stroke-miterlimit:4" />
</g>
</g>
</g>
<g
   id="q9"
   class="">
<clipPath
   id="clp17"
   clip-rule="nonzero">
<path
   d="M -195.8,-322.1 L 399.5,-322.1 L 399.5,519.8 L -195.8,519.8 L -195.8,-322.1 z"
   id="path115" />
</clipPath>
<g
   clip-path="url(#clp17)"
   id="g117">
<clipPath
   id="clp18"
   clip-rule="nonzero">
<path
   d="M -237.3,-669.4 L 1031.7,-669.4 L 1031.7,554.6 L -237.3,554.6 L -237.3,-669.4 z"
   id="path120" />
</clipPath>
<g
   clip-path="url(#clp18)"
   id="g122">
<path
   d="M 106.8,132.2 L 107.3,125.8 L 107.4,125.7 L 111.8,130.6 C 112.3,131.2 112.5,131.3 113,131.2 L 113.1,131.4 L 111,132.1 L 111,131.9 C 111.3,131.8 111.7,131.6 111.5,131.2 C 111.4,131 111.1,130.6 111.1,130.6 L 108.2,127.4 L 108,131.4 C 107.9,132 107.9,132.5 107.9,132.6 C 108.1,132.9 108.3,132.9 108.8,132.7 L 108.9,132.9 L 106.2,133.9 L 106.2,133.7 C 106.6,133.5 106.8,133.3 106.8,132.2"
   class="ps01 ps11"
   id="path124"
   style="fill:#0b1f39;stroke-width:0.2;stroke-linecap:butt;stroke-linejoin:miter;stroke-miterlimit:4" />
</g>
</g>
</g>
<g
   id="q10"
   class="">
<clipPath
   id="clp19"
   clip-rule="nonzero">
<path
   d="M -195.8,-322.1 L 399.5,-322.1 L 399.5,519.8 L -195.8,519.8 L -195.8,-322.1 z"
   id="path128" />
</clipPath>
<g
   clip-path="url(#clp19)"
   id="g130">
<clipPath
   id="clp20"
   clip-rule="nonzero">
<path
   d="M -237.3,-669.4 L 1031.7,-669.4 L 1031.7,554.6 L -237.3,554.6 L -237.3,-669.4 z"
   id="path133" />
</clipPath>
<g
   clip-path="url(#clp20)"
   id="g135">
<path
   d="M 114.7,129.1 L 112.1,125.1 C 111.7,124.4 111.4,124.4 110.8,124.8 L 110.7,124.6 L 115.6,121.5 L 117,122.7 L 116.7,122.9 C 115.7,122.2 115.1,122.3 114,123 C 112.6,123.8 112.6,123.9 112.9,124.2 L 114.3,126.5 L 115.7,125.6 C 116.4,125.1 116.5,124.9 116.1,124.1 L 116.3,123.9 L 117.7,126 L 117.5,126.2 C 117,125.6 116.7,125.4 115.9,125.9 L 114.5,126.8 L 115.8,128.8 C 116,129.1 116.1,129.1 116.3,129 L 117.5,128.2 C 118.5,127.5 118.7,127.2 118.3,126.3 L 118.5,126.2 L 119.3,127.5 L 114.5,130.6 L 114.4,130.4 C 115,130 115.1,129.8 114.7,129.1"
   class="ps01 ps11"
   id="path137"
   style="fill:#0b1f39;stroke-width:0.2;stroke-linecap:butt;stroke-linejoin:miter;stroke-miterlimit:4" />
</g>
</g>
</g>
<g
   id="q11"
   class="">
<clipPath
   id="clp21"
   clip-rule="nonzero">
<path
   d="M -195.8,-322.1 L 399.5,-322.1 L 399.5,519.8 L -195.8,519.8 L -195.8,-322.1 z"
   id="path141" />
</clipPath>
<g
   clip-path="url(#clp21)"
   id="g143">
<clipPath
   id="clp22"
   clip-rule="nonzero">
<path
   d="M -237.3,-669.4 L 1031.7,-669.4 L 1031.7,554.6 L -237.3,554.6 L -237.3,-669.4 z"
   id="path146" />
</clipPath>
<g
   clip-path="url(#clp22)"
   id="g148">
<path
   d="M 117.6,121.5 C 117,120.9 116.8,120.8 116.2,121.4 L 116,121.2 L 118.1,119.1 L 118.3,119.3 C 117.7,119.9 117.8,120.1 118.3,120.6 L 119.8,122.1 L 120.2,121.7 L 119.7,117.6 L 120.9,116.4 L 121.1,116.5 C 120.8,116.8 120.7,117.2 120.7,117.5 L 121.1,121 C 121.6,120.7 122.7,119.9 123.7,120.9 C 124.9,122.1 123.8,123.5 123.1,124.2 L 121,126.3 L 120.9,126.1 C 121.3,125.5 121.4,125.4 120.8,124.8 L 117.6,121.5 M 121.9,124.3 C 122.1,124.5 122.2,124.5 122.6,124.1 C 122.9,123.8 123.9,122.8 122.9,121.8 C 121.8,120.7 120.7,121.8 120,122.4 L 121.9,124.3"
   class="ps01 ps11"
   id="path150"
   style="fill:#0b1f39;stroke-width:0.2;stroke-linecap:butt;stroke-linejoin:miter;stroke-miterlimit:4" />
</g>
</g>
</g>
<g
   id="q12"
   class="">
<clipPath
   id="clp23"
   clip-rule="nonzero">
<path
   d="M -195.8,-322.1 L 399.5,-322.1 L 399.5,519.8 L -195.8,519.8 L -195.8,-322.1 z"
   id="path154" />
</clipPath>
<g
   clip-path="url(#clp23)"
   id="g156">
<clipPath
   id="clp24"
   clip-rule="nonzero">
<path
   d="M -237.3,-669.4 L 1031.7,-669.4 L 1031.7,554.6 L -237.3,554.6 L -237.3,-669.4 z"
   id="path159" />
</clipPath>
<g
   clip-path="url(#clp24)"
   id="g161">
<path
   d="M 122.6,114.2 C 121.7,115.4 122.6,116.7 122.9,117.1 L 122.8,117.3 L 121.1,115.8 L 121.2,115.6 C 121.3,115.7 121.5,115.7 121.7,115.5 C 121.8,115.2 121.8,114.6 122.3,113.9 C 123.2,112.6 124.4,112.6 125.2,113.1 C 127,114.3 125.2,117.4 126.5,118.3 C 127.1,118.7 127.7,118.4 128,118 C 128.6,117.1 128.2,115.9 127.5,115.3 L 127.7,115.1 L 129.4,116.6 L 129.3,116.7 C 129.2,116.7 129,116.6 128.8,116.8 C 128.7,117.1 128.6,117.8 128.3,118.3 C 127.7,119.1 126.7,119.6 125.7,118.9 C 124.8,118.3 124.8,117.5 124.9,116.3 C 125,114.5 124.8,114.2 124.3,113.8 C 123.8,113.5 123,113.5 122.6,114.2"
   class="ps01 ps11"
   id="path163"
   style="fill:#0b1f39;stroke-width:0.2;stroke-linecap:butt;stroke-linejoin:miter;stroke-miterlimit:4" />
</g>
</g>
</g>
<g
   id="q13"
   class="">
<clipPath
   id="clp25"
   clip-rule="nonzero">
<path
   d="M -195.8,-322.1 L 399.5,-322.1 L 399.5,519.8 L -195.8,519.8 L -195.8,-322.1 z"
   id="path167" />
</clipPath>
<g
   clip-path="url(#clp25)"
   id="g169">
<clipPath
   id="clp26"
   clip-rule="nonzero">
<path
   d="M -237.3,-669.4 L 1031.7,-669.4 L 1031.7,554.6 L -237.3,554.6 L -237.3,-669.4 z"
   id="path172" />
</clipPath>
<g
   clip-path="url(#clp26)"
   id="g174">
<path
   d="M 129.8,113.1 L 125.5,111.1 C 124.8,110.7 124.6,110.8 124.2,111.6 L 124,111.5 L 125.3,108.6 L 125.5,108.7 C 125.2,109.4 125.2,109.7 126,110.1 L 130.3,112.1 C 131,112.5 131.2,112.3 131.6,111.6 L 131.8,111.7 L 130.4,114.5 L 130.2,114.5 C 130.6,113.6 130.5,113.4 129.8,113.1"
   class="ps01 ps11"
   id="path176"
   style="fill:#0b1f39;stroke-width:0.2;stroke-linecap:butt;stroke-linejoin:miter;stroke-miterlimit:4" />
</g>
</g>
</g>
<g
   id="q14"
   class="">
<clipPath
   id="clp27"
   clip-rule="nonzero">
<path
   d="M -195.8,-322.1 L 399.5,-322.1 L 399.5,519.8 L -195.8,519.8 L -195.8,-322.1 z"
   id="path180" />
</clipPath>
<g
   clip-path="url(#clp27)"
   id="g182">
<clipPath
   id="clp28"
   clip-rule="nonzero">
<path
   d="M -237.3,-669.4 L 1031.7,-669.4 L 1031.7,554.6 L -237.3,554.6 L -237.3,-669.4 z"
   id="path185" />
</clipPath>
<g
   clip-path="url(#clp28)"
   id="g187">
<path
   d="M 130.7,109.7 C 131.9,109.8 132.1,109.6 132.5,108.5 L 132.6,107.9 L 127.5,106.4 C 126.7,106.2 126.5,106.2 126.1,107.1 L 126,107 L 126.8,104 L 127,104.1 C 126.8,104.9 127,105.1 127.7,105.3 L 132.9,106.9 L 133.1,106.3 C 133.4,105.2 133.3,104.9 132.3,104.3 L 132.3,104.1 L 134.1,104.6 L 132.4,110.4 L 130.6,110 L 130.7,109.7"
   class="ps01 ps11"
   id="path189"
   style="fill:#0b1f39;stroke-width:0.2;stroke-linecap:butt;stroke-linejoin:miter;stroke-miterlimit:4" />
</g>
</g>
</g>
<g
   id="q15"
   class="">
<clipPath
   id="clp29"
   clip-rule="nonzero">
<path
   d="M -195.8,-322.1 L 399.5,-322.1 L 399.5,519.8 L -195.8,519.8 L -195.8,-322.1 z"
   id="path193" />
</clipPath>
<g
   clip-path="url(#clp29)"
   id="g195">
<clipPath
   id="clp30"
   clip-rule="nonzero">
<path
   d="M -237.3,-669.4 L 1031.7,-669.4 L 1031.7,554.6 L -237.3,554.6 L -237.3,-669.4 z"
   id="path198" />
</clipPath>
<g
   clip-path="url(#clp30)"
   id="g200">
<path
   d="M 134.8,98.01 L 134.6,97.99 C 134.6,97.66 134.6,97.25 134.3,97.23 C 134.1,97.22 134,97.29 133.9,97.35 L 131.3,98.72 L 133.6,100.5 C 133.7,100.6 133.9,100.7 134.1,100.7 C 134.4,100.7 134.4,100.4 134.4,99.94 L 134.6,100 L 134.4,103 L 134.2,102.9 C 134.2,102.5 134.2,102.3 132.7,101.1 L 130.7,99.55 L 128.8,99.42 C 128,99.36 127.8,99.38 127.7,100.4 L 127.5,100.4 L 127.7,97.13 L 127.9,97.15 C 127.9,98.11 128,98.27 128.8,98.32 L 130.9,98.46 L 133.4,97.04 C 134.6,96.38 134.7,96.03 134.7,95.65 L 134.9,95.66 L 134.8,98.01"
   class="ps01 ps11"
   id="path202"
   style="fill:#0b1f39;stroke-width:0.2;stroke-linecap:butt;stroke-linejoin:miter;stroke-miterlimit:4" />
</g>
</g>
</g>
<g
   id="q16"
   class="">
<clipPath
   id="clp31"
   clip-rule="nonzero">
<path
   d="M -195.8,-322.1 L 399.5,-322.1 L 399.5,519.8 L -195.8,519.8 L -195.8,-322.1 z"
   id="path206" />
</clipPath>
<g
   clip-path="url(#clp31)"
   id="g208">
<clipPath
   id="clp32"
   clip-rule="nonzero">
<path
   d="M -237.3,-669.4 L 1031.7,-669.4 L 1031.7,554.6 L -237.3,554.6 L -237.3,-669.4 z"
   id="path211" />
</clipPath>
<g
   clip-path="url(#clp32)"
   id="g213">
<path
   d="M 125.7,96.69 C 125.7,112.8 112.6,125.8 96.54,125.8 C 80.44,125.8 67.39,112.8 67.39,96.69 C 67.39,80.59 80.44,67.53 96.54,67.53 C 112.6,67.53 125.7,80.59 125.7,96.69 M 123.6,101.2 C 122.9,100.7 121.8,101.8 122.2,102.5 C 122.6,103 123.2,102.6 123.5,102.3 C 124,101.8 123.8,101.4 123.6,101.2 M 123.6,99.26 C 123.5,99.26 123.4,99.31 123.3,99.44 C 123.1,99.61 122.7,100 122.9,100.3 C 122.9,100.3 123.1,100.5 123.3,100.5 C 123.8,100.3 124.2,99.61 123.6,99.26 M 103.6,101.8 C 102,101.6 100.8,103.5 101.4,104.8 C 101.6,105.2 101.8,106.1 102.3,106.1 C 103.2,105.9 103,104.4 103.6,104.4 C 104.7,104.4 105.6,105 106.1,104.1 C 107.2,102.7 104.7,101.8 103.6,101.8 M 105.6,100.3 C 105.4,100.2 105,99.79 104.7,99.61 L 104.3,99.79 C 104.5,100.3 104.7,101.4 105.6,101.2 C 105.9,101 105.7,100.5 105.6,100.3 M 99.29,105.9 C 98.93,106.2 98.65,107 99.11,107.5 C 99.29,107.7 99.65,107.9 100,107.5 C 100.5,107.1 101.1,106.4 100.7,105.9 C 100.4,105.3 99.65,105.5 99.29,105.9 M 99.11,103.6 C 98.75,103.6 98.93,104.3 98.93,104.8 C 98.93,105 99.31,105.1 99.47,105 C 100.2,104.6 99.65,103.4 99.11,103.6 M 93.2,100.2 C 93.74,99.44 93.02,98.9 93.2,98.18 C 93.2,97.64 93.63,96.98 93.02,96.57 C 92.48,96.21 91.41,96.75 91.41,97.64 C 91.59,98.18 91.95,98.72 91.59,99.26 C 90.69,100.2 89.44,100 88.36,100.5 C 87.65,100.9 87.83,102.1 88.54,101.9 C 89.8,101.6 90.87,101 92.13,101.4 C 93.02,101.6 92.66,102.8 93.02,103.7 C 93.2,103.7 93.56,103.6 93.56,103.4 C 93.38,102.8 93.56,102.1 93.74,101.6 C 93.74,101 92.84,100.7 93.2,100.2 M 85.68,103.2 C 85.68,102.8 85.3,102.3 84.96,102.5 C 84.07,102.8 83.89,104.1 84.07,105 C 84.25,105.5 84.43,105.9 84.96,106.1 C 85.5,106.2 86.04,105.7 85.86,105.2 C 85.32,104.4 85.14,104.1 85.68,103.2 M 85.5,100.9 C 85.5,100.9 85.32,100.7 85.14,100.7 C 84.78,100.7 84.32,101.1 84.6,101.4 C 84.78,101.6 85.14,101.6 85.32,101.6 C 85.5,101.4 85.5,101 85.5,100.9 M 77.26,102.1 L 76.37,102.1 C 76.01,102.3 76.01,102.8 76.37,103 C 76.91,103.4 77.62,103.9 78.16,103.6 C 78.87,103.2 77.83,102.1 77.26,102.1 M 78.34,100.2 C 78.34,100.2 78.16,100 77.98,100 L 77.62,100 C 77.44,100.2 77.44,100.5 77.44,100.7 C 77.62,100.9 77.98,101 78.16,100.9 C 78.34,100.7 78.34,100.3 78.34,100.2 M 72.07,105.5 C 72.43,105.7 72.61,105.9 72.97,105.5 C 73.14,105.3 73.14,105.2 73.14,105 C 72.97,104.4 72.61,103.9 72.07,104.1 C 71.71,104.4 71.49,105.2 72.07,105.5 M 71.89,106.8 C 71.89,107 72.07,107.3 72.25,107.3 C 72.43,107.3 72.79,107.1 72.79,107 C 72.79,106.8 72.61,106.6 72.43,106.4 C 72.25,106.4 71.89,106.6 71.89,106.8 M 72.79,103.6 C 72.97,103.4 73.09,103.1 72.97,103 C 72.61,102.7 72.25,102.1 71.71,102.3 C 71,102.8 72.07,103.9 72.79,103.6 M 72.61,99.08 C 72.61,99.08 72.79,98.9 72.79,98.72 C 72.79,98.36 72.61,98 72.25,98 C 72.07,98 71.71,98.36 71.71,98.54 C 71.71,99.08 72.25,99.26 72.61,99.08 M 71.89,100 C 72.07,100.7 73.14,101.4 73.86,101 C 74.58,100.7 73.53,99.44 72.79,99.44 C 72.25,99.44 71.71,99.44 71.89,100 M 74.22,99.44 L 74.22,99.08 C 74.22,99.08 74.04,98.9 73.86,98.9 C 73.86,98.9 73.68,99.08 73.68,99.26 C 73.86,99.26 74.04,99.44 74.22,99.44 M 73.5,102.1 C 73.32,102.7 73.86,103.6 74.76,103.4 C 75.47,103.2 75.45,102.5 75.11,101.9 C 74.58,101 73.5,101.4 73.5,102.1 M 74.4,105.3 C 74.58,106.2 75.29,106.1 75.83,105.7 C 76.73,105 75.83,103.9 74.94,103.9 C 74.22,103.9 74.29,104.8 74.4,105.3 M 75.83,101.6 C 76.19,101.6 76.37,101.4 76.37,101 C 76.37,100.9 76.32,100.8 76.19,100.7 C 75.83,100.3 75.47,100 75.11,100.2 C 74.58,100.7 75.29,101.4 75.83,101.6 M 80.84,111.6 C 81.2,111.4 81.07,111 80.84,110.7 C 80.49,110.2 79.77,110 79.59,110.5 C 79.41,111.3 80.31,111.8 80.84,111.6 M 80.67,113.9 C 80.84,114.5 80.84,115.2 81.56,115.4 C 82.1,115.6 82.46,114.8 82.28,114.3 C 82.1,113.6 82.1,112.9 81.38,112.9 C 80.84,112.7 80.5,113.4 80.67,113.9 M 79.95,107 C 79.23,106.8 79.05,107.9 79.41,108.2 C 79.59,108.4 79.59,108.6 79.77,108.6 C 80.49,108.4 80.84,107.1 79.95,107 M 79.95,113 C 80.31,112.9 80.29,112.3 80.13,112 C 79.77,111.3 78.87,111.8 78.87,112.3 C 78.87,113 79.59,113.2 79.95,113 M 79.59,115.6 C 79.59,115.9 79.77,116.1 80.13,116.1 C 80.13,116.1 80.31,115.9 80.31,115.7 C 80.31,115.6 80.13,115.4 80.13,115.2 C 79.95,115.2 79.59,115.4 79.59,115.6 M 78.7,107.5 C 78.52,107.3 78.34,107.1 78.16,107.3 C 77.8,107.9 77.26,109.1 78.16,109.1 L 78.7,109.1 C 79.05,108.6 78.87,108 78.7,107.5 M 77.62,111.3 C 77.26,110.9 76.19,110.7 76.37,111.4 C 76.55,112.1 77.08,112.7 77.62,112.5 C 78.16,112.1 77.8,111.6 77.62,111.3 M 76.91,107.5 C 77.26,107.5 77.62,107.3 77.8,107.1 C 78.34,106.6 78.7,105.2 77.8,105 C 76.91,104.8 76.37,105.9 76.37,106.8 C 76.37,107.1 76.73,107.3 76.91,107.5 M 79.59,102.7 C 79.59,102.7 79.77,102.5 79.77,102.3 C 79.59,101.9 79.41,101.6 78.87,101.6 C 78.7,101.6 78.34,101.8 78.34,101.9 C 78.34,102.5 79.05,102.8 79.59,102.7 M 79.05,104.3 C 78.16,104.8 79.05,105.3 79.23,105.9 C 79.59,105.7 79.95,105.5 79.95,105 C 79.95,104.4 79.4,104.1 79.05,104.3 M 80.31,104.3 C 80.67,104.1 81.38,103.9 81.2,103.4 C 81.02,103.4 80.92,103 80.31,103.2 C 79.77,103.4 79.77,103.4 79.77,103.6 C 79.77,103.9 79.95,104.3 80.31,104.3 M 81.2,107.9 C 80.67,109.1 81.2,108.4 81.38,108.6 C 81.56,108.4 81.56,108.2 81.56,108 C 81.56,108 81.38,107.9 81.2,107.9 M 81.74,105.3 L 82.46,105.3 C 82.81,105.2 82.64,104.8 82.46,104.4 C 82.28,104.3 82.1,104.1 81.92,104.3 C 81.56,104.6 81.34,105.3 81.74,105.3 M 81.74,106.8 C 81.74,107 81.74,107.1 81.92,107.3 C 82.1,107.5 82.28,107.9 82.46,107.9 C 82.81,107.9 83.17,107.5 83.17,107.1 C 83.17,106.6 82.81,106.2 82.46,106.1 C 82.1,106.1 81.92,106.4 81.74,106.8 M 82.64,103.9 L 83.35,103.9 C 83.71,103.7 83.53,103.4 83.35,103 C 83.17,102.8 82.81,102.3 82.46,102.5 C 82.1,102.8 81.99,103.9 82.64,103.9 M 83.17,109.5 C 82.81,109.8 82.81,110.2 83.17,110.5 C 83.35,110.5 83.35,110.7 83.53,110.7 C 84.07,110.7 84.35,109.9 84.07,109.6 C 83.89,109.5 83.35,109.3 83.17,109.5 M 84.96,110.5 C 84.43,110.5 84.25,110.9 84.07,111.4 C 84.07,112 84.43,112.5 84.96,112.3 C 84.96,112.3 85.09,112.1 85.14,112 C 85.32,111.4 85.5,110.7 84.96,110.5 M 85.68,108.6 C 85.5,108.4 85.32,108 85.14,108 C 84.25,108.2 84.25,109.5 84.96,109.5 C 85.5,109.6 86.08,109 85.68,108.6 M 83.71,115.6 C 83.71,115.9 83.89,116.4 84.25,116.4 C 84.6,116.3 85.32,116.4 85.14,115.7 C 84.96,115 83.71,114.7 83.71,115.6 M 83.96,113.7 C 84.2,113.5 84.05,113.2 83.89,113.2 C 83.89,113.2 83.71,113 83.53,113 C 83.35,113.2 83.35,113.6 83.35,113.8 C 83.53,113.9 83.78,113.9 83.96,113.7 M 85.5,107.3 C 85.5,107.9 85.86,108.2 86.39,108.4 C 86.93,108.4 87.22,107.9 87.11,107.3 C 86.93,106.4 85.68,106.4 85.5,107.3 M 89.44,119 L 89.08,119 C 88.72,119.1 88.9,119.5 89.08,119.8 C 89.26,119.7 89.44,119.5 89.62,119.3 C 89.62,119.1 89.44,119 89.44,119 M 88.9,116.8 C 88.72,117 88.72,117.2 88.72,117.3 C 88.9,117.5 89.08,117.5 89.26,117.5 L 89.44,117.2 C 89.51,116.7 89.13,116.6 88.9,116.8 M 88.9,121.1 C 88.9,121.1 88.72,120.9 88.54,120.9 C 88.36,121.1 88.36,121.5 88.36,121.6 C 88.36,121.6 88.54,121.8 88.72,121.8 C 88.72,121.8 88.9,121.6 88.9,121.5 L 88.9,121.1 M 88.54,116.1 C 88.9,115.7 88.9,115.2 88.54,114.7 L 88.19,114.7 C 88.01,114.8 88.09,115.2 88.01,115.4 C 87.83,115.7 88.19,116.3 88.54,116.1 M 89.08,113.8 C 89.98,113.6 89.52,112.6 88.9,112.1 C 88.36,111.8 89.08,110.7 88.36,110.9 C 87.47,110.9 87.29,112.3 87.83,112.7 C 88.36,113 88.54,113.8 89.08,113.8 M 91.81,114.8 L 91.68,114.8 L 91.54,114.7 C 91.5,114.7 91.45,114.8 91.41,114.8 C 91.32,115 91.36,115.2 91.36,115.4 C 91.45,115.4 91.5,115.6 91.59,115.4 L 91.59,115.3 C 91.9,115.3 91.81,115 91.81,114.8 M 94.27,119.7 C 93.92,119.3 93.38,119.8 93.38,120.4 C 93.56,121.1 93.92,122.4 94.63,122.4 C 94.99,122.4 94.58,121.7 94.45,121.3 C 94.27,120.7 94.81,119.8 94.27,119.7 M 93.02,111.6 C 92.66,111.6 92.3,112 92.3,112.3 C 92.48,112.9 92.66,113.2 93.2,113.4 C 93.74,113.4 93.74,112.9 93.74,112.5 C 93.74,112 93.56,111.8 93.02,111.6 M 94.1,110.4 C 94.1,110 93.92,109.8 93.56,109.8 C 92.84,109.8 92.84,110.9 93.38,111.1 C 93.56,111.1 93.61,111 93.74,110.9 C 93.92,110.7 94.1,110.5 94.1,110.4 M 92.48,106.6 C 92.48,106.6 92.66,106.4 92.66,106.2 C 92.48,106.2 92.3,106.2 92.13,106.4 C 91.95,106.8 92.3,106.6 92.48,106.6 M 91.77,108.7 C 91.41,108.7 91.07,109 91.23,109.3 C 91.41,109.6 91.41,110.4 91.95,110.4 C 92.84,110.2 92.48,108.9 91.77,108.7 M 93.02,116.1 C 92.66,115.9 92.3,116.4 92.3,116.8 C 92.48,117.2 92.66,117.7 93.02,117.5 C 93.2,117.3 93.38,117 93.38,116.8 C 93.38,116.6 93.2,116.3 93.02,116.1 M 93.02,113.8 C 93.02,113.8 92.77,113.8 92.66,113.9 C 91.95,114.8 92.66,115 92.84,115.4 C 93.56,115 93.74,114.1 93.02,113.8 M 93.56,118.8 C 93.56,118.4 93.2,118.1 92.84,118.1 C 92.3,118.1 91.95,118.4 91.95,119 C 91.95,119.3 92.3,119.5 92.66,119.7 C 93.38,119.8 93.56,119.3 93.56,118.8 M 91.41,119.1 C 91.23,119.1 91.05,119.3 91.05,119.3 C 91.05,119.8 91.05,120.6 91.77,120.7 C 91.95,120.7 91.95,120.2 91.95,120 C 91.95,119.7 91.77,119.3 91.41,119.1 M 91.41,112.1 C 91.23,111.8 90.87,112 90.51,112.1 C 90.16,112.7 90.49,113.5 91.05,113.4 C 92.3,113.2 91.59,112.5 91.41,112.1 M 91.23,110.7 C 91.23,110.2 90.87,110 90.51,109.8 C 89.98,109.6 89.37,110.2 89.62,110.7 C 89.98,111.4 91.05,111.6 91.23,110.7 M 90.87,108.7 C 90.87,108.4 90.69,108 90.33,108 C 89.98,108.4 89.98,108.9 90.33,109.3 C 90.51,109.3 90.87,109.1 90.87,108.7 M 89.62,108.6 C 89.62,108.2 89.44,107.9 89.08,107.7 C 88.36,107.7 88.54,108.7 89.08,109.1 C 89.26,109.1 89.62,108.9 89.62,108.6 M 87.83,110.2 C 88.36,109.8 88.54,108.7 87.83,108.2 C 87.47,108 87.11,108.6 87.11,108.9 C 87.11,109.5 87.29,110.4 87.83,110.2 M 86.93,114.1 C 86.93,114.1 87.11,114.3 87.29,114.3 C 87.83,113 87.29,113.8 87.11,113.6 C 86.93,113.8 86.93,113.9 86.93,114.1 M 86.75,115.2 C 86.22,115.2 86.1,115.7 86.22,116.1 C 86.39,116.6 86.75,117.3 87.29,117 C 87.83,116.4 87.65,115.4 86.75,115.2 M 86.57,112.3 C 86.57,112.1 86.22,112.1 86.04,112.1 C 85.68,112.5 85.86,112.9 86.04,112.9 C 86.39,112.9 86.57,112.5 86.57,112.3 M 86.22,103.6 C 86.39,103.7 86.57,103.7 86.75,103.7 C 86.75,103.7 86.93,103.6 86.93,103.4 C 85.68,102.8 86.39,103.4 86.22,103.6 M 86.39,100.9 C 86.39,101 86.39,101.4 86.57,101.6 C 87.47,101.8 87.47,100.3 86.75,100.2 C 86.57,100.2 86.22,100.3 86.22,100.5 C 86.22,100.7 86.39,100.7 86.39,100.9 M 86.57,105.7 C 86.75,106.2 87.11,106.4 87.47,106.4 C 87.65,106.2 87.84,105.7 87.65,105.5 C 86.39,104.4 86.93,105.7 86.57,105.7 M 87.83,104.6 C 88.54,105.7 90.16,106.4 90.87,104.6 L 91.41,104.6 C 91.95,103.9 91.95,102.7 91.23,102.5 C 91.05,102.3 90.68,102.5 90.33,102.7 C 89.44,103.2 86.75,103.4 87.83,104.6 M 93.56,106.1 C 93.2,106.4 93.38,106.8 93.56,106.8 C 93.92,106.8 94.1,106.4 94.1,106.2 C 94.1,106.1 93.74,106.1 93.56,106.1 M 93.74,108.4 C 93.74,108.7 93.74,109.3 94.1,109.5 C 94.45,109.5 94.81,109.1 94.99,108.7 C 94.99,108.7 94.94,108.5 94.81,108.4 C 94.63,108.2 94.45,108 94.27,107.9 C 93.92,107.9 93.74,108 93.74,108.4 M 97.32,113.4 C 97.32,112.9 96.98,112.6 96.6,112.5 C 96.06,112.3 95.53,112.9 95.71,113.4 C 95.89,113.8 96.06,114.1 96.42,114.1 C 96.96,114.1 97.14,113.8 97.32,113.4 M 97.32,118.6 C 97.85,118.8 98.14,118.2 97.85,117.9 C 97.68,117.7 97.68,117.2 97.5,117.2 C 96.78,117.2 96.96,118.2 97.32,118.6 M 96.24,115 C 95.53,115 95.25,116.2 95.71,116.6 C 95.89,116.8 95.89,117 96.06,117 C 96.6,117 96.78,116.4 96.78,116.1 C 96.96,115.7 96.78,115 96.24,115 M 95.71,111.4 C 95.71,110.7 95.35,110.7 94.99,110.7 C 94.99,110.7 94.81,110.9 94.81,111.1 C 94.81,111.4 94.99,111.6 95.35,111.6 C 95.53,111.6 95.71,111.4 95.71,111.4 M 94.81,112 C 94.63,112 94.45,112.1 94.27,112.3 C 94.1,112.7 94.45,113.2 94.81,113.2 C 95.17,113 95.38,112 94.81,112 M 94.81,107.1 C 95.53,107.1 95.53,105.7 94.99,105.3 C 94.63,105.3 94.45,105.9 94.45,106.2 C 94.45,106.6 94.45,107.1 94.81,107.1 M 95.35,109.1 C 95.17,109.3 94.99,109.6 95.17,109.8 C 95.35,110 95.53,110 95.71,110 C 95.71,110 95.89,109.8 95.89,109.6 L 95.89,109.3 C 95.71,109.1 95.53,108.9 95.35,109.1 M 96.24,108.7 C 96.78,108.9 97.01,108.6 97.14,108.2 C 97.32,107.7 98.21,107.7 98.21,107.1 C 98.03,106.2 96.6,106.1 96.06,106.8 C 95.53,107.5 95.53,108.2 96.24,108.7 M 98.03,108.4 L 97.5,108.4 C 97.14,108.7 97.14,109.3 97.68,109.6 C 97.68,109.6 97.91,109.6 98.03,109.5 C 98.21,109.3 98.39,109.1 98.39,108.9 C 98.39,108.7 98.21,108.6 98.03,108.4 M 98.03,110.7 C 97.68,110.2 96.96,110 96.78,110.7 C 96.6,111.8 97.68,112.7 98.39,112.5 C 99.11,112.3 98.53,111.5 98.03,110.7 M 97.85,114.5 C 97.5,114.8 97.68,115 97.68,115.6 C 97.68,116.1 97.5,116.6 98.21,116.8 C 98.93,116.8 98.57,115.7 98.93,115.6 C 100,115.2 100.2,114.3 100,113.4 L 99.65,113.2 C 98.93,113.6 98.57,114.1 97.85,114.5 M 99.11,118.4 L 99.47,118.4 C 99.65,118.2 99.77,117.8 99.65,117.7 C 99.47,117.5 99.29,117.5 99.11,117.5 C 98.75,117.7 98.75,118.2 99.11,118.4 M 99.29,120.9 C 99.47,120.7 99.82,120.6 99.65,120.2 L 99.29,120 C 98.93,120.2 99.11,120.6 99.29,120.9 M 98.93,111.1 C 99.11,111.4 99.29,112 99.65,112.1 C 99.82,112.1 100.2,112 100.2,111.6 C 100,111.1 99.65,110.2 98.93,110.4 C 98.57,110.5 98.82,110.8 98.93,111.1 M 100,109.1 L 100,108.6 C 99.82,108.4 99.65,108.2 99.47,108.4 C 99.11,108.7 98.93,109.6 99.47,109.8 C 99.82,109.8 100,109.5 100,109.1 M 100.7,110.7 C 100.7,110.7 100.8,110.5 100.9,110.4 C 101.4,110 101.3,109.3 100.9,109.3 C 100.2,109.1 99.82,110.5 100.7,110.7 M 101.4,116.1 C 101.3,115.7 100.5,115.6 100.4,116.3 C 100.4,116.6 100.1,117.3 100.5,117.3 L 101.3,117.3 C 101.6,117 101.4,116.4 101.4,116.1 M 101.6,114.3 L 101.6,113.8 C 101.6,113.8 101.4,113.6 101.3,113.6 C 100.5,113.8 100.5,114.8 101.1,115 C 101.4,115 101.6,114.7 101.6,114.3 M 101.4,112.3 C 102.2,112.3 102.5,111.3 102.3,110.5 C 102.2,110.2 101.8,110.3 101.6,110.5 C 101.3,111.1 100.4,112.3 101.4,112.3 M 112,110.5 C 112,110.2 111.8,109.6 111.5,109.8 C 111.1,110 110.6,111.1 111.5,111.4 C 112,111.4 112,110.9 112,110.5 M 111.8,112.5 C 111.8,112.9 112,113 112.4,113 C 112.7,113 113.1,112.8 112.9,112.5 C 112.7,112.3 112.5,112.1 112.4,112 C 112,112 111.8,112.1 111.8,112.5 M 110.4,105.9 C 110,105.7 109.5,106.2 109.7,106.6 C 109.9,107.1 109.7,108 110.4,107.9 C 111.3,107.9 111.3,106.2 110.4,105.9 M 110.4,108.6 C 109.7,108.6 109.7,110 110.2,110.2 C 110.6,110.2 110.7,109.6 110.7,109.3 C 110.7,109.1 110.6,108.6 110.4,108.6 M 109.7,111.8 C 109.1,111.8 109,112.5 109.3,112.9 C 109.3,112.9 109.6,112.8 109.7,112.7 C 109.9,112.3 110,112 109.7,111.8 M 108.6,108.2 C 108.6,108.2 108.7,108 108.8,107.9 C 109,107.3 108.6,107 108.1,107.1 C 107.9,107.3 107.9,107.5 107.9,107.7 C 108.1,108 108.2,108.4 108.6,108.2 M 107.2,108.2 C 106.6,108.6 106.5,109.6 107.3,109.8 C 107.9,109.8 108.1,109.3 108.1,108.9 C 108.1,108.7 108.1,108.6 107.9,108.4 C 107.7,108.2 107.3,108 107.2,108.2 M 108.2,109.8 C 107.7,110.2 107.5,111.1 107.9,111.6 C 108.6,112.5 109.3,111.4 109.3,110.7 C 109.3,110.4 109.5,110 109.3,109.8 C 109,109.5 108.6,109.6 108.2,109.8 M 109.3,113.6 C 109,113.4 108.8,113 108.4,113.4 C 108.2,113.6 108.2,113.8 108.2,113.9 C 108.4,114.3 108.8,114.8 109.1,114.7 C 109.3,114.5 109.8,113.8 109.3,113.6 M 108.1,117.7 C 107.7,118.2 107.9,119.5 108.6,119.5 C 109.5,119.5 109,118.4 109,117.9 C 108.6,117.9 108.4,117.2 108.1,117.7 M 107.9,115 L 107.9,114.7 L 107.5,114.5 C 107.2,114.7 107.3,115 107.2,115.4 C 107,115.7 107.5,116.3 107.9,116.1 C 108.2,115.9 107.9,115.4 107.9,115 M 107.7,112.1 C 107.5,111.8 107.3,111.4 107.2,111.4 C 106.3,111.6 106.3,113 107,113.2 C 107.5,113.4 108,112.7 107.7,112.1 M 105.9,115.7 C 106.6,115.4 106.6,114.5 106.3,113.9 C 105.4,114.7 105.7,115.2 105.9,115.7 M 106.1,111.8 L 106.1,111.4 L 105.7,111.3 C 105.4,111.4 105.6,111.8 105.6,112.1 C 105.6,112.1 105.7,112.3 105.9,112.3 C 106.1,112.1 106.1,112 106.1,111.8 M 106.1,118.2 L 105.6,118.2 C 105,118.8 105.6,120.4 106.5,119.8 C 107.2,119.5 106.8,118.2 106.1,118.2 M 105.4,117.5 C 105.6,117.9 105.9,118.1 106.3,117.9 C 106.8,117.5 106.9,116.7 106.3,116.4 C 105.4,116.1 105.4,116.6 105.2,117 C 105.2,117.2 105.2,117.3 105.4,117.5 M 105.4,108.9 C 105.4,108.6 105.2,108.2 104.8,108.2 C 104.1,108.2 104.1,109.6 104.8,109.6 C 105.2,109.6 105.4,109.3 105.4,108.9 M 102.9,114.3 C 102,114.3 102.3,115.6 102.5,116.1 C 102.9,116.6 103,116.1 103.4,115.7 C 102.9,115.4 103.6,114.5 102.9,114.3 M 102.5,113.4 C 102.9,113.8 103.2,113.9 103.6,113.8 C 104.1,113.4 103.9,112.5 103.2,112.3 C 102.9,112.3 102,112.9 102.5,113.4 M 102.7,108.6 C 102.7,108.6 102.9,108.7 103,108.7 C 103.2,108.2 104,107.5 103.4,107 C 103.2,106.8 102.9,106.4 102.7,106.6 C 102.2,107.1 102.5,107.9 102.7,108.6 M 103.2,110.4 C 103,110.7 102.7,111.3 103,111.6 C 103.8,112.3 104.8,111.8 105,111.1 C 105,110.7 104.7,110.2 104.1,110.2 C 103.8,110.2 103.4,110 103.2,110.4 M 104.5,107.1 C 104.7,107 104.8,106.6 104.8,106.4 C 104.8,106.2 104.8,105.9 104.5,105.7 C 104.3,105.7 104.1,105.9 103.9,105.9 C 103.4,106.2 103.9,107.1 104.5,107.1 M 104.7,113.6 C 104.1,113.6 104.3,114.3 103.9,114.5 C 104.1,114.8 104.1,115.4 104.7,115.2 C 105,115 105,114.7 105,114.3 C 105,113.9 104.8,113.8 104.7,113.6 M 104.3,116.6 C 103.8,115.9 102.5,117 102.7,117.7 C 102.9,117.9 103.2,117.8 103.4,117.9 C 104.1,118.1 104.7,117.2 104.3,116.6 M 102.3,118.2 C 102.2,118.2 101.8,118.4 101.8,118.8 C 101.8,119.1 102.2,119.7 102.5,119.5 C 102.7,119.3 102.7,119 102.7,118.8 C 102.7,118.6 102.5,118.2 102.3,118.2 M 106.1,105.2 C 105.7,105.7 105.4,106.6 106.1,106.6 C 106.8,106.8 106.8,105.7 107,105.2 C 106.6,105.2 106.5,104.8 106.1,105.2 M 107.9,100.9 C 108.6,100.3 107.5,99.09 107,99.61 C 106.8,99.79 106.5,100 106.5,100.2 C 106.5,100.9 107.3,101 107.9,100.9 M 108.4,106.4 C 108.8,106.4 109,105.9 109.1,105.7 L 109,105.3 C 108.8,105.2 108.4,105 108.2,105.2 C 107.9,105.5 107.9,106.2 108.4,106.4 M 109.9,103.9 C 110.9,104.1 111.9,102.7 111.5,101.9 C 110.9,100.9 108.6,100.3 108.4,101.9 C 108.2,102.8 109,103.7 109.9,103.9 M 110.9,104.8 C 110.9,104.8 110.7,105 110.7,105.2 C 110.9,105.7 111.6,106.1 112,105.5 C 112,105.3 111.9,105.3 111.8,105.2 C 111.6,104.8 111.3,104.6 110.9,104.8 M 111.8,106.6 C 111.6,106.8 111.7,107 111.6,107.1 C 111.3,107.9 111.5,108.6 111.8,108.7 C 112.4,108.9 112.5,108.2 112.7,107.7 C 112.9,107.1 112.5,106.4 111.8,106.6 M 112.2,103.2 C 112.4,103.2 112.4,103.4 112.5,103.4 L 112.8,103.4 C 112.7,103.3 112.8,103.2 112.7,103.2 C 112.7,103.2 112.7,103.2 112.6,103.1 L 112.3,103.1 C 112.2,103.1 112.2,103.2 112.2,103.2 M 112.7,109.6 C 112.7,109.6 112.9,109.8 113.1,109.8 C 113.6,109.8 113.8,109.3 113.6,108.9 C 113.3,108.6 113.1,108.7 112.9,108.9 C 112.7,109.1 112.7,109.5 112.7,109.6 M 113.8,107.9 L 114.1,107.7 L 114.1,107 L 113.8,106.8 C 113.4,107.1 113.4,107.5 113.8,107.9 M 115.6,107.1 C 115,107 115,107.3 115,107.5 C 115,107.9 115.2,108.4 115.6,108.4 C 116.1,108.2 115.9,107.5 115.6,107.1 M 116.3,111.3 C 117.4,111.3 117.2,109.5 116.5,108.9 C 116.3,108.9 116.1,109.1 115.9,109.5 C 115.6,110.2 115.6,111.3 116.3,111.3 M 114.7,108.9 C 114,108.9 114,110.4 114.5,110.5 C 114.9,110.5 115.2,110.2 115.2,109.8 C 115.2,109.5 115.2,108.9 114.7,108.9 M 114.9,111.3 C 114.1,111.3 113.8,112 114,112.3 C 114.1,112.7 114.7,112.5 115,112.3 C 115.6,112 115.4,111.3 114.9,111.3 M 114,105.7 C 114.5,106.2 115.8,107 115.9,105.7 C 115.9,104.8 114.7,104.3 114,104.6 C 113.6,105 113.6,105.3 114,105.7 M 114.7,102.1 C 115,102.5 115.4,102.5 115.8,102.1 C 115.8,102.1 115.8,101.9 115.8,101.8 C 115.6,101.4 115.2,101.2 114.9,101.6 C 114.7,101.8 114.5,101.9 114.7,102.1 M 115.4,103.4 C 115.4,103.7 115.8,104.3 116.1,104.1 C 116.3,103.9 116.5,103.6 116.5,103.4 C 116.5,103.2 116.1,103 115.9,102.8 C 115.6,102.8 115.4,103 115.4,103.4 M 116.8,108 C 117.6,108.2 118.3,106.6 117.4,106.1 C 117,105.9 116.9,106.5 116.7,106.8 C 116.3,107.3 116.5,108 116.8,108 M 120.6,107.1 C 120.2,106.8 119.9,106.8 119.3,106.8 C 119,106.8 118.6,107 118.6,107.3 C 118.6,108 118.8,108.6 119.5,108.7 C 120.4,108.9 121,107.7 120.6,107.1 M 121.5,105.3 C 121.3,105 121.7,104.3 121,104.3 C 120.1,104.4 119.9,106.1 120.6,106.2 C 121.1,106.4 121.7,105.9 121.5,105.3 M 117.9,109.8 C 117.4,110.2 117.4,111.3 118.1,111.4 C 118.6,111.4 118.6,110.9 118.8,110.5 C 118.8,110.2 118.4,109.5 117.9,109.8 M 118.3,108.6 C 118.1,108.4 117.9,108.4 117.7,108.4 C 117.6,108.6 117.6,108.9 117.6,109.1 C 117.7,109.3 117.9,109.3 118.1,109.3 C 118.3,109.1 118.4,108.7 118.3,108.6 M 117.6,105 C 118.1,105 118.3,104.4 118.1,104.1 C 117.9,103.9 117.6,103.7 117.4,103.9 C 117.2,104.1 117.2,104.4 117.2,104.6 C 117.2,104.8 117.4,105 117.6,105 M 118.1,102.7 C 118.3,102.7 118.4,102.5 118.6,102.3 C 118.6,102.1 118.4,101.8 118.3,101.8 C 117.9,101.8 117.7,102.1 117.7,102.5 C 117.7,102.5 117.9,102.7 118.1,102.7 M 118.8,104.6 C 119.2,104.8 119.5,104.3 119.5,103.9 C 119.5,103.6 119.3,103.2 119,103.2 C 118.3,103.2 118.3,104.3 118.8,104.6 M 119.5,101.9 C 119.7,101.9 119.9,101.9 120.1,101.8 C 120.2,101.6 120.6,101.2 120.4,100.9 C 120.1,100.5 119.7,100.5 119.3,100.9 C 119,101.2 119.2,101.8 119.5,101.9 M 120.2,103.2 C 120.4,103.4 120.6,103.6 120.8,103.6 C 121.3,103.6 121.5,103 121.3,102.7 C 121.3,102.7 121.1,102.5 121,102.5 C 120.4,102.3 120.1,102.8 120.2,103.2 M 121.7,100.7 C 121.8,100.7 122,100.5 122.2,100.3 C 122.2,100.2 122,99.79 121.8,99.79 C 121.5,99.79 121.3,100.2 121.3,100.5 C 121.3,100.5 121.5,100.7 121.7,100.7 M 123.1,103.7 C 122.9,103.6 122.6,103.6 122.4,103.6 C 122.2,103.7 121.8,104.1 122,104.4 C 122.2,104.8 122.2,105.3 122.6,105.3 C 123.3,105.2 123.6,104.2 123.1,103.7 M 121.5,107.9 C 121.5,108 121.8,108.2 122,108 C 122.2,107.7 122.6,107.4 122.6,107 C 122.6,106.6 122.7,106.2 122.4,106.1 L 122,106.1 C 121.5,106.6 121.3,107.3 121.5,107.9 M 121.3,109.5 C 121.1,109.3 121,109.1 120.8,108.9 C 120.4,108.9 120.2,109.1 120.2,109.5 C 120.2,109.8 120.4,110 120.8,110 C 121.1,110 121.6,109.7 121.3,109.5 M 119.7,111.3 C 119.7,111.4 120.1,111.6 120.2,111.4 C 120.6,111.1 120.7,110.6 120.4,110.4 C 120.2,110.2 119.9,110 119.7,110.2 C 119.2,110.5 119.7,110.9 119.7,111.3 M 119,113 C 119,113 119.2,112.9 119.2,112.7 C 119.2,112.5 119.5,112.1 119.3,112 C 119.2,111.6 118.8,111.8 118.4,112 C 118.3,112.1 118.3,112.3 118.3,112.5 C 118.4,112.9 118.6,113.2 119,113 M 117.4,115 C 117.7,115.2 118.1,114.7 118.3,114.3 C 118.4,113.8 118.1,113.4 117.9,113.4 C 117.2,113.6 116.3,114.8 117.4,115 M 117,113 C 117.2,112.7 117,112.1 116.5,112.1 C 115.6,112.3 115.8,113.4 115.8,114.1 C 115.8,114.1 115.9,114.3 116.1,114.3 C 116.8,114.1 116.8,113.6 117,113 M 115.4,117.7 C 115.9,116.4 115.4,117.2 115.2,117 C 115,117.2 115,117.3 115,117.5 C 115,117.5 115.2,117.7 115.4,117.7 M 114,118.6 C 114.7,118.8 114.4,118 114.3,117.5 C 114.1,116.6 115.2,116.3 115.9,116.1 C 116.1,115.9 116.3,115.7 116.1,115.6 C 115.6,115 114.5,115 114.1,115.7 C 113.8,116.6 112.5,118.2 114,118.6 M 113.6,114.7 C 114.5,113.4 113.4,113.4 113.3,113.4 C 112.5,113.2 112.4,114.1 112.7,114.7 C 112.9,115 113.4,115 113.6,114.7 M 112.4,115.4 C 112,115.6 112.2,115.9 112.2,116.3 C 112.2,116.6 112,117 112.4,117.2 C 112.9,117.2 112.9,116.6 113.1,116.3 C 113.3,115.9 112.9,115.2 112.4,115.4 M 112.2,120 C 112.7,120.2 112.9,119.7 112.9,119.1 C 112.9,118.6 112.5,117.9 112.2,118.1 C 111.3,118.1 111.5,119.8 112.2,120 M 110.7,112.9 C 110.4,112.9 110,113 110,113.4 C 109.9,114.1 110.2,114.7 110.7,114.8 C 111.3,114.8 111.5,114.3 111.5,113.9 C 111.5,113.6 111.3,113 110.7,112.9 M 110.9,115.7 L 110.6,115.7 C 110.2,116.4 110.4,117.2 111.1,117.5 C 111.3,117.5 111.3,117 111.3,116.8 C 111.3,116.4 111.1,116.1 110.9,115.7 M 110.9,120.6 C 111.5,120.4 111.1,119.7 111.1,119.1 C 111.1,118.6 110.6,117.9 110,118.2 C 109.5,119 109.9,120.9 110.9,120.6 M 109.9,116.4 C 109.7,116.1 109.7,115.6 109.3,115.6 C 108.2,115.7 108.6,117.3 109.3,117.5 C 109.9,117.7 110.1,116.9 109.9,116.4 M 107.5,120.9 C 107.7,121.5 107.7,122.4 108.2,122.4 C 109.1,122.5 109.4,121.4 108.8,120.7 C 108.6,120.6 108.2,120.4 108.1,120.2 C 107.7,120.2 107.3,120.6 107.5,120.9 M 107.2,122.5 C 107.7,122.4 107.2,121.6 107,121.1 C 106.8,120.6 106.5,120.4 106.1,120.6 C 105.6,121.3 106.5,122.9 107.2,122.5 M 105.9,122.4 C 105.9,122.2 105.6,122 105.4,121.8 C 105,122.2 105.2,122.4 105.4,122.5 C 105.6,122.5 105.9,122.5 105.9,122.4 M 105.2,123.8 L 105.4,123.4 C 105.2,123.2 105,123.2 104.8,123.1 C 104.7,123.2 104.7,123.4 104.7,123.6 C 104.8,123.8 105,123.8 105.2,123.8 M 104.8,119.7 C 105,119.1 104.7,118.8 104.1,118.6 C 103.9,118.6 103.8,118.6 103.6,118.8 C 103.2,119.3 103.4,120.4 104.1,120.6 C 104.7,120.6 104.7,120 104.8,119.7 M 104.3,121.8 C 104.3,121.3 103.9,120.9 103.4,121.1 C 102.9,121.5 103.2,122.9 104.1,122.7 C 104.5,122.5 104.3,122.2 104.3,121.8 M 102.2,124.1 C 102.5,124.9 103.4,124.5 103.8,123.8 C 103.8,123.6 103.6,123.6 103.6,123.4 C 103.6,122.7 102.9,122.5 102.7,122.5 C 101.8,122.4 102,123.6 102.2,124.1 M 102,121.1 C 102.2,120.4 101.6,120 101.1,120 C 100.7,120 100.5,120.4 100.5,120.7 C 100.7,121.3 100.9,122.2 101.6,122 C 101.8,121.8 101.9,121.4 102,121.1 M 100.5,124.9 C 100.9,124.9 101.4,124.3 101.4,123.8 C 101.4,123.4 101.6,122.7 101.1,122.5 C 100.5,122.5 100.4,123.2 100.2,123.6 C 100.2,124 100.2,124.7 100.5,124.9 M 100.7,119.7 C 101.1,119.3 101.4,118.2 100.5,118.1 C 100.2,118.1 100.1,118.4 100,118.8 C 99.82,119.3 100.2,119.8 100.7,119.7 M 99.82,122.9 C 100.2,122.5 100,121.8 99.47,121.6 C 98.75,121.5 98.57,122.5 98.93,122.9 C 99.29,123.1 99.47,123.1 99.82,122.9 M 98.39,124.7 C 98.57,124.7 98.57,124.9 98.75,124.9 C 99.65,124.7 99.29,123.6 98.75,123.2 L 98.39,123.4 C 98.21,123.8 98.03,124.3 98.39,124.7 M 97.68,119.5 C 97.14,119.3 96.78,120 96.96,120.6 C 97.14,121.1 96.96,121.8 97.5,121.8 C 98.75,122 98.75,119.7 97.68,119.5 M 96.42,124.3 C 96.42,124.7 96.6,125 96.96,125 C 98.03,124.7 97.68,123.1 96.96,122.5 C 96.78,122.5 96.6,122.7 96.42,122.7 C 95.89,123.2 96.42,123.8 96.42,124.3 M 96.6,121.8 C 96.6,121.1 96.24,120.2 95.53,120.6 C 94.99,120.7 95.17,122 95.89,122.4 C 96.06,122.4 96.6,122.4 96.6,121.8 M 95.35,124.7 C 96.06,124.7 95.89,123.4 95.35,123.4 C 95.17,123.4 95.17,123.8 95.17,124 C 95.17,124.1 95.17,124.7 95.35,124.7 M 95.89,119.7 C 96.24,119.7 96.71,119.3 96.6,119 C 96.42,118.4 96.24,117.9 95.71,117.9 C 95.35,117.9 95.17,118.1 95.17,118.4 C 95.17,119 95.35,119.5 95.89,119.7 M 95.17,115 C 95.17,114.5 95.17,113.6 94.45,113.8 C 94.1,114.1 93.74,115.4 94.63,115.6 C 94.99,115.6 95.17,115.4 95.17,115 M 94.45,116.3 C 94.27,116.3 93.92,116.4 93.92,116.8 C 93.92,117.2 93.74,117.7 94.1,117.9 C 94.99,118.1 94.45,117.3 94.81,117.2 C 94.99,116.8 94.63,116.4 94.45,116.3 M 94.27,124.5 C 94.45,124.5 94.94,124.5 94.81,124.3 C 94.63,124.1 94.45,123.6 94.1,124.1 L 94.27,124.5 M 93.56,124 C 94.1,123.8 93.81,122.9 93.56,122.4 C 93.38,122 93.02,121.6 92.66,121.8 C 92.13,122.5 92.84,124.3 93.56,124 M 91.23,124.5 C 91.59,124.9 91.95,124.9 92.3,124.5 C 92.48,124.3 92.54,124.1 92.48,124 C 92.3,123.4 91.95,122.9 91.41,123.1 C 90.87,123.4 90.69,124 91.23,124.5 M 90.51,123.1 C 90.51,123.1 90.69,123.2 90.87,123.2 C 91.59,123.1 92.15,121.6 91.59,121.6 L 90.87,121.6 C 90.51,122 90.33,122.5 90.51,123.1 M 91.41,118.4 C 91.41,118.4 91.49,118.2 91.59,118.1 C 91.95,117.5 91.59,116.6 91.05,116.6 C 90.69,116.6 90.51,117 90.33,117.3 C 90.16,117.9 90.87,118.6 91.41,118.4 M 90.51,114.7 C 90.33,114.3 89.98,114.5 89.62,114.7 C 89.44,114.8 89.44,115 89.44,115.2 C 89.44,115.7 89.62,116.3 89.98,116.3 C 90.87,116.4 90.51,115.2 90.51,114.7 M 89.62,122.7 L 89.98,122.5 L 89.98,121.8 L 89.62,121.6 C 89.26,122 89.26,122.4 89.62,122.7 M 88.19,123.6 C 88.36,123.8 88.72,123.8 88.9,123.8 C 89.08,123.6 89.33,123.1 89.08,123.1 C 88.01,122.9 88.19,123.4 88.19,123.6 M 87.11,123.4 C 87.47,123.4 87.84,122.9 88.01,122.4 C 88.19,121.8 87.47,121.1 86.93,121.6 C 86.57,122.2 86.22,123.2 87.11,123.4 M 86.75,121.3 C 86.75,121.3 86.93,121.1 86.93,120.9 L 86.93,120.6 C 86.75,120.4 86.57,120.4 86.39,120.4 C 86.22,120.6 86.22,120.9 86.22,121.1 C 86.39,121.3 86.57,121.3 86.75,121.3 M 86.75,120 C 87.11,120.2 87.65,120.4 88.01,120 C 88.36,119.5 88.54,119 88.19,118.4 C 87.83,117.9 87.47,118.4 87.11,118.4 C 86.75,118.4 86.57,117.9 86.22,118.1 C 85.68,118.6 86.04,119.7 86.75,120 M 85.86,113.6 C 85.5,113.4 85.14,113 84.78,113.2 C 84.6,113.4 84.6,113.6 84.6,113.8 C 84.6,114.3 84.96,114.8 85.5,114.8 C 86.22,114.8 86.22,113.9 85.86,113.6 M 85.14,122 C 85.32,122 85.68,121.8 85.68,121.6 C 85.68,121.5 85.32,121.3 85.14,121.1 C 84.96,121.5 84.78,121.8 85.14,122 M 85.32,117 C 84.78,116.6 84.64,117.7 84.43,118.2 C 84.07,119.1 84.6,119.5 84.78,120 C 85.68,119.3 86.04,117.7 85.32,117 M 84.25,122 C 84.6,121.8 84.43,121.5 84.43,121.1 C 84.43,120.6 84.25,120 83.71,120.2 C 83.35,120.4 83.53,120.9 83.35,121.3 C 83.35,121.6 83.71,122.2 84.25,122 M 83.35,118.1 L 83.71,118.1 C 84.07,117.7 83.89,117.3 83.89,117 L 83.53,116.8 C 83.17,117.3 82.99,117.7 83.35,118.1 M 82.64,111.3 C 81.2,110.7 81.92,111.6 81.74,111.8 C 81.74,112.1 81.92,112.5 82.28,112.7 C 83.35,112.9 82.97,111.4 82.64,111.3 M 82.81,117 C 82.64,116.6 82.64,116.1 82.28,115.9 C 81.56,115.9 81.56,116.6 81.38,117.2 C 81.2,117.7 81.74,118.8 82.46,118.4 C 82.81,118.1 83.07,117.5 82.81,117 M 82.28,121.3 C 82.64,121.3 82.81,120.7 82.81,120.4 C 82.81,120 82.81,119.5 82.46,119.5 C 81.74,119.5 81.74,121.1 82.28,121.3 M 81.02,120.6 C 81.2,120.6 81.23,120.5 81.38,120.4 C 81.92,120 81.92,118.8 81.2,119 C 80.49,119 80.31,120.2 81.02,120.6 M 79.41,119.3 C 79.59,119.7 80.05,119.6 80.13,119.3 C 80.31,118.8 80.84,117.9 80.13,117.9 C 79.59,117.7 79.23,118.8 79.41,119.3 M 79.23,114.7 C 79.05,114.3 79.05,113.6 78.7,113.6 C 77.98,113.4 77.26,114.1 77.26,114.8 C 77.08,115.7 78.16,116.4 78.87,116.3 C 79.23,116.3 79.56,115.3 79.23,114.7 M 78.7,118.6 C 78.87,118.6 79.05,118.2 79.23,118.1 C 79.23,117.9 79.23,117.5 79.05,117.5 C 78.34,117.3 78.13,118.6 78.7,118.6 M 77.44,117.7 C 77.8,117.7 77.98,117.3 77.98,117 L 77.98,116.4 C 77.98,116.4 77.8,116.3 77.62,116.3 C 76.73,116.3 76.73,117.5 77.44,117.7 M 76.55,113.8 C 76.73,113.9 77.08,113.9 77.26,113.9 C 77.44,113.8 77.44,113.4 77.44,113.2 C 77.44,113.2 77.26,113 77.08,113 C 76.73,113 76.26,113.5 76.55,113.8 M 76.19,112.9 C 76.19,112.9 76.49,112.6 76.37,112.5 C 76.19,112.3 76.01,112.1 75.83,112 C 75.83,112.1 75.65,112.1 75.65,112.3 C 75.65,112.7 75.83,112.9 76.19,112.9 M 75.65,110.4 L 76.37,110.4 C 76.91,109.8 76.55,108.7 76.01,108.7 C 75.11,108.6 74.89,110.4 75.65,110.4 M 75.11,107.1 C 75.29,107.1 75.65,107 75.65,106.8 C 75.65,106.6 75.29,106.4 75.11,106.2 C 74.94,106.6 74.76,107 75.11,107.1 M 74.58,107.9 C 73.86,107.5 73.5,108.4 73.5,108.9 C 73.5,109.3 73.86,109.8 74.04,109.8 C 74.76,109.6 75.47,108.4 74.58,107.9 M 74.22,110.5 C 74.4,110.7 74.58,110.9 74.76,111.1 C 74.94,110.9 74.94,110.5 74.94,110.4 C 74.76,110.2 74.58,110.2 74.4,110.2 C 74.4,110.2 74.09,110.4 74.22,110.5 M 74.04,113.8 C 74.4,113.8 74.76,113.2 74.94,112.9 C 75.11,112.1 74.4,111.8 73.86,111.8 C 73.14,111.8 73.14,112.1 73.14,112.5 C 73.32,113 73.5,113.6 74.04,113.8 M 72.25,111.1 C 72.61,111.1 72.79,110.7 72.79,110.4 C 72.79,110.2 72.61,109.8 72.43,109.8 C 71.71,109.8 71.71,110.9 72.25,111.1 M 72.07,109.1 C 72.43,108.6 73.32,108.4 73.5,107.7 C 73.5,107.5 73.32,107.5 73.32,107.3 C 72.79,107.9 71.71,107.5 71.53,108.4 C 71.53,108.7 71.89,109.1 72.07,109.1 M 70.64,107.5 C 70.82,107.5 71,107.5 71.18,107.3 C 71.71,106.8 71.71,105.3 70.82,105.5 C 70.1,105.5 70.1,106.2 70.1,106.8 C 70.1,107.1 70.28,107.5 70.64,107.5 M 70.28,100 C 69.56,100.5 69.92,101.8 70.82,101.9 C 71.53,101.9 71.4,101 71.18,100.5 C 71,100.2 70.64,99.79 70.28,100 M 70.64,98.36 C 70.28,97.82 69.56,97.11 68.85,97.29 C 68.85,97.29 68.67,97.46 68.67,97.64 C 69.03,98.36 69.56,98.9 70.28,99.08 C 70.82,99.26 70.86,98.69 70.64,98.36 M 69.74,104.6 C 70.28,105.2 70.46,105 70.82,104.8 C 71.18,104.6 71.35,104.3 71.18,103.9 C 70.82,103.6 70.28,103.4 69.74,103.7 C 69.56,104.1 69.46,104.3 69.74,104.6 M 69.74,103.2 C 70.1,103.4 70.46,103 70.46,102.7 C 70.46,102.1 69.74,101.8 69.38,101.6 C 69.03,101.6 68.85,101.9 68.85,102.3 C 68.85,103 69.38,103 69.74,103.2 M 69.38,100.9 C 69.56,100.7 69.56,100.5 69.56,100.3 C 69.56,99.79 69.21,99.61 68.85,99.44 C 68.67,99.44 68.31,99.61 68.31,100 C 68.49,100.5 68.85,101 69.38,100.9 M 99.82,68.46 C 90.69,67.38 81.56,70.79 75.29,77.95 C 71,82.96 68.49,88.87 68.31,95.32 C 68.31,96.57 69.92,97.11 71,97.29 C 73.14,97.64 74.76,98.9 76.55,99.44 C 77.08,99.61 77.98,99.08 78.52,99.61 C 79.59,100.7 80.31,101.9 81.92,101.8 C 82.99,101.6 83.54,100.7 84.43,100.3 C 86.04,99.61 87.83,99.44 89.26,98.18 C 89.8,97.46 90.16,96.57 89.98,95.67 C 89.44,94.06 89.8,91.74 88.01,91.02 L 87.11,91.02 C 85.68,90.3 83.89,89.95 82.28,90.3 C 81.74,90.3 80.84,90.66 80.67,89.77 C 80.67,89.41 81.2,89.23 81.56,89.23 C 83.71,89.23 85.68,89.05 87.83,89.77 C 88.72,89.95 89.44,89.59 90.33,89.59 C 91.95,89.41 93.74,88.87 95.17,89.95 C 94.63,91.02 93.2,89.59 92.48,90.48 C 91.77,91.74 91.59,93.88 93.02,94.78 C 93.38,94.96 93.74,94.6 93.74,94.24 C 93.56,93.53 93.74,92.99 93.74,92.27 C 93.74,91.92 93.02,91.56 93.2,91.2 C 93.74,90.66 94.99,91.02 94.99,91.56 C 95.35,92.81 96.06,94.06 95.53,95.32 C 95.53,95.5 94.63,95.5 94.81,96.03 C 95.35,96.93 95.53,97.64 94.81,98.54 C 94.45,99.08 95.53,99.26 95.71,99.79 C 95.89,101 94.81,102.5 95.53,103.4 C 96.06,104.1 95.53,104.8 95.89,105.3 C 96.42,105.9 97.14,105.3 97.14,104.8 C 97.14,103.7 97.32,102.5 97.14,101.6 C 96.78,100.2 98.03,99.61 98.75,98.9 C 99.65,100.2 98.03,102.3 99.29,103.2 C 99.82,103.7 99.82,102.1 100,101.6 C 100,101 100.7,100.7 101.1,100.5 C 101.6,100.2 102.7,101 102.9,100 C 102.9,98.54 101.1,98 101.1,96.75 C 101.3,96.03 101.1,95.14 101.3,94.42 C 101.6,93.53 102,92.27 101.3,91.56 C 100.4,90.66 99.65,92.45 99.82,93.17 C 100.2,94.78 100,96.75 98.57,97.82 C 98.21,98 97.68,97.82 97.68,97.29 C 97.68,95.85 97.68,94.24 97.5,92.81 C 97.5,91.92 96.78,91.02 96.96,90.12 C 97.14,89.59 98.03,90.3 98.57,90.12 C 101.4,89.23 104.5,90.12 107.5,89.95 C 109.9,89.59 112.4,89.23 114.7,89.59 C 114.9,89.59 114.3,90.3 113.8,90.48 C 112.5,90.84 111.1,90.3 109.9,90.48 C 109,90.66 108.4,91.56 107.5,91.56 C 106.6,91.38 105.7,91.38 104.8,91.38 C 103.8,91.2 102.7,92.09 102.5,93.17 C 102.3,94.6 102.2,96.03 102.9,97.46 C 103.6,98.36 104.5,98.54 105.6,98.9 C 108.6,99.44 111.3,100.2 114.1,100.9 C 114.7,101 115.6,100.9 116.3,100.9 C 116.8,101 117.2,101.4 117.7,101.2 C 119.7,100 121.5,99.08 123.1,97.46 C 123.5,96.93 124.7,97.11 124.5,96.39 C 124.4,91.02 123.3,85.83 120.1,80.99 C 115.2,73.83 108.1,69.35 99.82,68.46"
   class="ps01 ps11"
   id="path215"
   style="fill:#0b1f39;stroke-width:0.2;stroke-linecap:butt;stroke-linejoin:miter;stroke-miterlimit:4" />
</g>
</g>
</g>
<g
   id="q17"
   class="">
<clipPath
   id="clp33"
   clip-rule="nonzero">
<path
   d="M -195.8,-322.1 L 399.5,-322.1 L 399.5,519.8 L -195.8,519.8 L -195.8,-322.1 z"
   id="path219" />
</clipPath>
<g
   clip-path="url(#clp33)"
   id="g221">
<clipPath
   id="clp34"
   clip-rule="nonzero">
<path
   d="M -237.3,-669.4 L 1031.7,-669.4 L 1031.7,554.6 L -237.3,554.6 L -237.3,-669.4 z"
   id="path224" />
</clipPath>
<g
   clip-path="url(#clp34)"
   id="g226">
<path
   d="M 96.54,137.6 C 73.98,137.6 55.63,119.2 55.63,96.69 C 55.63,74.13 73.98,55.78 96.54,55.78 C 119.1,55.78 137.5,74.13 137.5,96.69 C 137.5,119.2 119.1,137.6 96.54,137.6 M 96.54,56.23 C 74.23,56.23 56.08,74.38 56.08,96.69 C 56.08,119 74.23,137.2 96.54,137.2 C 118.9,137.2 137,119 137,96.69 C 137,74.38 118.9,56.23 96.54,56.23"
   class="ps01 ps11"
   id="path228"
   style="fill:#0b1f39;stroke-width:0.2;stroke-linecap:butt;stroke-linejoin:miter;stroke-miterlimit:4" />
</g>
</g>
</g>
<g
   id="q18"
   class="">
<clipPath
   id="clp35"
   clip-rule="nonzero">
<path
   d="M -195.8,-322.1 L 399.5,-322.1 L 399.5,519.8 L -195.8,519.8 L -195.8,-322.1 z"
   id="path232" />
</clipPath>
<g
   clip-path="url(#clp35)"
   id="g234">
<clipPath
   id="clp36"
   clip-rule="nonzero">
<path
   d="M -237.3,-669.4 L 1031.7,-669.4 L 1031.7,554.6 L -237.3,554.6 L -237.3,-669.4 z"
   id="path237" />
</clipPath>
<g
   clip-path="url(#clp36)"
   id="g239">
<path
   d="M 67.83,78.84 C 67.08,78.55 66.79,78.62 66.37,79.39 L 65.63,80.76 L 67.72,81.9 C 68.01,82.05 68.08,82.01 68.21,81.77 L 68.91,80.49 C 69.48,79.44 69.46,79.11 68.7,78.51 L 68.83,78.28 L 70.16,79.04 L 67.43,84.05 L 67.25,83.95 C 67.53,83.33 67.6,83.08 66.85,82.67 L 62.76,80.45 C 61.99,80.03 61.79,80.06 61.36,80.75 L 61.19,80.65 L 62.62,78.01 L 62.8,78.11 C 62.47,78.79 62.48,79.04 63.18,79.43 L 65.25,80.55 L 65.98,79.17 C 66.35,78.46 66.38,78.18 65.65,77.65 L 65.76,77.43 L 67.95,78.62 L 67.83,78.84"
   class="ps01 ps11"
   id="path241"
   style="fill:#0b1f39;stroke-width:0.2;stroke-linecap:butt;stroke-linejoin:miter;stroke-miterlimit:4" />
</g>
</g>
</g>
<g
   id="q19"
   class="">
<clipPath
   id="clp37"
   clip-rule="nonzero">
<path
   d="M -195.8,-322.1 L 399.5,-322.1 L 399.5,519.8 L -195.8,519.8 L -195.8,-322.1 z"
   id="path245" />
</clipPath>
<g
   clip-path="url(#clp37)"
   id="g247">
<clipPath
   id="clp38"
   clip-rule="nonzero">
<path
   d="M -237.3,-669.4 L 1031.7,-669.4 L 1031.7,554.6 L -237.3,554.6 L -237.3,-669.4 z"
   id="path250" />
</clipPath>
<g
   clip-path="url(#clp38)"
   id="g252">
<path
   d="M 72.89,75.94 C 71.72,77.27 69.63,77.76 67.77,76.13 C 66.06,74.62 66.03,72.51 67.32,71.05 C 68.6,69.59 70.69,69.34 72.41,70.85 C 74.27,72.48 74.05,74.62 72.89,75.94 M 71.61,71.78 C 69.83,70.22 68.39,70.41 67.61,71.31 C 66.82,72.21 66.81,73.66 68.59,75.22 C 70.43,76.83 71.87,76.51 72.6,75.69 C 73.32,74.87 73.45,73.39 71.61,71.78"
   class="ps01 ps11"
   id="path254"
   style="fill:#0b1f39;stroke-width:0.2;stroke-linecap:butt;stroke-linejoin:miter;stroke-miterlimit:4" />
</g>
</g>
</g>
<g
   id="q20"
   class="">
<clipPath
   id="clp39"
   clip-rule="nonzero">
<path
   d="M -195.8,-322.1 L 399.5,-322.1 L 399.5,519.8 L -195.8,519.8 L -195.8,-322.1 z"
   id="path258" />
</clipPath>
<g
   clip-path="url(#clp39)"
   id="g260">
<clipPath
   id="clp40"
   clip-rule="nonzero">
<path
   d="M -237.3,-669.4 L 1031.7,-669.4 L 1031.7,554.6 L -237.3,554.6 L -237.3,-669.4 z"
   id="path263" />
</clipPath>
<g
   clip-path="url(#clp40)"
   id="g265">
<path
   d="M 81.5,68.42 L 81.62,68.59 L 79.57,70 L 79.45,69.84 C 80.05,69.37 80.15,69.08 79.5,68.13 L 77.86,65.74 C 77.36,65.03 77.07,64.79 76.82,64.68 C 76.28,64.44 75.58,64.5 74.89,64.98 C 73.35,66.04 74.2,67.27 74.59,67.84 L 76.54,70.67 C 76.97,71.29 77.16,71.34 77.89,70.91 L 78.01,71.08 L 75.51,72.8 L 75.39,72.63 C 76.03,72.13 76.09,71.94 75.64,71.29 L 73.74,68.53 C 73.37,68 72.18,66.27 74.37,64.76 C 76.67,63.18 77.81,64.85 78.3,65.55 L 79.89,67.86 C 80.53,68.79 80.77,68.82 81.5,68.42"
   class="ps01 ps11"
   id="path267"
   style="fill:#0b1f39;stroke-width:0.2;stroke-linecap:butt;stroke-linejoin:miter;stroke-miterlimit:4" />
</g>
</g>
</g>
<g
   id="q21"
   class="">
<clipPath
   id="clp41"
   clip-rule="nonzero">
<path
   d="M -195.8,-322.1 L 399.5,-322.1 L 399.5,519.8 L -195.8,519.8 L -195.8,-322.1 z"
   id="path271" />
</clipPath>
<g
   clip-path="url(#clp41)"
   id="g273">
<clipPath
   id="clp42"
   clip-rule="nonzero">
<path
   d="M -237.3,-669.4 L 1031.7,-669.4 L 1031.7,554.6 L -237.3,554.6 L -237.3,-669.4 z"
   id="path276" />
</clipPath>
<g
   clip-path="url(#clp42)"
   id="g278">
<path
   d="M 88.94,65.79 L 86.58,66.67 L 86.51,66.48 C 87.17,66.17 87.42,65.99 86.99,64.83 L 85.73,61.47 L 85.71,61.48 L 83.67,67.76 L 81.95,68.41 L 81.88,68.21 C 82.28,68.07 82.43,67.96 82.65,67.3 L 80.98,62.86 C 80.58,61.77 80.31,61.7 79.53,61.94 L 79.45,61.75 L 81.82,60.86 L 81.89,61.05 C 81.17,61.36 81.04,61.66 81.43,62.7 L 82.9,66.62 L 82.92,66.61 L 85.28,59.44 L 85.45,59.37 L 87.43,64.67 C 87.87,65.84 88.21,65.76 88.87,65.59 L 88.94,65.79"
   class="ps01 ps11"
   id="path280"
   style="fill:#0b1f39;stroke-width:0.2;stroke-linecap:butt;stroke-linejoin:miter;stroke-miterlimit:4" />
</g>
</g>
</g>
<g
   id="q22"
   class="">
<clipPath
   id="clp43"
   clip-rule="nonzero">
<path
   d="M -195.8,-322.1 L 399.5,-322.1 L 399.5,519.8 L -195.8,519.8 L -195.8,-322.1 z"
   id="path284" />
</clipPath>
<g
   clip-path="url(#clp43)"
   id="g286">
<clipPath
   id="clp44"
   clip-rule="nonzero">
<path
   d="M -237.3,-669.4 L 1031.7,-669.4 L 1031.7,554.6 L -237.3,554.6 L -237.3,-669.4 z"
   id="path289" />
</clipPath>
<g
   clip-path="url(#clp44)"
   id="g291">
<path
   d="M 92.21,65.36 L 89.33,65.69 L 89.31,65.49 C 90.12,65.33 90.23,65.21 90.14,64.42 L 89.6,59.68 C 89.52,58.93 89.37,58.78 88.55,58.83 L 88.53,58.62 L 91.56,58.28 C 94.83,57.91 95.91,59.91 96.07,61.33 C 96.34,63.72 94.78,65.07 92.21,65.36 M 94.91,61.45 C 94.55,58.34 91.93,58.64 91.24,58.72 C 90.73,58.78 90.61,58.86 90.65,59.23 L 91.27,64.65 C 91.29,64.86 91.31,65.07 91.82,65.01 C 93.16,64.86 93.73,64.5 94.19,63.98 C 94.85,63.24 95.01,62.35 94.91,61.45"
   class="ps01 ps11"
   id="path293"
   style="fill:#0b1f39;stroke-width:0.2;stroke-linecap:butt;stroke-linejoin:miter;stroke-miterlimit:4" />
</g>
</g>
</g>
<g
   id="q23"
   class="">
<clipPath
   id="clp45"
   clip-rule="nonzero">
<path
   d="M -195.8,-322.1 L 399.5,-322.1 L 399.5,519.8 L -195.8,519.8 L -195.8,-322.1 z"
   id="path297" />
</clipPath>
<g
   clip-path="url(#clp45)"
   id="g299">
<clipPath
   id="clp46"
   clip-rule="nonzero">
<path
   d="M -237.3,-669.4 L 1031.7,-669.4 L 1031.7,554.6 L -237.3,554.6 L -237.3,-669.4 z"
   id="path302" />
</clipPath>
<g
   clip-path="url(#clp46)"
   id="g304">
<path
   d="M 101.5,58.69 C 99.89,58.5 99.89,58.51 99.84,58.95 L 99.52,61.6 L 101.2,61.77 C 102.1,61.86 102.2,61.73 102.5,60.89 L 102.7,60.92 L 102.4,63.4 L 102.2,63.37 C 102.1,62.6 102.1,62.33 101.1,62.22 L 99.47,62.02 L 99.19,64.39 C 99.15,64.75 99.28,64.77 99.5,64.8 L 100.9,64.97 C 102.1,65.11 102.4,64.97 102.7,64.04 L 103,64.07 L 102.8,65.59 L 97.09,64.92 L 97.11,64.72 C 97.79,64.74 98.05,64.71 98.15,63.87 L 98.71,59.13 C 98.81,58.31 98.57,58.18 97.9,58.06 L 97.92,57.86 L 103.7,58.54 L 103.9,60.4 L 103.6,60.37 C 103.3,59.23 102.8,58.85 101.5,58.69"
   class="ps01 ps11"
   id="path306"
   style="fill:#0b1f39;stroke-width:0.2;stroke-linecap:butt;stroke-linejoin:miter;stroke-miterlimit:4" />
</g>
</g>
</g>
<g
   id="q24"
   class="">
<clipPath
   id="clp47"
   clip-rule="nonzero">
<path
   d="M -195.8,-322.1 L 399.5,-322.1 L 399.5,519.8 L -195.8,519.8 L -195.8,-322.1 z"
   id="path310" />
</clipPath>
<g
   clip-path="url(#clp47)"
   id="g312">
<clipPath
   id="clp48"
   clip-rule="nonzero">
<path
   d="M -237.3,-669.4 L 1031.7,-669.4 L 1031.7,554.6 L -237.3,554.6 L -237.3,-669.4 z"
   id="path315" />
</clipPath>
<g
   clip-path="url(#clp48)"
   id="g317">
<path
   d="M 106.5,66.68 L 103.8,65.7 L 103.8,65.51 C 104.6,65.73 104.8,65.67 105,64.92 L 106.7,60.43 C 106.9,59.72 106.8,59.52 106.1,59.2 L 106.2,59.01 L 109,60.04 C 112.1,61.15 112.2,63.42 111.7,64.76 C 110.9,67.03 108.9,67.55 106.5,66.68 M 108.6,60.29 C 108.1,60.12 107.9,60.14 107.8,60.48 L 106,65.62 C 105.9,65.82 105.8,66.02 106.3,66.19 C 107.6,66.64 108.2,66.57 108.9,66.31 C 109.8,65.94 110.3,65.21 110.6,64.36 C 111.7,61.42 109.2,60.52 108.6,60.29"
   class="ps01 ps11"
   id="path319"
   style="fill:#0b1f39;stroke-width:0.2;stroke-linecap:butt;stroke-linejoin:miter;stroke-miterlimit:4" />
</g>
</g>
</g>
<g
   id="q25"
   class="">
<clipPath
   id="clp49"
   clip-rule="nonzero">
<path
   d="M -195.8,-322.1 L 399.5,-322.1 L 399.5,519.8 L -195.8,519.8 L -195.8,-322.1 z"
   id="path323" />
</clipPath>
<g
   clip-path="url(#clp49)"
   id="g325">
<clipPath
   id="clp50"
   clip-rule="nonzero">
<path
   d="M -237.3,-669.4 L 1031.7,-669.4 L 1031.7,554.6 L -237.3,554.6 L -237.3,-669.4 z"
   id="path328" />
</clipPath>
<g
   clip-path="url(#clp50)"
   id="g330">
<path
   d="M 120.5,66.74 C 120.1,66.79 119.9,67.09 119.6,67.5 L 116.5,71.59 L 116.2,71.39 C 116.2,70.63 115.7,69.9 115,69.45 L 115.2,69.2 C 115.9,69.72 116.2,69.91 116.5,69.82 C 116.7,69.71 117.1,69.28 117.2,69.05 L 118.8,66.93 C 119.1,66.53 119.4,66.15 119.3,65.75 C 119.2,65.46 118.8,65.13 118.5,64.93 L 118.7,64.68 L 121.8,66.99 L 121.6,67.24 C 121.3,67.01 120.9,66.7 120.5,66.74"
   class="ps01 ps11"
   id="path332"
   style="fill:#0b1f39;stroke-width:0.2;stroke-linecap:butt;stroke-linejoin:miter;stroke-miterlimit:4" />
</g>
</g>
</g>
<g
   id="q26"
   class="">
<clipPath
   id="clp51"
   clip-rule="nonzero">
<path
   d="M -195.8,-322.1 L 399.5,-322.1 L 399.5,519.8 L -195.8,519.8 L -195.8,-322.1 z"
   id="path336" />
</clipPath>
<g
   clip-path="url(#clp51)"
   id="g338">
<clipPath
   id="clp52"
   clip-rule="nonzero">
<path
   d="M -237.3,-669.4 L 1031.7,-669.4 L 1031.7,554.6 L -237.3,554.6 L -237.3,-669.4 z"
   id="path341" />
</clipPath>
<g
   clip-path="url(#clp52)"
   id="g343">
<path
   d="M 122.5,73.05 C 122.7,73.77 122.8,74.56 122.3,75.08 C 121.7,75.69 120.5,75.36 119.8,74.68 C 119,73.81 118.9,72.6 119.7,71.85 C 120.3,71.33 121.1,71.44 121.8,71.76 C 121.4,70.97 121.2,69.87 121.8,69.27 C 122.6,68.51 123.9,68.87 124.7,69.71 C 125.2,70.19 125.5,70.82 125.5,71.43 C 125.5,71.96 125.3,72.57 125,72.91 C 124.3,73.52 123.3,73.41 122.5,73.05 M 120,72.63 C 119.5,73.09 119.5,73.86 120,74.41 C 120.6,74.98 121.3,74.95 121.8,74.47 C 122.2,74.07 122.3,73.5 122.1,72.88 C 121.5,72.57 120.5,72.15 120,72.63 M 124.6,70.05 C 124,69.37 123,69.42 122.5,69.97 C 122,70.45 121.9,71.19 122.1,71.9 C 123,72.18 123.9,72.8 124.6,72.13 C 125.2,71.61 125.2,70.69 124.6,70.05"
   class="ps01 ps11"
   id="path345"
   style="fill:#0b1f39;stroke-width:0.2;stroke-linecap:butt;stroke-linejoin:miter;stroke-miterlimit:4" />
</g>
</g>
</g>
<g
   id="q27"
   class="">
<clipPath
   id="clp53"
   clip-rule="nonzero">
<path
   d="M -195.8,-322.1 L 399.5,-322.1 L 399.5,519.8 L -195.8,519.8 L -195.8,-322.1 z"
   id="path349" />
</clipPath>
<g
   clip-path="url(#clp53)"
   id="g351">
<clipPath
   id="clp54"
   clip-rule="nonzero">
<path
   d="M -237.3,-669.4 L 1031.7,-669.4 L 1031.7,554.6 L -237.3,554.6 L -237.3,-669.4 z"
   id="path354" />
</clipPath>
<g
   clip-path="url(#clp54)"
   id="g356">
<path
   d="M 126.8,78.62 C 125.7,79.39 123.9,79.9 122.8,78.37 C 122,77.23 122.5,75.74 123.5,75.1 C 124.3,74.56 125.5,74.57 126.2,75.54 C 126.6,76.22 126.6,76.92 126.4,77.63 C 127.2,77.21 128.9,75.4 128.2,74.38 C 127.9,73.99 127.5,74.09 127.2,74.23 C 126.9,74.33 126.7,74.36 126.5,74.08 C 126.3,73.79 126.4,73.47 126.6,73.29 C 127.1,72.94 128,73.56 128.3,74.04 C 128.9,74.88 128.8,75.93 128.4,76.72 C 128.1,77.48 127.4,78.16 126.8,78.62 M 126,76.12 C 125.4,75.31 124.5,75.61 123.9,76.01 C 123.3,76.45 122.5,77.3 123.1,78.22 C 123.9,79.32 125.2,78.39 126,77.95 C 126.1,77.43 126.4,76.67 126,76.12"
   class="ps01 ps11"
   id="path358"
   style="fill:#0b1f39;stroke-width:0.2;stroke-linecap:butt;stroke-linejoin:miter;stroke-miterlimit:4" />
</g>
</g>
</g>
<g
   id="q28"
   class="">
<clipPath
   id="clp55"
   clip-rule="nonzero">
<path
   d="M -195.8,-322.1 L 399.5,-322.1 L 399.5,519.8 L -195.8,519.8 L -195.8,-322.1 z"
   id="path362" />
</clipPath>
<g
   clip-path="url(#clp55)"
   id="g364">
<clipPath
   id="clp56"
   clip-rule="nonzero">
<path
   d="M -237.3,-669.4 L 1031.7,-669.4 L 1031.7,554.6 L -237.3,554.6 L -237.3,-669.4 z"
   id="path367" />
</clipPath>
<g
   clip-path="url(#clp56)"
   id="g369">
<path
   d="M 130.8,80.2 C 129.1,81.04 127.9,82.95 127,84.65 L 126.5,84.82 L 124.7,81.06 L 126.1,79.87 L 126.3,80.12 C 126.1,80.38 125.8,80.72 125.7,81.12 C 125.6,81.64 125.9,82.07 126.1,82.54 L 126.8,84.08 C 127.2,83.39 128.1,81.89 128.6,81.22 C 129.2,80.24 130,79.36 130.7,79.03 C 131,78.89 131.3,78.89 131.4,79.28 C 131.7,79.83 131.2,80.04 130.8,80.2"
   class="ps01 ps11"
   id="path371"
   style="fill:#0b1f39;stroke-width:0.2;stroke-linecap:butt;stroke-linejoin:miter;stroke-miterlimit:4" />
</g>
</g>
</g>
<g
   id="q29"
   class="">
<clipPath
   id="clp57"
   clip-rule="nonzero">
<path
   d="M -195.8,-322.1 L 399.5,-322.1 L 399.5,519.8 L -195.8,519.8 L -195.8,-322.1 z"
   id="path375" />
</clipPath>
<g
   clip-path="url(#clp57)"
   id="g377">
<clipPath
   id="clp58"
   clip-rule="nonzero">
<path
   d="M -237.3,-669.4 L 1031.7,-669.4 L 1031.7,554.6 L -237.3,554.6 L -237.3,-669.4 z"
   id="path380" />
</clipPath>
<g
   clip-path="url(#clp58)"
   id="g382">
<path
   d="M 96.54,139.8 C 72.74,139.8 53.38,120.5 53.38,96.69 C 53.38,72.89 72.74,53.53 96.54,53.53 C 120.3,53.53 139.7,72.89 139.7,96.69 C 139.7,120.5 120.3,139.8 96.54,139.8 M 96.54,54.43 C 73.24,54.43 54.28,73.39 54.28,96.69 C 54.28,120 73.24,139 96.54,139 C 119.8,139 138.8,120 138.8,96.69 C 138.8,73.39 119.8,54.43 96.54,54.43"
   class="ps01 ps11"
   id="path384"
   style="fill:#0b1f39;stroke-width:0.2;stroke-linecap:butt;stroke-linejoin:miter;stroke-miterlimit:4" />
</g>
</g>
</g>
<g
   id="q30"
   class="">
<clipPath
   id="clp59"
   clip-rule="nonzero">
<path
   d="M -195.8,-322.1 L 399.5,-322.1 L 399.5,519.8 L -195.8,519.8 L -195.8,-322.1 z"
   id="path388" />
</clipPath>
<g
   clip-path="url(#clp59)"
   id="g390">
<clipPath
   id="clp60"
   clip-rule="nonzero">
<path
   d="M -237.3,-669.4 L 1031.7,-669.4 L 1031.7,554.6 L -237.3,554.6 L -237.3,-669.4 z"
   id="path393" />
</clipPath>
<g
   clip-path="url(#clp60)"
   id="g395">
<path
   d="M 79.05,89.41 C 79.41,89.23 79.77,89.41 79.95,89.77 C 80.13,90.48 78.87,90.84 78.52,90.12 C 78.34,89.77 78.7,89.59 79.05,89.41"
   class="ps01 ps11"
   id="path397"
   style="fill:#0b1f39;stroke-width:0.2;stroke-linecap:butt;stroke-linejoin:miter;stroke-miterlimit:4" />
</g>
</g>
</g>
<g
   id="q31"
   class="">
<clipPath
   id="clp61"
   clip-rule="nonzero">
<path
   d="M -195.8,-322.1 L 399.5,-322.1 L 399.5,519.8 L -195.8,519.8 L -195.8,-322.1 z"
   id="path401" />
</clipPath>
<g
   clip-path="url(#clp61)"
   id="g403">
<clipPath
   id="clp62"
   clip-rule="nonzero">
<path
   d="M -237.3,-669.4 L 1031.7,-669.4 L 1031.7,554.6 L -237.3,554.6 L -237.3,-669.4 z"
   id="path406" />
</clipPath>
<g
   clip-path="url(#clp62)"
   id="g408">
<path
   d="M 92.23,82.42 C 92,82.42 91.8,82.23 91.8,81.99 L 91.8,78.44 C 91.8,78.2 92,78.01 92.23,78.01 L 94.16,78.01 C 94.39,78.01 94.59,78.2 94.59,78.44 C 94.59,78.68 94.39,78.87 94.16,78.87 L 92.66,78.87 L 92.66,79.34 L 94.12,79.34 C 94.35,79.34 94.55,79.53 94.55,79.77 C 94.55,80.01 94.35,80.2 94.12,80.2 L 92.66,80.2 L 92.66,80.85 L 94.12,80.85 C 94.35,80.85 94.55,81.04 94.55,81.28 C 94.55,81.52 94.35,81.71 94.12,81.71 L 92.66,81.71 L 92.66,81.99 C 92.66,82.23 92.47,82.42 92.23,82.42"
   class="ps01 ps11"
   id="path410"
   style="fill:#0b1f39;stroke-width:0.2;stroke-linecap:butt;stroke-linejoin:miter;stroke-miterlimit:4" />
</g>
</g>
</g>
<g
   id="q32"
   class="">
<clipPath
   id="clp63"
   clip-rule="nonzero">
<path
   d="M -195.8,-322.1 L 399.5,-322.1 L 399.5,519.8 L -195.8,519.8 L -195.8,-322.1 z"
   id="path414" />
</clipPath>
<g
   clip-path="url(#clp63)"
   id="g416">
<clipPath
   id="clp64"
   clip-rule="nonzero">
<path
   d="M -237.3,-669.4 L 1031.7,-669.4 L 1031.7,554.6 L -237.3,554.6 L -237.3,-669.4 z"
   id="path419" />
</clipPath>
<g
   clip-path="url(#clp64)"
   id="g421">
<path
   d="M 101.3,82.42 C 101.1,82.42 100.9,82.23 100.9,81.99 C 100.9,81.99 100.9,81.88 100.9,81.71 L 99.43,81.71 C 99.19,81.71 99,81.52 99,81.28 C 99,81.04 99.19,80.85 99.43,80.85 L 100.9,80.85 L 100.9,80.2 L 99.43,80.2 C 99.19,80.2 99,80.01 99,79.77 C 99,79.53 99.19,79.34 99.43,79.34 L 100.9,79.34 L 100.9,78.87 L 99.39,78.87 C 99.15,78.87 98.96,78.68 98.96,78.44 C 98.96,78.2 99.15,78.01 99.39,78.01 L 101.3,78.01 C 101.6,78.01 101.7,78.2 101.7,78.44 L 101.7,81.99 C 101.7,82.23 101.6,82.42 101.3,82.42"
   class="ps01 ps11"
   id="path423"
   style="fill:#0b1f39;stroke-width:0.2;stroke-linecap:butt;stroke-linejoin:miter;stroke-miterlimit:4" />
</g>
</g>
</g>
<g
   id="q33"
   class="">
<clipPath
   id="clp65"
   clip-rule="nonzero">
<path
   d="M -195.8,-322.1 L 399.5,-322.1 L 399.5,519.8 L -195.8,519.8 L -195.8,-322.1 z"
   id="path427" />
</clipPath>
<g
   clip-path="url(#clp65)"
   id="g429">
<clipPath
   id="clp66"
   clip-rule="nonzero">
<path
   d="M -237.3,-669.4 L 1031.7,-669.4 L 1031.7,554.6 L -237.3,554.6 L -237.3,-669.4 z"
   id="path432" />
</clipPath>
<g
   clip-path="url(#clp66)"
   id="g434">
<path
   d="M 101.3,77.65 L 98.57,77.65 C 98.69,77.84 98.66,78.1 98.47,78.24 L 97.49,78.97 L 98.47,79.7 C 98.49,79.72 98.5,79.73 98.51,79.75 C 98.53,79.77 98.54,79.77 98.56,79.79 C 98.56,79.8 98.56,79.8 98.57,79.81 C 98.58,79.84 98.6,79.86 98.61,79.89 C 98.62,79.92 98.63,79.94 98.63,79.96 C 98.64,79.99 98.64,80.02 98.64,80.05 C 98.64,80.07 98.64,80.1 98.63,80.13 C 98.63,80.15 98.62,80.18 98.61,80.2 C 98.6,80.23 98.58,80.26 98.57,80.28 C 98.56,80.29 98.56,80.3 98.56,80.3 C 98.54,80.32 98.53,80.33 98.51,80.34 C 98.5,80.36 98.49,80.38 98.47,80.39 L 97.49,81.12 L 98.47,81.86 C 98.66,82 98.7,82.27 98.56,82.46 C 98.42,82.65 98.15,82.69 97.96,82.54 L 96.77,81.66 L 95.59,82.54 C 95.4,82.69 95.13,82.65 94.99,82.46 C 94.85,82.27 94.89,82 95.08,81.86 L 96.06,81.12 L 95.08,80.39 C 95.06,80.38 95.05,80.36 95.03,80.34 C 95.02,80.33 95,80.32 94.99,80.3 C 94.98,80.3 94.98,80.29 94.98,80.28 C 94.96,80.26 94.95,80.23 94.94,80.2 C 94.93,80.18 94.92,80.15 94.91,80.13 C 94.91,80.1 94.91,80.07 94.91,80.05 C 94.91,80.02 94.91,79.99 94.91,79.96 C 94.92,79.94 94.93,79.92 94.94,79.89 C 94.95,79.87 94.96,79.84 94.98,79.81 C 94.98,79.8 94.98,79.8 94.99,79.79 C 95,79.77 95.02,79.77 95.03,79.75 C 95.05,79.73 95.06,79.72 95.08,79.7 L 96.06,78.97 L 95.08,78.24 C 94.89,78.1 94.85,77.84 94.98,77.65 L 92.23,77.65 C 92,77.65 91.8,77.46 91.8,77.22 L 91.8,73.52 C 91.8,73.29 92,73.09 92.23,73.09 C 92.47,73.09 92.66,73.29 92.66,73.52 C 92.66,73.52 92.66,76.12 92.66,76.79 L 96.77,76.79 C 96.77,76.79 100.2,76.79 100.9,76.79 L 100.9,73.52 C 100.9,73.29 101.1,73.09 101.3,73.09 C 101.6,73.09 101.7,73.29 101.7,73.52 L 101.7,77.22 C 101.7,77.46 101.6,77.65 101.3,77.65 M 96.05,80.05 L 96.77,80.59 L 97.5,80.05 L 96.77,79.51 L 96.05,80.05 M 96.77,77.65 L 95.73,77.65 L 96.77,78.43 L 97.82,77.65 L 96.77,77.65"
   class="ps01 ps11"
   id="path436"
   style="fill:#0b1f39;stroke-width:0.2;stroke-linecap:butt;stroke-linejoin:miter;stroke-miterlimit:4" />
</g>
</g>
</g>
<g
   id="q34"
   class="">
<clipPath
   id="clp67"
   clip-rule="nonzero">
<path
   d="M -195.8,-322.1 L 399.5,-322.1 L 399.5,519.8 L -195.8,519.8 L -195.8,-322.1 z"
   id="path440" />
</clipPath>
<g
   clip-path="url(#clp67)"
   id="g442">
<clipPath
   id="clp68"
   clip-rule="nonzero">
<path
   d="M -237.3,-669.4 L 1031.7,-669.4 L 1031.7,554.6 L -237.3,554.6 L -237.3,-669.4 z"
   id="path445" />
</clipPath>
<g
   clip-path="url(#clp68)"
   id="g447">
<path
   d="M 99.85,76.36 C 99.61,76.36 99.42,76.17 99.42,75.93 C 99.42,75.93 99.42,74.53 99.42,73.95 L 97.2,73.95 L 97.2,74.24 L 98.38,74.24 C 98.62,74.24 98.81,74.43 98.81,74.67 L 98.81,75.93 C 98.81,76.17 98.62,76.36 98.38,76.36 L 96.77,76.36 L 95.16,76.36 C 94.93,76.36 94.74,76.17 94.74,75.93 L 94.74,74.67 C 94.74,74.43 94.93,74.24 95.16,74.24 L 96.34,74.24 L 96.34,73.95 L 94.13,73.95 L 94.13,75.93 C 94.13,76.17 93.94,76.36 93.7,76.36 C 93.46,76.36 93.27,76.17 93.27,75.93 L 93.27,73.52 C 93.27,73.29 93.46,73.09 93.7,73.09 L 96.34,73.09 L 96.34,72.57 L 95.16,72.57 C 94.93,72.57 94.74,72.38 94.74,72.14 C 94.74,71.9 94.93,71.71 95.16,71.71 L 96.77,71.71 C 97.01,71.71 97.2,71.9 97.2,72.14 L 97.2,73.09 L 99.85,73.09 C 100.1,73.09 100.3,73.29 100.3,73.52 L 100.3,75.93 C 100.3,76.17 100.1,76.36 99.85,76.36 M 96.77,75.1 C 96.77,75.1 96.06,75.1 95.59,75.1 L 95.59,75.5 L 96.77,75.5 C 96.77,75.5 97.49,75.5 97.95,75.5 L 97.95,75.1 L 96.77,75.1"
   class="ps01 ps11"
   id="path449"
   style="fill:#0b1f39;stroke-width:0.2;stroke-linecap:butt;stroke-linejoin:miter;stroke-miterlimit:4" />
</g>
</g>
</g>
<g
   id="q35"
   class="">
<clipPath
   id="clp69"
   clip-rule="nonzero">
<path
   d="M -195.8,-322.1 L 399.5,-322.1 L 399.5,519.8 L -195.8,519.8 L -195.8,-322.1 z"
   id="path453" />
</clipPath>
<g
   clip-path="url(#clp69)"
   id="g455">
<clipPath
   id="clp70"
   clip-rule="nonzero">
<path
   d="M -237.3,-669.4 L 1031.7,-669.4 L 1031.7,554.6 L -237.3,554.6 L -237.3,-669.4 z"
   id="path458" />
</clipPath>
<g
   clip-path="url(#clp70)"
   id="g460">
<path
   d="M 101.4,85.35 L 97.57,85.35 L 97.11,86.36 C 97.11,86.37 97.1,86.37 97.1,86.38 C 97.08,86.41 97.05,86.43 97.03,86.46 C 97,86.48 96.98,86.51 96.95,86.53 C 96.94,86.53 96.93,86.54 96.93,86.54 C 96.88,86.57 96.82,86.58 96.77,86.58 C 96.72,86.58 96.67,86.57 96.62,86.54 C 96.61,86.54 96.61,86.53 96.6,86.53 C 96.57,86.51 96.55,86.48 96.52,86.46 C 96.49,86.43 96.47,86.41 96.45,86.38 C 96.45,86.37 96.44,86.37 96.43,86.36 L 95.98,85.35 L 92.14,85.35 C 91.94,85.35 91.77,85.18 91.77,84.98 L 91.77,83.01 C 91.77,82.8 91.94,82.63 92.14,82.63 C 92.35,82.63 92.52,82.8 92.52,83.01 C 92.52,83.01 92.52,84.11 92.52,84.6 L 94.71,84.6 L 94.71,83.01 C 94.71,82.8 94.88,82.63 95.09,82.63 C 95.29,82.63 95.46,82.8 95.46,83.01 L 95.46,84.6 L 96.22,84.6 L 96.77,84.6 C 96.77,84.6 96.99,84.6 97.32,84.6 L 98.09,84.6 L 98.09,83.01 C 98.09,82.8 98.25,82.63 98.46,82.63 C 98.67,82.63 98.83,82.8 98.83,83.01 L 98.83,84.6 L 101,84.6 L 101,83.01 C 101,82.8 101.2,82.63 101.4,82.63 C 101.6,82.63 101.8,82.8 101.8,83.01 L 101.8,84.98 C 101.8,85.18 101.6,85.35 101.4,85.35"
   class="ps01 ps11"
   id="path462"
   style="fill:#0b1f39;stroke-width:0.2;stroke-linecap:butt;stroke-linejoin:miter;stroke-miterlimit:4" />
</g>
</g>
</g>
<g
   id="q36"
   class="">
<clipPath
   id="clp71"
   clip-rule="nonzero">
<path
   d="M -195.8,-322.1 L 399.5,-322.1 L 399.5,519.8 L -195.8,519.8 L -195.8,-322.1 z"
   id="path466" />
</clipPath>
<g
   clip-path="url(#clp71)"
   id="g468">
<clipPath
   id="clp72"
   clip-rule="nonzero">
<path
   d="M -237.3,-669.4 L 1031.7,-669.4 L 1031.7,554.6 L -237.3,554.6 L -237.3,-669.4 z"
   id="path471" />
</clipPath>
<g
   clip-path="url(#clp72)"
   id="g473">
<path
   d="M 80.37,84.95 C 80.15,85.03 79.9,84.92 79.82,84.7 L 79.28,83.3 L 78.74,84.7 C 78.65,84.92 78.4,85.03 78.18,84.95 C 78.01,84.88 77.91,84.72 77.91,84.54 C 77.91,84.49 77.92,84.44 77.94,84.39 C 77.94,84.39 78.79,82.17 78.85,82.03 L 78.85,80.41 C 78.85,80.17 79.04,79.98 79.28,79.98 C 79.51,79.98 79.71,80.17 79.71,80.41 L 79.71,82.03 C 79.76,82.17 80.62,84.39 80.62,84.39 C 80.64,84.44 80.65,84.49 80.65,84.54 C 80.65,84.72 80.54,84.88 80.37,84.95"
   class="ps01 ps11"
   id="path475"
   style="fill:#0b1f39;stroke-width:0.2;stroke-linecap:butt;stroke-linejoin:miter;stroke-miterlimit:4" />
</g>
</g>
</g>
<g
   id="q37"
   class="">
<clipPath
   id="clp73"
   clip-rule="nonzero">
<path
   d="M -195.8,-322.1 L 399.5,-322.1 L 399.5,519.8 L -195.8,519.8 L -195.8,-322.1 z"
   id="path479" />
</clipPath>
<g
   clip-path="url(#clp73)"
   id="g481">
<clipPath
   id="clp74"
   clip-rule="nonzero">
<path
   d="M -237.3,-669.4 L 1031.7,-669.4 L 1031.7,554.6 L -237.3,554.6 L -237.3,-669.4 z"
   id="path484" />
</clipPath>
<g
   clip-path="url(#clp74)"
   id="g486">
<path
   d="M 77.33,84.54 C 77.33,84.66 77.29,84.78 77.19,84.86 C 77.02,85.02 76.75,85.01 76.59,84.83 C 76.59,84.83 75.99,84.17 75.5,83.63 L 75.5,84.54 C 75.5,84.78 75.31,84.97 75.07,84.97 C 74.83,84.97 74.64,84.78 74.64,84.54 L 74.64,80.41 C 74.64,80.17 74.83,79.98 75.07,79.98 C 75.31,79.98 75.5,80.17 75.5,80.41 L 75.5,81.95 C 75.91,81.26 76.53,80.19 76.53,80.19 C 76.66,79.99 76.92,79.92 77.12,80.04 C 77.26,80.12 77.33,80.26 77.33,80.41 C 77.33,80.48 77.32,80.56 77.28,80.63 C 77.28,80.63 76.22,82.42 75.96,82.86 C 76.5,83.46 77.22,84.26 77.22,84.26 C 77.3,84.34 77.33,84.44 77.33,84.54"
   class="ps01 ps11"
   id="path488"
   style="fill:#0b1f39;stroke-width:0.2;stroke-linecap:butt;stroke-linejoin:miter;stroke-miterlimit:4" />
</g>
</g>
</g>
<g
   id="q38"
   class="">
<clipPath
   id="clp75"
   clip-rule="nonzero">
<path
   d="M -195.8,-322.1 L 399.5,-322.1 L 399.5,519.8 L -195.8,519.8 L -195.8,-322.1 z"
   id="path492" />
</clipPath>
<g
   clip-path="url(#clp75)"
   id="g494">
<clipPath
   id="clp76"
   clip-rule="nonzero">
<path
   d="M -237.3,-669.4 L 1031.7,-669.4 L 1031.7,554.6 L -237.3,554.6 L -237.3,-669.4 z"
   id="path497" />
</clipPath>
<g
   clip-path="url(#clp76)"
   id="g499">
<path
   d="M 82.52,84.97 L 82.3,84.97 C 81.64,84.97 81.11,84.44 81.11,83.78 L 81.11,81.17 C 81.11,80.51 81.64,79.98 82.3,79.98 L 82.52,79.98 C 83.18,79.98 83.71,80.51 83.71,81.17 L 83.71,83.78 C 83.71,84.44 83.18,84.97 82.52,84.97 M 82.85,81.17 C 82.85,80.99 82.71,80.84 82.52,80.84 L 82.3,80.84 C 82.12,80.84 81.97,80.99 81.97,81.17 L 81.97,83.78 C 81.97,83.96 82.12,84.11 82.3,84.11 L 82.52,84.11 C 82.71,84.11 82.85,83.96 82.85,83.78 L 82.85,81.17"
   class="ps01 ps11"
   id="path501"
   style="fill:#0b1f39;stroke-width:0.2;stroke-linecap:butt;stroke-linejoin:miter;stroke-miterlimit:4" />
</g>
</g>
</g>
<g
   id="q39"
   class="">
<clipPath
   id="clp77"
   clip-rule="nonzero">
<path
   d="M -195.8,-322.1 L 399.5,-322.1 L 399.5,519.8 L -195.8,519.8 L -195.8,-322.1 z"
   id="path505" />
</clipPath>
<g
   clip-path="url(#clp77)"
   id="g507">
<clipPath
   id="clp78"
   clip-rule="nonzero">
<path
   d="M -237.3,-669.4 L 1031.7,-669.4 L 1031.7,554.6 L -237.3,554.6 L -237.3,-669.4 z"
   id="path510" />
</clipPath>
<g
   clip-path="url(#clp78)"
   id="g512">
<path
   d="M 88.38,84.97 L 88.15,84.97 C 87.5,84.97 86.96,84.44 86.96,83.78 L 86.96,81.17 C 86.96,80.51 87.5,79.98 88.15,79.98 L 88.38,79.98 C 89.03,79.98 89.57,80.51 89.57,81.17 L 89.57,83.78 C 89.57,84.44 89.03,84.97 88.38,84.97 M 88.71,81.17 C 88.71,80.99 88.56,80.84 88.38,80.84 L 88.15,80.84 C 87.97,80.84 87.82,80.99 87.82,81.17 L 87.82,83.78 C 87.82,83.96 87.97,84.11 88.15,84.11 L 88.38,84.11 C 88.56,84.11 88.71,83.96 88.71,83.78 L 88.71,81.17"
   class="ps01 ps11"
   id="path514"
   style="fill:#0b1f39;stroke-width:0.2;stroke-linecap:butt;stroke-linejoin:miter;stroke-miterlimit:4" />
</g>
</g>
</g>
<g
   id="q40"
   class="">
<clipPath
   id="clp79"
   clip-rule="nonzero">
<path
   d="M -195.8,-322.1 L 399.5,-322.1 L 399.5,519.8 L -195.8,519.8 L -195.8,-322.1 z"
   id="path518" />
</clipPath>
<g
   clip-path="url(#clp79)"
   id="g520">
<clipPath
   id="clp80"
   clip-rule="nonzero">
<path
   d="M -237.3,-669.4 L 1031.7,-669.4 L 1031.7,554.6 L -237.3,554.6 L -237.3,-669.4 z"
   id="path523" />
</clipPath>
<g
   clip-path="url(#clp80)"
   id="g525">
<path
   d="M 86.35,84.97 L 85.41,84.97 L 84.47,84.97 C 84.23,84.97 84.04,84.78 84.04,84.54 C 84.04,84.31 84.23,84.11 84.47,84.11 L 84.98,84.11 L 84.98,80.41 C 84.98,80.17 85.17,79.98 85.41,79.98 C 85.65,79.98 85.84,80.17 85.84,80.41 L 85.84,84.11 L 86.35,84.11 C 86.59,84.11 86.78,84.31 86.78,84.54 C 86.78,84.78 86.59,84.97 86.35,84.97"
   class="ps01 ps11"
   id="path527"
   style="fill:#0b1f39;stroke-width:0.2;stroke-linecap:butt;stroke-linejoin:miter;stroke-miterlimit:4" />
</g>
</g>
</g>
<g
   id="q41"
   class="">
<clipPath
   id="clp81"
   clip-rule="nonzero">
<path
   d="M -195.8,-322.1 L 399.5,-322.1 L 399.5,519.8 L -195.8,519.8 L -195.8,-322.1 z"
   id="path531" />
</clipPath>
<g
   clip-path="url(#clp81)"
   id="g533">
<clipPath
   id="clp82"
   clip-rule="nonzero">
<path
   d="M -237.3,-669.4 L 1031.7,-669.4 L 1031.7,554.6 L -237.3,554.6 L -237.3,-669.4 z"
   id="path536" />
</clipPath>
<g
   clip-path="url(#clp82)"
   id="g538">
<path
   d="M 118.3,84.97 C 118,84.97 117.8,84.78 117.8,84.54 C 117.8,84.54 117.8,83.26 117.8,82.08 C 117.2,83.3 116.4,84.75 116.4,84.75 C 116.3,84.92 116.1,85.01 115.9,84.96 C 115.7,84.91 115.6,84.74 115.6,84.54 L 115.6,80.41 C 115.6,80.17 115.7,79.98 116,79.98 C 116.2,79.98 116.4,80.17 116.4,80.41 C 116.4,80.41 116.4,81.69 116.4,82.88 C 117.1,81.66 117.9,80.2 117.9,80.2 C 118,80.03 118.2,79.95 118.4,79.99 C 118.6,80.04 118.7,80.21 118.7,80.41 L 118.7,84.54 C 118.7,84.78 118.5,84.97 118.3,84.97"
   class="ps01 ps11"
   id="path540"
   style="fill:#0b1f39;stroke-width:0.2;stroke-linecap:butt;stroke-linejoin:miter;stroke-miterlimit:4" />
</g>
</g>
</g>
<g
   id="q42"
   class="">
<clipPath
   id="clp83"
   clip-rule="nonzero">
<path
   d="M -195.8,-322.1 L 399.5,-322.1 L 399.5,519.8 L -195.8,519.8 L -195.8,-322.1 z"
   id="path544" />
</clipPath>
<g
   clip-path="url(#clp83)"
   id="g546">
<clipPath
   id="clp84"
   clip-rule="nonzero">
<path
   d="M -237.3,-669.4 L 1031.7,-669.4 L 1031.7,554.6 L -237.3,554.6 L -237.3,-669.4 z"
   id="path549" />
</clipPath>
<g
   clip-path="url(#clp84)"
   id="g551">
<path
   d="M 107.8,84.66 C 107.8,84.84 107.6,84.97 107.4,84.97 C 107.2,84.97 107.1,84.84 107,84.66 L 105.9,80.52 C 105.8,80.29 106,80.06 106.2,80 C 106.4,79.93 106.7,80.07 106.7,80.3 C 106.7,80.3 106.8,80.71 107,81.28 L 107.9,81.28 C 108,80.71 108.1,80.3 108.1,80.3 C 108.2,80.07 108.4,79.93 108.7,80 C 108.9,80.06 109,80.29 109,80.52 L 107.8,84.66 M 107.2,82.14 C 107.3,82.39 107.4,82.65 107.4,82.9 C 107.5,82.65 107.6,82.39 107.6,82.14 L 107.2,82.14"
   class="ps01 ps11"
   id="path553"
   style="fill:#0b1f39;stroke-width:0.2;stroke-linecap:butt;stroke-linejoin:miter;stroke-miterlimit:4" />
</g>
</g>
</g>
<g
   id="q43"
   class="">
<clipPath
   id="clp85"
   clip-rule="nonzero">
<path
   d="M -195.8,-322.1 L 399.5,-322.1 L 399.5,519.8 L -195.8,519.8 L -195.8,-322.1 z"
   id="path557" />
</clipPath>
<g
   clip-path="url(#clp85)"
   id="g559">
<clipPath
   id="clp86"
   clip-rule="nonzero">
<path
   d="M -237.3,-669.4 L 1031.7,-669.4 L 1031.7,554.6 L -237.3,554.6 L -237.3,-669.4 z"
   id="path562" />
</clipPath>
<g
   clip-path="url(#clp86)"
   id="g564">
<path
   d="M 112.4,83.78 C 112.4,84.44 111.9,84.97 111.2,84.97 L 109.9,84.97 C 109.7,84.97 109.5,84.78 109.5,84.54 L 109.5,80.41 C 109.5,80.17 109.7,79.98 109.9,79.98 C 110.1,79.98 110.3,80.17 110.3,80.41 L 110.3,82.37 L 111.2,82.37 C 111.9,82.37 112.4,82.9 112.4,83.56 L 112.4,83.78 M 111.5,83.56 C 111.5,83.38 111.4,83.23 111.2,83.23 L 110.3,83.23 L 110.3,84.11 L 111.2,84.11 C 111.4,84.11 111.5,83.96 111.5,83.78 L 111.5,83.56"
   class="ps01 ps11"
   id="path566"
   style="fill:#0b1f39;stroke-width:0.2;stroke-linecap:butt;stroke-linejoin:miter;stroke-miterlimit:4" />
</g>
</g>
</g>
<g
   id="q44"
   class="">
<clipPath
   id="clp87"
   clip-rule="nonzero">
<path
   d="M -195.8,-322.1 L 399.5,-322.1 L 399.5,519.8 L -195.8,519.8 L -195.8,-322.1 z"
   id="path570" />
</clipPath>
<g
   clip-path="url(#clp87)"
   id="g572">
<clipPath
   id="clp88"
   clip-rule="nonzero">
<path
   d="M -237.3,-669.4 L 1031.7,-669.4 L 1031.7,554.6 L -237.3,554.6 L -237.3,-669.4 z"
   id="path575" />
</clipPath>
<g
   clip-path="url(#clp88)"
   id="g577">
<path
   d="M 105.1,84.97 C 104.9,84.97 104.7,84.78 104.7,84.54 L 104.7,81.17 C 104.7,80.99 104.6,80.84 104.4,80.84 L 104.2,80.84 C 104,80.84 103.8,80.99 103.8,81.17 L 103.8,81.62 C 103.8,81.86 103.6,82.05 103.4,82.05 C 103.2,82.05 103,81.86 103,81.62 L 103,81.17 C 103,80.51 103.5,79.98 104.2,79.98 L 104.4,79.98 C 105,79.98 105.6,80.51 105.6,81.17 L 105.6,84.54 C 105.6,84.78 105.4,84.97 105.1,84.97"
   class="ps01 ps11"
   id="path579"
   style="fill:#0b1f39;stroke-width:0.2;stroke-linecap:butt;stroke-linejoin:miter;stroke-miterlimit:4" />
</g>
</g>
</g>
<g
   id="q45"
   class="">
<clipPath
   id="clp89"
   clip-rule="nonzero">
<path
   d="M -195.8,-322.1 L 399.5,-322.1 L 399.5,519.8 L -195.8,519.8 L -195.8,-322.1 z"
   id="path583" />
</clipPath>
<g
   clip-path="url(#clp89)"
   id="g585">
<clipPath
   id="clp90"
   clip-rule="nonzero">
<path
   d="M -237.3,-669.4 L 1031.7,-669.4 L 1031.7,554.6 L -237.3,554.6 L -237.3,-669.4 z"
   id="path588" />
</clipPath>
<g
   clip-path="url(#clp90)"
   id="g590">
<path
   d="M 114,84.66 C 114,84.84 113.8,84.97 113.6,84.97 C 113.4,84.97 113.2,84.84 113.2,84.66 L 112.1,80.52 C 112,80.29 112.1,80.06 112.4,80 C 112.6,79.93 112.8,80.07 112.9,80.3 C 112.9,80.3 113,80.71 113.2,81.28 L 114,81.28 C 114.2,80.71 114.3,80.3 114.3,80.3 C 114.4,80.07 114.6,79.93 114.8,80 C 115.1,80.06 115.2,80.29 115.1,80.52 L 114,84.66 M 113.4,82.14 C 113.5,82.39 113.5,82.65 113.6,82.9 C 113.7,82.65 113.7,82.39 113.8,82.14 L 113.4,82.14"
   class="ps01 ps11"
   id="path592"
   style="fill:#0b1f39;stroke-width:0.2;stroke-linecap:butt;stroke-linejoin:miter;stroke-miterlimit:4" />
<g
   id="xfrm46"
   transform="scale(200,200)">
<g
   id="frm47"
   transform="scale(1e-2,1e-2)">
</g>
</g>
</g>
</g>
</g>
</g>
</svg>