<svg height="55.843769pt" viewBox="0 0 206.99951 55.843768" width="206.99951pt" xmlns="http://www.w3.org/2000/svg" xmlns:xlink="http://www.w3.org/1999/xlink"><clipPath id="a"><path d="m200.69141 267h56.30859v56h-56.30859zm0 0"/></clipPath><g clip-path="url(#a)" transform="translate(-200.69176 -267.10937)"><path d="m232.81641 308.96484c.082-.0742.17187-.14453.27343-.20703.125-.0742.25391-.1289.375-.16797.28516-.10937.60938-.14453.9336-.0859.96875.17187 1.61328 1.09375 1.44531 2.0625-.14453.80468-.80078 1.38281-1.57422 1.46093v.004h-.01953c-.0977.008-.19922.008-.30078 0l-5.04688.0352zm-4.3125 3.10157-5.05079-.0352c-.10156.008-.20312.008-.30078 0h-.0195v-.004c-.77344-.0781-1.42969-.65625-1.57031-1.46093-.17188-.96875.47266-1.89063 1.44141-2.0625.32812-.0586.64843-.0234.9375.0859.11718.0391.24609.0937.36718.16797.10547.0625.19532.13281.27735.20703zm2.19921-6.63282h.008l-2.01172 6.67969-1.96485-6.53125-.0195-.10937c-.0469-.17188-.0742-.35157-.0742-.53907 0-1.14062.92188-2.0625 2.0586-2.0625 1.14062 0 2.0625.92188 2.0625 2.0625 0 .125-.0117.2461-.0312.36719-.008.0469-.0156.0937-.0273.13281m1.07032-34.75.21875-3.57422c1.01953.1211 2.02343.29297 3.0039.51954l-.58203 3.94921c-.14062-.51562-.63281-.89453-1.21875-.89453-.004 0-.008 0-.0156 0zm-4.90625 21.23438.58593 9.5625c-.0312.004-.0586.008-.0898.0117l-1.50391-10.15235c.22657.32813.58985.54688 1.00782.57813m-3.97266-20.60547-.54297-3.67188c.98047-.22656 1.98438-.40234 3.00391-.52343l.21484 3.52734h-1.58984c-.48047.0156-.88672.28516-1.08594.66797m8.75781 18.90625-1.66797 11.27344c-.0312-.004-.0586-.008-.0898-.0117l.6875-11.25h.97656c.0312-.004.0625-.008.0937-.0117m-18.07422-18.875c.83985-.54297 1.71094-1.03516 2.60547-1.48438l8.92188 32.1836c-.0312.008-.0586.0195-.0859.0273zm-5.02343 4.11719 14.41406 27.70312c-.0234.0195-.0508.0391-.0781.0547l-16.24218-25.56641c.59765-.76172 1.23437-1.49218 1.90625-2.1914m-5.22266 7.5625 17.94141 21.77343c-.0234.0274-.0469.0547-.0664.0859l-18.92187-19.30859c.30468-.8711.65625-1.72266 1.04687-2.55078m-2.44531 8.5039 19.30859 15.36328c-.0117.043-.0273.082-.0352.1211l-19.46875-12.92188c.0273-.86328.0937-1.72265.19531-2.5625m.20312 8.22657 18.875 9.41015c.004.0508.0117.0977.0156.14453l-18.39453-7.27343c-.19532-.75-.35938-1.51172-.4961-2.28125m2.23438 7.08203 17.23437 4.46093c.0273.0547.0547.10938.082.16407l-16.35546-2.75782c-.34375-.60937-.66407-1.23437-.96094-1.86718m3.42969 5.52343 14.99609.66016c.043.0469.0898.0937.13672.14063l-13.95732.58985c-.40625-.44922-.80078-.91016-1.17578-1.39063m16.32812 1.80469c.0547.0391.11328.0742.16797.10938l-11.52344 2.96484c-.41015-.3125-.8125-.64062-1.20703-.97656zm1.26563.72656c.0586.0234.11718.0547.17578.0781l-9.22657 4.58594c-.38281-.21094-.76171-.42578-1.13281-.65235zm1.07421.42579c.0469.0156.0937.0273.13672.0469l-7.13281 5.65625c-.33203-.13281-.66406-.26953-.99219-.41406zm.90235.2539c.0391.0117.0781.0195.11719.0274l-5.2461 6.34765c-.29687-.082-.58984-.16797-.88281-.26172zm.75.14453c.0312.004.0664.008.10156.0117l-3.53906 6.77735c-.26563-.0469-.53125-.0977-.79297-.15625zm.62109.0742c.0352.004.0664.008.10156.008l-1.95703 7.02344c-.25-.0273-.49609-.0547-.73828-.0859zm.57813.0391h.0898l-.44531 7.125c-.23438-.008-.46875-.0156-.70703-.0312zm1.85937 7.09766c-.23437.0117-.46875.0234-.70703.0273l-.44141-7.125h.0859zm2.11719-.1875c-.24609.0352-.49219.0586-.74219.0859l-1.95703-7.02735c.0352 0 .0664-.004.0977-.008zm2.26172-.37891c-.26563.0547-.53125.10938-.79688.15625l-3.54297-6.78906c.0352-.004.0664-.008.10157-.0117zm2.53515-.66015c-.29296.0898-.58984.17578-.88671.25781l-5.25782-6.35937c.043-.008.0781-.0156.1211-.0274zm2.89063-1.07813c-.33203.14453-.66406.28125-1 .41016l-7.15234-5.66797c.0469-.0195.0937-.0312.13671-.0469zm3.28125-1.70703c-.375.22656-.75391.44531-1.13672.65625l-9.25781-4.60156c.0586-.0234.11719-.0547.17187-.0781zm3.65234-2.64062c-.39062.33593-.79687.66015-1.20703.97265l-11.5664-2.97265c.0547-.0352.10937-.0703.16796-.10938zm2.59766-2.51953-14.00781-.59375c.0469-.0469.0898-.0937.13281-.14063l15.05859-.66016c-.3789.47657-.77343.94141-1.18359 1.39454m3.65625-5.06641-16.42188 2.77344c.0273-.0547.0547-.10938.082-.16407l17.30468-4.47656c-.30078.63672-.62109 1.25781-.96484 1.86719m2.69922-6.67969-18.45703 7.30078c.004-.0469.0117-.0937.0117-.14453l18.9375-9.4414c-.13282.77343-.29688 1.53515-.49219 2.28515m.88281-7.95703-19.51953 12.96094c-.0117-.0391-.0234-.0781-.0352-.1211l19.35938-15.40625c.10547.84766.17187 1.70313.19531 2.56641m-1.60156-8.51953-18.96485 19.35156c-.0234-.0312-.0469-.0586-.0664-.0859l17.97656-21.8164c.39063.82812.74219 1.67969 1.05469 2.55078m-4.38281-7.92188-16.26563 25.60938c-.0273-.0156-.0547-.0352-.082-.0547l14.4375-27.73828c.67187.69531 1.3125 1.42188 1.91016 2.18359m-6.94532-6.29296-11.45312 30.7539c-.0273-.008-.0508-.0195-.082-.0273l8.92578-32.20703c.89844.44922 1.76953.9414 2.60937 1.48047m-9.875 16.35156c0 .33984-.27734.61719-.61718.61719-.33985 0-.6211-.27735-.6211-.61719v-3.60156h-7.92578v3.625c0 .33984-.27734.61718-.61719.61718-.33984 0-.61328-.27734-.61718-.61328h-.00387v-3.8204c0-.57422.46484-1.03906 1.03906-1.04297h8.35156v.004c.5625.0156 1.01172.47656 1.01172 1.03906zm-2.16797-7.12891v-.004c-.004 0-.0117 0-.0156 0-.33984 0-.61719-.27344-.61719-.61329 0-.33984.27735-.61718.61719-.61718h.0156v-.004h.96094v-.66406h-.98828c-.33594-.008-.60547-.28125-.60547-.61719s.26953-.60937.60547-.61328v-.004h.98828v-.0937h.004c.008-.33203.28125-.60156.61328-.60156.33594 0 .60937.26953.61719.60156h.004v4.09766c0 .57812-.46875 1.04687-1.04297 1.04687-.0586 0-.11328-.004-.16796-.0117h-1.00782v-.004c-.33984 0-.61328-.27734-.61328-.61719 0-.33984.27344-.61328.61328-.61719h.98047v-.66406zm-7.02734 0v.66406h.98047c.33984.004.61328.27735.61328.61719 0 .33985-.27344.61719-.61328.61719v.004h-1.00781c-.0547.008-.10938.0117-.16797.0117-.57422 0-1.04297-.46875-1.04297-1.04687 0-.0117 0-.0312 0-.0469v-4.05078h.004c.008-.33203.28125-.60156.61328-.60156.33984 0 .60937.26953.61718.60156h.004v.0937h.98828v.004c.33594.004.60547.27734.60547.61328s-.26953.60938-.60547.61719h-.98828v.66406h.96094v.004h.0156c.33985 0 .61719.27734.61719.61718 0 .33985-.27734.61329-.61719.61329-.004 0-.0117 0-.0156 0v.004zm5.36328 1.45313c-.0312.33593-.32812.58593-.66797.55859-.13672-.0117-.25781-.0664-.35156-.14844l-.004.004-.41796-.41016-.61719.54688-.008-.008c-.125.11718-.29297.17968-.47657.16406-.33984-.0274-.58984-.32813-.5625-.66797.0195-.19531.12891-.36328.28516-.46094l.49219-.4414-.36328-.35157.008-.008c-.10547-.12109-.16016-.28125-.14844-.45312.0312-.33985.33203-.58985.67188-.5625.125.0117.23828.0625.33203.13671l.0117.0117c.0195.0156.0391.0391.0586.0547l.35156.34766.64063-.57032c.12109-.13281.30468-.20703.5-.1914.33984.0312.58984.32812.5625.66797-.0156.17968-.10547.32812-.23438.42968l.008.008-.58984.52343.35938.34766c.11328.125.17187.29297.16015.47266m0-2.97266c-.0312.33984-.32812.58984-.66797.55859-.13672-.0117-.25781-.0664-.35156-.14843l-.004.004-.41796-.41015-.61719.54687-.008-.008c-.125.11719-.29297.18359-.47657.16406-.33984-.0273-.58984-.32812-.5625-.66406.0195-.19922.12891-.36719.28516-.46875l.49219-.4375-.36328-.35156.008-.008c-.10547-.12109-.16016-.28125-.14844-.44921.0312-.33985.33203-.59375.67188-.5625.125.0117.23828.0586.33203.13281l.0117.0156c.0195.0117.0391.0312.0586.0508l.35156.34766.64063-.56641c.12109-.13281.30468-.21093.5-.19531.33984.0312.58984.33203.5625.66797-.0156.17969-.10547.32813-.23438.42969l.008.008-.58984.52344.35938.34765c.11328.125.17187.29297.16015.47266m3.5625-6.36719v2.33594l-.004.008s.004.004.004.0117c0 .33985-.27734.61719-.61719.61719-.33984 0-.61718-.27734-.61718-.61719v-2.13287h-1.57032v1.77344h-.004v.0117c0 .33984-.27735.61718-.61328.61718-.34375 0-.61719-.27734-.61719-.61718v-.0117h-.004v-1.77344h-1.77734v1.77344h-.004c0 .004.004.008.004.0117 0 .33984-.27734.61718-.61719.61718-.33984 0-.61719-.27734-.61719-.61718v-.0117h-.004v-1.77344h-1.5625v2.11328l-.004.008v.0117c0 .33985-.27344.61719-.61328.61719-.34375 0-.61719-.27734-.61719-.61719 0-.008 0-.0117 0-.0195v-2.17578c-.008-.043-.008-.0859-.008-.13281 0-.5625.44531-1.01953 1.00391-1.04297h3.27734v-.66016h.004c.0234-.3164.28906-.57031.61328-.57031s.58984.25391.61719.57031h.004v.66016h3.30078c.56641 0 1.02735.45312 1.04297 1.01562zm-5.45703 13.19532h1.05078v.47656h-1.05078zm3.94141-.10157v-.004c0-.33985-.27735-.61719-.61719-.61719s-.61719.27734-.61719.61719v2.36328h-1.55078v-.54297h.47266v-.004c.0117 0 .0273.004.043.004.33984 0 .61718-.27734.61718-.61719v-1.71875c-.008-.32812-.26562-.58594-.58984-.60547v-.0117h-2.32031c-.33985 0-.61328.27735-.61328.61719v1.6875.0312c0 .32031.24218.58203.55078.61328v.004h.60547v.54297h-1.57813v-2.35938h-.004v-.004c0-.33985-.27734-.61719-.61718-.61719-.33594 0-.61328.27734-.61328.61719v2.47656h.004c-.004.0273-.004.0508-.004.0781 0 .57422.46484 1.04297 1.04296 1.04297h1.76954v.45313h-.65235v.004c-.34375.008-.62109.28125-.62109.61329 0 .33593.27734.60937.62109.61718h.89063c.54297-.0273.97656-.46093.99609-1.00781v-.67969h1.78906v-.004c.53516-.0234.96094-.44532.9961-.97657zm0 0" fill="#77113c"/></g><g fill="#231f20"><path d="m99.77309 23.875005c-.0156-.0117-.73829-.30078-.73829-.30078s-.32812 5.71875-.41796 6.52734c-.0859.8125-.1875 1.07813-1.59375 1.07813-1.41797 0-1.65235-.0312-1.65235-1.1211v-13.58203c.14063-.10937 1.38672-1.07422 1.38672-1.07422l-3.375-3.93359-2.08984 2.53906h-5.03516c.043-1.46484.24219-8.8789.24219-8.8789l-3.91797-.15235s-.0859 5.81641-.13281 9.03125h-8.5l.28906 1.51563h8.19141c-.28516 10.12109-1.64844 14.53125-10.1875 18.39062.0117 0 .90234.75391.90234.73828 10.78125-4.00781 12.53906-9.4414 13.04687-19.1289h5.40625v15.80078c0 2.72265 1.44532 3.20703 5.51954 3.20703h.0391c1.67578 0 3.57031 0 4.57031-.99609.45703-.46094.70703-1.10938.6875-2.08204-1.60156-.0937-2.04687-2.76953-2.64062-7.57812m74.80468-7.32813c1.13672-1.08984 2.89063-2.68359 3.6836-5.99218.66797.14843 1.69922.49218 1.69922.49218s-.004.82422-.008 1.14063h14.60157c1.85937-2 3.5-7.59375 3.5-7.59375s3.0039 1.54297 3.96093 2.45703c-.52343 1.13672-3.53906 4.06641-5.4375 5.13672h4.45313l2.44922-2.13672 3.51953 4.46875s-1.85547.54297-1.95703.57031c-.0781.082-3.70703 3.89844-3.70703 3.89844s-.57422-.77344-.76563-1.19141c.48828-1.20312 1.01563-2.8789 1.10156-4.13671-.004-.004-.0117-.008-.0156-.0117h-21.75781c-.15625 1.67578-.61719 4.13281-1.8086 5.83984-1.375-1.03125-2.23828-1.73437-3.51172-2.94141m27.90235 4.57032 3.36718 3.33203-.6914.72265h-12.7461v6.9375c0 .66797-.22656 1.40625-.67968 1.85938-1.10547 1.10156-4.05469.88281-4.05469.88281s-.16406-.87109-.64063-1.375c-.39062-.42187-2.625-1.5039-3.98437-1.85937-.0273-.0937-.25781-.85938-.28125-1 1.94141.28125 4.17969.55859 5.54297.64843.14062.008.33594-.0664.33594-.27734v-5.81641h-12.53125l-.29297-1.51171h12.82422v-2.85547l3.27734.27343c.63672-.62109 1.41797-1.60546 2.1875-3.05859h-13.02734l-.28907-1.38672c.0274-.0234 10.97266-.008 13.94532 0l1.74218-1.89453 3.66407 3.94141s-.27735.20312-2.5.72656c-2.07032 1.11719-3.76563 2.01172-5.23829 2.76953v1.48438h7.94922zm-23.04688-14.94922c.3086-.46485.4336-.625.6836-1 1.51562.64453 4.62109 2.32031 6.41406 4.01172-.92188 1.15625-1.94531 2.05468-3.32813 2.91797-.61718-1.24219-1.59765-3.57032-3.76953-5.92969m7.4961-.41016c.28515-.35937.57421-.68359.78906-.91797 1.91015.91797 4.88281 3 5.92969 4.57422-.77735.82031-2 1.76563-3.61329 2.59375-.62109-1.67578-1.10937-3.71094-3.10546-6.25m-29.875 10.00781c-.0117-.0117 12.34375 0 12.34375 0l.71093-.67187-3.38281-3.53516-2.10156 2.67969h-7.79297c.0586-1.34766.0586-2.6875.0625-5.48047l.008-3.83203-3.76172-.16406s-.0273 5.86719-.11328 9.47656h-12.26953l.28906 1.52734h11.9375c-.008.22657-.0273.65235-.0234.64844-.42969 11.55469-11.54297 16.81641-13.13282 17.60547.125.13672.7461.73047.79688.76563 11.98828-4.19532 14.90625-11.19532 15.8789-17.06641 1.15235 6.84375 5.78516 14.30859 10.58985 17.11328.9375-.79297 2.59765-2.05469 3.6914-2.69922-2.60937-1.625-11.2539-6.30859-13.73046-16.36719m-45.41407.54688c0 9.86328-.55859 13.30469-4.86718 17.625-.0156-.0234.71484.78516.73437.8125 4.95313-3.91797 7.83203-7.20313 7.83203-17.9375v-11.49609l-3.69922-.16016zm-5.41797 4.74219-.0469.0664.0547.0586c.20312.22656 1.58984 1.66797 2.85547 2.58984l.10546.0742.0508-.12109c1.32812-3.21875 1.55078-9.45313 1.54687-11.21094.004-.008-.6875-.79297-.69531-.79297-.51563 3.17187-2.07422 6.65625-3.8711 9.33594m15.26563 10.89453 3.6875-.25781v-25.76954l-3.6875-.16406zm-5.62891-19.29688c1.31641 3.32422 2.02344 7.875 2.21875 10.45313 1.2461-.77344 2.72266-2.39453 3.16407-3.1211-.58594-1.50781-2.28125-4.92968-4.83594-7.88671-.0273.0156-.55469.54687-.54688.55468m10.03516.0547c1.29687 3.59375 1.63281 9.34375 1.78906 10.25781 1.41016-.77734 2.26563-1.64453 3.28125-2.73047-1.0039-3.45312-3.24609-6.58593-4.54687-8.12109.0156 0-.52344.59375-.52344.59375m5.57031-7.55078 3.70703.16016v29.07812l-3.70703.34375zm0 0"/><path d="m76.43715 46.992195 2.70703-3.14063-.73047-.35156v-.32813h2.8125v.32813l-.98828.38672-2.45703 2.53906 2.65625 3.85547.96484.40234v.33203h-2.25781zm-1.53906 3.28125v-6.36328l-.98829-.41016v-.32813h3.44532v.32813l-1.01172.41016.0352 6.36328.97657.41015v.33203h-3.44532v-.33203zm0 0"/><path d="m86.26137 46.484375 1.69531-2.59765-.82422-.38672v-.32813h2.63281v.32813l-.91406.38672-2.19141 3.22265v3.16407l1.29688.41015v.33203h-4.10547v-.32031l1.29297-.42187v-2.8711l-2.22266-3.51562-.88281-.38672v-.32813h3.46094v.32813l-.84766.38672zm0 0"/><path d="m93.26918 43.910165v4.76171c0 1.27344.55469 1.8711 1.75391 1.8711.5625 0 1-.11719 1.3164-.35156.44531-.34375.61328-.80079.61328-1.67188v-4.60937l-.99218-.41016v-.32813h2.87109v.32813l-1 .41016v4.39843c0 1.10547-.30469 1.78907-.99609 2.28125-.57813.40235-1.26954.60157-2.14063.60157-1.89453 0-2.94141-.90625-2.94141-2.50391v-4.77734l-1-.41016v-.32813h3.45704v.32813zm0 0"/><path d="m100.01137 50.671875v-1.9375h.53125l.60937 1.63282c.2461.0586.32813.0586.70703.0586 1.1875 0 1.72657-.36719 1.72657-1.16406 0-.51953-.17579-.75391-.91797-1.2461l-1.32813-.87109c-.88281-.57812-1.26953-1.1875-1.26953-1.98828 0-1.26953 1.04688-2.10547 2.65625-2.10547.41406 0 .69531.0469 1.29297.1875l.66016.15625.1875.0352v1.90625h-.50391l-.58594-1.56641c-.23828-.0703-.30859-.082-.68359-.082-1.12891 0-1.67188.35156-1.67188 1.08203 0 .48438.14453.66016.95313 1.1875l1.30859.84766c.64453.42187.8086.5625 1.00781.86718.22657.33204.35547.80079.35547 1.23829 0 1.28125-1.07031 2.16015-2.625 2.16015-.43359 0-1.45703-.16406-2.41015-.39844"/><path d="m109.02309 47.214845v3.0586l.98828.41015v.32813h-3.50391v-.32813l.98828-.41015v-6.36328l-.98828-.41016v-.32813h3.50391v.32813l-.98828.41016v2.71484h3.38671v-2.71484l-.98828-.41016v-.32813h3.50782v.32813l-.98829.41016v6.36328l.98829.41015v.32813h-3.50782v-.32813l.98828-.41015v-3.0586zm0 0"/><path d="m118.79652 43.910165v4.76171c0 1.27344.55078 1.8711 1.75391 1.8711.5625 0 .99609-.11719 1.31641-.35156.44531-.34375.60937-.80079.60937-1.67188v-4.60937l-.98828-.41016v-.32813h2.87109v.32813l-1 .41016v4.39843c0 1.10547-.30468 1.78907-1 2.28125-.57812.40235-1.26953.60157-2.14062.60157-1.89063 0-2.94141-.90625-2.94141-2.50391v-4.77734l-.99609-.41016v-.32813h3.45703v.32813zm0 0"/><path d="m131.70668 43.910165v4.76171c0 1.27344.55469 1.8711 1.75391 1.8711.5664 0 1-.11719 1.3164-.35156.44922-.34375.61328-.80079.61328-1.67188v-4.60937l-.98828-.41016v-.32813h2.86719v.32813l-.99609.41016v4.39843c0 1.10547-.3086 1.78907-1 2.28125-.57813.40235-1.27344.60157-2.14454.60157-1.89062 0-2.9375-.90625-2.9375-2.50391v-4.77734l-1-.41016v-.32813h3.45704v.32813zm0 0"/><path d="m140.38637 44.875005v5.39844l.9414.41015v.32813h-2.6914v-.32813l.98828-.41015v-6.36328l-.98828-.41016v-.32813h2.30468l4.00782 5.30079v-4.5625l-.92969-.41016v-.32813h2.68359v.32813l-.98828.41016v7.22265h-.60156zm0 0"/><path d="m149.08168 50.273445v-6.36328l-.98828-.41016v-.32813h3.50781v.32813l-.98828.41016v6.36328l.98828.41015v.32813h-3.50781v-.32813zm0 0"/><path d="m156.39809 51.132815-2.78516-7.23437-.90625-.39844v-.32813h3.39844v.32813l-.89453.39844 1.55078 4.10547c.16406.41015.23437.64453.3789 1.15234l2.13672-5.25781-.89062-.39844v-.32813h2.6914v.32813l-.90625.39844-3.17578 7.23437zm0 0"/><path d="m164.68324 47.332035v3.15234h2.48047l.68359-1.33984h.48047l-.14062 1.86719h-6.02344v-.32813l.99219-.41015v-6.36328l-.99219-.41016v-.32813h5.96484v1.87891h-.45703l-.58984-1.35156h-2.39844v3.04687h1.97656l.42188-1.05859h.47266v2.63281h-.47266l-.42188-.98828zm0 0"/><path d="m172.35121 46.804695h.54297c.82031 0 1.38281-.66016 1.38281-1.60157 0-.92578-.53906-1.5039-1.41015-1.5039h-.51563zm0 .51562v2.95313l.98828.41015v.33203h-3.5039v-.33203l.98828-.41015v-6.36328l-.98828-.41016v-.32813h3.5039c.94922 0 1.42188.125 1.86719.50391.4375.33984.64844.82422.64844 1.39844 0 1.05859-.66016 1.82422-1.76172 2.04687l2.16015 3.17578.95313.38672v.33203h-2.26953l-2.33985-3.69531zm0 0"/><path d="m178.41371 50.671875v-1.9375h.52734l.61329 1.63282c.24609.0586.32812.0586.70703.0586 1.1875 0 1.72656-.36719 1.72656-1.16406 0-.51953-.17578-.75391-.91797-1.2461l-1.32812-.87109c-.88282-.57812-1.26954-1.1875-1.26954-1.98828 0-1.26953 1.04688-2.10547 2.66016-2.10547.41016 0 .69141.0469 1.28906.1875l.66016.15625.1875.0352v1.90625h-.50391l-.58984-1.56641c-.23438-.0703-.30469-.082-.67969-.082-1.1289 0-1.67187.35156-1.67187 1.08203 0 .48438.14453.66016.95312 1.1875l1.30469.84766c.64844.42187.8125.5625 1.01172.86718.22265.33204.35156.80079.35156 1.23829 0 1.28125-1.07031 2.16015-2.62109 2.16015-.4336 0-1.45703-.16406-2.41016-.39844"/><path d="m185.89809 50.273445v-6.36328l-.98829-.41016v-.32813h3.50391v.32813l-.98828.41016v6.36328l.98828.41015v.32813h-3.50391v-.32813zm0 0"/><path d="m193.81605 43.757815v6.51563l1.29688.41015v.32813h-4.10547v-.32813l1.29297-.41015v-6.51563h-1.46094l-.57422 1.63281h-.48437v-2.21875h6.55078v2.21875h-.49219l-.58984-1.63281zm0 0"/><path d="m201.55043 46.484375 1.69141-2.59765-.82422-.38672v-.32813h2.63672v.32813l-.91797.38672-2.1875 3.22265v3.16407l1.29297.41015v.33203h-4.10157v-.32031l1.29297-.42187v-2.8711l-2.22265-3.51562-.88282-.38672v-.32813h3.45703v.32813l-.84765.38672zm0 0"/></g></svg>