<?xml version="1.0" encoding="UTF-8" standalone="no"?>
<svg
   xmlns:dc="http://purl.org/dc/elements/1.1/"
   xmlns:cc="http://creativecommons.org/ns#"
   xmlns:rdf="http://www.w3.org/1999/02/22-rdf-syntax-ns#"
   xmlns:svg="http://www.w3.org/2000/svg"
   xmlns="http://www.w3.org/2000/svg"
   xmlns:sodipodi="http://sodipodi.sourceforge.net/DTD/sodipodi-0.dtd"
   xmlns:inkscape="http://www.inkscape.org/namespaces/inkscape"
   id="svgRoot"
   viewBox="0 0 100 100"
   xml:space="preserve"
   sodipodi:version="0.32"
   inkscape:version="0.46"
   width="256"
   height="168.33099"
   sodipodi:docname="Nagoya University.svg"
   inkscape:output_extension="org.inkscape.output.svg.inkscape"
   version="1.0"><metadata
   id="metadata60"><rdf:RDF><cc:Work
       rdf:about=""><dc:format>image/svg+xml</dc:format><dc:type
         rdf:resource="http://purl.org/dc/dcmitype/StillImage" /></cc:Work></rdf:RDF></metadata><sodipodi:namedview
   inkscape:window-height="667"
   inkscape:window-width="886"
   inkscape:pageshadow="2"
   inkscape:pageopacity="0.0"
   guidetolerance="10.0"
   gridtolerance="10.0"
   objecttolerance="10.0"
   borderopacity="1.0"
   bordercolor="#666666"
   pagecolor="#ffffff"
   id="base"
   showgrid="false"
   inkscape:zoom="2.7445926"
   inkscape:cx="128"
   inkscape:cy="127.88783"
   inkscape:window-x="66"
   inkscape:window-y="0"
   inkscape:current-layer="svgRoot" />
<defs
   id="defs3"><inkscape:perspective
   sodipodi:type="inkscape:persp3d"
   inkscape:vp_x="0 : 526.18109 : 1"
   inkscape:vp_y="0 : 1000 : 0"
   inkscape:vp_z="744.09448 : 526.18109 : 1"
   inkscape:persp3d-origin="372.04724 : 350.78739 : 1"
   id="perspective62" />


























</defs>
<g
   id="g2431"
   transform="matrix(2.2698279,0,0,2.269823,11.715214,1.5972406e-5)"><path
     d="M 24.341282,11.471583 C 25.918625,11.471583 27.513893,11.471583 29.091237,11.471583 C 29.700665,11.489507 30.292169,11.489507 30.901597,11.507432 C 31.923286,11.453659 33.070445,11.453659 34.074209,11.543281 C 34.074209,11.955541 33.841192,12.385725 33.715722,12.762137 C 33.33931,13.855523 32.747806,15.002682 32.711958,16.221538 L 34.450621,16.221538 C 34.450621,15.934749 35.974191,11.83007 36.117586,11.740448 C 36.511922,11.435734 39.684534,11.668751 40.401508,11.686675 C 43.179784,11.740448 45.868438,11.614978 48.628789,11.686675 C 48.503319,12.11686 48.377848,12.547045 48.234454,12.977229 C 47.929739,13.80175 47.625025,14.644195 47.320311,15.48664 C 46.316547,18.336613 45.312783,21.204511 44.291094,24.054484 C 44.129775,24.520517 42.892994,27.764826 43.036389,27.979919 C 43.179784,28.177087 45.420329,28.123314 45.850514,28.141238 C 45.850514,29.091229 44.55996,30.578951 43.98638,31.349698 C 41.853381,34.181747 39.2185,36.744931 36.440225,38.967551 C 35.526082,39.70245 34.558167,40.419424 33.536478,40.957155 C 32.80158,41.333567 32.048756,41.7996 31.260085,42.068466 C 30.54311,42.301482 29.826136,42.552423 29.091237,42.78544 C 28.947842,42.803364 28.786523,42.839213 28.643128,42.857137 C 28.105397,42.892986 27.585591,42.946759 27.065784,42.982608 C 24.914861,42.910911 23.498837,41.692054 22.602619,39.917542 C 22.351678,39.917542 20.720561,41.261869 20.326225,41.494886 C 19.161142,42.158087 18.031907,42.534499 16.651731,42.821289 C 16.597958,42.821289 16.544185,42.839213 16.490412,42.857137 C 16.006454,42.839213 15.540421,42.839213 15.056463,42.821289 C 13.174405,42.516575 11.435742,41.226021 11.543289,39.093022 C 11.597062,37.874165 12.116868,36.90625 12.49328,35.848713 C 13.013086,34.450613 13.514968,33.052513 14.01685,31.672337 C 15.630043,27.280869 17.243235,22.8894 18.856427,18.497932 L 19.555478,16.47248 C 19.89604,15.540413 20.254528,14.62627 20.59509,13.712128 C 20.863956,12.977229 21.025275,12.027238 21.616779,11.471583 C 22.27998,11.650827 23.570534,11.453659 24.341282,11.471583 M 5.9329639,0.14338756 C 5.5207036,0.14338756 5.0367459,0.19716064 4.7141074,0.37640424 C 3.5669484,0.37640424 1.8999829,1.1650761 0.91414312,1.6131851 C -4.0867533,3.9254275 -8.8546331,8.6036855 -11.848001,13.335717 C -12.421581,14.249859 -13.640437,15.845127 -13.765908,16.902664 C -12.70837,16.902664 -11.579136,16.88474 -10.593296,16.974362 C -10.718767,17.386622 -10.844237,17.780958 -10.969708,18.175294 C -11.274422,19.017739 -11.579136,19.842259 -11.88385,20.66678 C -12.780068,23.140341 -13.676286,25.595979 -14.572504,28.051616 C -15.020613,29.252548 -15.468722,30.471405 -15.916831,31.672337 C -16.149848,32.281765 -16.454562,32.909118 -16.562108,33.572319 L -16.633805,33.572319 L -16.633805,33.644016 C -11.650833,33.644016 -6.6678612,33.733638 -1.6848891,33.644016 C -0.80659544,33.661941 0.0716982,33.679865 0.94999184,33.715714 C 2.5631842,33.661941 4.1405279,33.733638 5.7716447,33.715714 C 7.7433243,33.679865 9.7508526,33.661941 11.740457,33.733638 C 11.597062,34.217596 11.435742,34.683629 11.292348,35.167587 C 10.772541,36.762855 10.091415,38.232653 10.324432,40.132635 C 10.378205,40.544895 10.557449,40.939231 10.718768,41.297718 C 12.045171,44.309011 16.364941,44.506179 19.107369,43.412793 C 20.18283,42.964684 20.935653,42.337331 21.921493,41.727903 C 21.921493,41.620357 21.903569,41.656205 21.99319,41.656205 C 21.99319,41.7996 22.656392,42.444877 22.799787,42.588272 C 25.291273,44.792968 28.840296,44.111843 31.726118,43.143927 C 32.604412,42.857137 33.33931,42.355255 34.163831,41.978844 C 35.561931,41.333567 36.816636,40.329803 38.017568,39.343963 C 41.172256,36.727006 44.111851,33.554395 46.173152,30.130842 C 46.764656,29.162926 47.499555,28.159162 47.732571,27.012003 L 47.571252,27.012003 C 47.571252,27.119549 47.607101,27.083701 47.499555,27.083701 L 47.499555,27.012003 L 47.35616,27.012003 C 47.35616,27.119549 47.374084,27.083701 47.284462,27.083701 L 47.284462,27.173322 C 47.248614,27.155398 47.230689,27.155398 47.212765,27.137474 C 46.531639,26.868608 45.438253,27.012003 44.631657,27.012003 L 44.631657,26.940306 C 44.452414,26.940306 44.846749,25.97239 44.900523,25.811071 C 45.993909,22.710157 47.087294,19.627167 48.18068,16.526253 C 48.915579,14.482876 49.632554,12.457423 50.367452,10.414046 L 50.295755,10.414046 C 50.295755,10.270651 49.758024,10.342348 49.614629,10.342348 L 43.57412,10.342348 C 38.411904,10.324424 33.267613,10.324424 28.105397,10.3065 C 27.406347,10.3065 26.707297,10.3065 25.990323,10.3065 C 24.66392,10.3065 23.283744,10.342348 21.99319,10.270651 C 21.99319,9.6791471 22.405451,8.8546265 22.584694,8.2989714 C 22.781862,7.6716188 22.996955,7.0263418 23.194123,6.3989892 C 23.355442,5.9688046 23.570534,5.4489981 23.624307,4.9829648 C 23.875248,2.7961928 22.297905,1.0575299 20.46962,0.43017732 C 19.716797,0.16131192 17.440403,-0.1434022 16.723429,0.3047068 C 15.665891,0.3047068 12.61875,1.5235633 11.973473,2.258462 C 11.525364,2.258462 11.202726,1.5056389 10.862163,1.2546979 C 10.629146,1.0933786 10.378205,0.9320594 10.145189,0.77074016 C 9.1414244,0.215085 8.0121897,0.08961448 6.7574845,-7.32e-06 C 6.4886191,0.05376576 6.2018293,0.10753884 5.9329639,0.14338756 M 10.987633,4.2301416 L 11.131028,4.2301416 C 11.131028,4.1405198 12.116868,3.5131672 12.278187,3.4056211 C 14.393262,1.8641261 17.906436,0.25093372 20.46962,1.9895966 C 21.007351,2.3480838 21.45546,2.8499659 21.742249,3.4235454 C 22.029039,4.0150493 22.262056,4.6782506 22.208283,5.4310738 C 22.172434,6.040502 21.86772,6.5423841 21.688476,7.0980392 C 21.240367,8.2989714 20.810183,9.4999035 20.362074,10.682911 C 18.426243,15.880976 16.490412,21.07904 14.554581,26.277104 L 13.03101,30.417632 C 12.780069,31.15253 12.61875,32.0129 12.045171,32.586479 L 8.4961474,32.586479 L -0.48395696,32.586479 L -0.48395696,32.514782 L -0.5556544,32.514782 C -0.4660326,32.210068 -0.3764108,31.905353 -0.26886464,31.600639 C 0.0716982,30.686497 0.41226104,29.75443 0.75282388,28.840288 C 0.84244568,28.607271 1.057538,28.212935 0.98584056,27.94407 C 0.93206748,27.711053 0.39433668,27.693129 0.19716872,27.764826 L -0.17924284,27.764826 C -0.71697364,29.198775 -1.2547044,30.632724 -1.8103596,32.048748 C -1.882057,32.192143 -1.9358301,32.389311 -2.0971494,32.478933 C -2.5452584,32.729874 -3.3877033,32.586479 -3.9612828,32.604404 C -6.2197522,32.586479 -8.4782215,32.586479 -10.754615,32.568555 C -11.59706,32.586479 -12.547051,32.514782 -13.389496,32.568555 C -13.765908,32.586479 -14.321563,32.640252 -14.662126,32.514782 C -14.841369,32.514782 -14.715899,32.227992 -14.697974,32.13837 C -14.339487,30.919514 -13.801756,29.772355 -13.407421,28.589347 C -12.421581,25.882769 -11.435741,23.17619 -10.467825,20.469612 C -10.127263,19.537545 -9.7687754,18.605478 -9.4282126,17.673412 C -9.1951959,17.099832 -8.8904818,16.47248 -8.7829356,15.845127 C -9.7866998,15.827203 -10.790464,15.791354 -11.794228,15.773429 C -11.794228,15.056455 -10.844237,13.92722 -10.449901,13.335717 C -9.7329267,12.242331 -8.8725574,11.238566 -7.9763394,10.234802 C -5.1980636,7.0980392 -1.8103596,3.9792006 1.9358316,2.3660082 C 2.7424278,2.007521 3.549024,1.6490338 4.4273177,1.4697902 C 4.9112754,1.3801684 5.3773088,1.308471 5.8433421,1.2188492 C 6.1301319,1.2009248 6.3989973,1.1650761 6.685787,1.1292274 C 8.7291641,1.2009248 10.342356,2.3660082 10.987633,4.2301416"
     class="ps00 ps10"
     id="path51"
     style="fill:#147343;stroke-width:0.30000001;stroke-miterlimit:4" /><path
     d="M 32.263849,18.336613 C 32.550639,18.336613 32.891201,18.318689 33.124218,18.426235 C 34.127982,18.874344 32.012908,21.419603 32.568563,22.19035 C 33.160067,23.014871 38.967559,21.957334 39.397744,22.799779 C 39.397744,22.853552 39.415668,22.8894 39.433593,22.943173 C 39.487366,23.552602 38.716618,25.112021 38.465677,25.739374 C 37.533611,28.195011 36.619468,30.650648 35.687402,33.106286 C 35.400612,33.733638 34.827032,33.877033 34.145907,33.82326 C 34.03836,33.805336 33.930814,33.859109 33.930814,33.733638 L 33.841192,33.733638 C 33.877041,32.747798 34.307226,32.066673 34.594016,31.224228 C 35.328914,29.270473 36.063813,27.298793 36.798712,25.345038 C 36.924182,24.807307 36.70909,24.502593 36.189284,24.466744 C 35.490234,24.412971 34.755335,24.377122 34.271377,24.807307 C 33.733646,25.27334 33.590251,26.13371 33.357235,26.761062 C 32.80158,28.177087 32.263849,29.593111 31.708194,31.009135 C 31.385555,31.72611 31.260085,32.676101 30.776127,33.321378 C 30.41764,33.787411 29.539346,34.074201 29.001615,33.715714 C 28.678977,33.518546 28.840296,33.106286 28.929918,32.819496 C 29.879909,30.32801 30.811976,27.836524 31.761967,25.345038 C 31.833664,24.968626 31.779891,24.663912 31.421404,24.520517 C 30.740278,24.251652 29.252556,24.377122 28.750674,24.86108 C 28.302565,25.291265 28.087473,26.330878 27.854456,26.922381 C 27.04786,29.001607 26.241264,31.098757 25.434668,33.177983 C 25.327121,33.393075 25.129953,33.590243 24.932786,33.697789 C 24.645996,33.841184 23.427139,34.020428 23.427139,33.500622 C 23.301669,33.160059 23.857324,32.084597 24.000719,31.744034 C 24.269584,30.991211 24.556374,30.220464 24.825239,29.449716 C 25.345046,28.105389 25.864852,26.761062 26.366734,25.43466 C 26.510129,25.022399 26.47428,24.592215 25.990323,24.484668 C 25.327121,24.341274 24.305433,24.359198 23.857324,24.789383 C 23.337517,25.255416 23.104501,26.223331 22.889408,26.850684 C 22.333753,28.320481 21.778098,29.790279 21.204519,31.242152 C 20.935653,31.959127 20.792258,32.855345 20.290376,33.446848 C 19.967738,33.82326 19.107369,34.038352 18.677184,33.715714 C 18.65926,33.697789 18.623411,33.679865 18.605486,33.661941 C 18.426243,33.428924 18.515865,33.12421 18.605486,32.891193 C 19.465856,30.596875 20.344149,28.302557 21.204519,26.008239 C 21.616779,25.040324 21.813947,23.839391 22.423375,22.979022 C 22.746014,22.512989 23.229971,22.47714 23.803551,22.47714 C 24.162038,22.35167 24.628071,22.459216 25.004483,22.459216 C 26.492205,22.459216 27.979927,22.47714 29.467649,22.47714 C 29.71859,22.333745 30.041228,22.279972 30.25632,22.06488 C 30.561035,21.77809 30.632732,21.36583 30.794051,20.989418 C 31.062917,20.308293 31.224236,19.39415 31.708194,18.820571 C 31.887437,18.659251 32.066681,18.497932 32.263849,18.336613"
     class="ps00 ps10"
     id="path53"
     style="fill:#147343;stroke-width:0.30000001;stroke-miterlimit:4" /><path
     d="M 1.4160252,19.39415 C 1.1650842,19.788486 0.23301744,22.100729 0.59150464,22.459216 C 0.8782944,22.728081 7.6716268,22.710157 8.5678448,22.602611 C 8.7650128,22.584686 8.9084077,22.530913 9.0518026,22.423367 C 9.4819872,22.136577 10.378205,19.896032 10.378205,19.376226 C 10.378205,19.125285 10.216886,18.910192 9.9838693,18.838495 C 9.3565167,18.659251 8.227282,18.784722 7.5103076,18.784722 L 2.0792265,18.784722 C 1.8462098,18.98189 1.5773444,19.125285 1.4160252,19.39415 M 7.9584166,11.399886 C 7.6716268,11.686675 7.080123,12.923456 7.4923832,13.281943 C 7.8867192,13.640431 11.79423,13.532884 12.314036,13.22817 C 12.744221,12.959305 13.013086,12.242331 13.102708,11.758373 C 13.138557,11.543281 13.120632,11.310264 12.959313,11.184793 C 12.475355,10.84423 9.3923654,11.023474 8.5678448,11.023474 C 8.3706769,11.148945 8.1735089,11.274415 7.9584166,11.399886 M 10.073491,16.902664 C 9.5536846,17.081908 8.7829372,16.974362 8.1914333,16.974362 C 6.5782409,16.974362 4.9650485,16.974362 3.3697804,16.974362 C 2.5631842,16.974362 1.6311175,16.866815 0.8782944,17.01021 C 0.59150464,17.063983 0.3405636,17.243227 0.16132,17.458319 C -0.14339412,17.816807 -0.286789,18.336613 -0.43018388,18.784722 C -0.68112492,19.501696 -0.94999032,20.236595 -1.2188557,20.95357 C -1.3980993,21.401679 -2.3480904,23.678072 -2.2046955,24.054484 C -2.0433763,24.44882 -1.6490404,24.430895 -1.2367801,24.44882 C 2.5273355,24.44882 6.3093755,24.44882 10.073491,24.44882 C 10.360281,24.215803 10.629146,24.108257 10.826314,23.767694 C 11.184801,22.76393 11.561213,21.760166 11.9197,20.774326 C 12.278187,19.770562 12.815918,18.766798 13.013086,17.727185 C 13.048935,17.530017 13.013086,17.332849 12.887616,17.189454 C 12.564977,16.830967 10.664995,16.956437 10.073491,16.902664 M 0.03584948,8.9083996 C -0.43018388,9.1414163 -0.87829288,9.3385842 -1.0575365,9.8942394 C -1.1471583,10.181029 -1.2905532,10.593289 -1.0037634,10.84423 C -0.734898,11.095172 -0.12546976,11.00555 0.26886616,11.00555 C 1.057538,11.00555 4.6782587,10.862155 5.0008972,11.238566 C 5.2159895,11.489507 5.0546703,11.937616 4.9650485,12.206482 C 4.8216536,12.582893 4.6782587,13.013078 4.3197715,13.22817 C 3.6027971,13.658355 0.35848796,13.497036 -0.6452762,13.497036 C -1.2009314,13.479111 -1.8641327,13.443263 -2.276393,13.765901 C -2.5631827,13.980993 -2.7065776,14.339481 -2.8499725,14.662119 C -3.172611,15.558337 -3.4952494,16.454555 -3.8178879,17.350773 C -4.4631649,19.071512 -5.1084418,20.810175 -5.7357944,22.530913 C -5.915038,22.979022 -6.2914496,23.58845 -6.1480547,24.126181 C -6.0225842,24.538442 -5.3414585,24.520517 -4.9471226,24.520517 C -4.5886354,24.323349 -4.2659969,24.233727 -4.0329802,23.87524 C -3.8358123,23.391282 -3.6565687,22.907325 -3.4594007,22.423367 C -2.9037456,20.935645 -2.3660148,19.429999 -1.8103596,17.942277 C -1.6131916,17.350773 -1.3622506,16.31116 -0.89621724,15.880976 C -0.71697364,15.719656 -0.51980568,15.61211 -0.25094028,15.576262 C 1.1292354,15.558337 2.5094112,15.558337 3.8895869,15.540413 L 13.174405,15.540413 C 13.389498,15.432867 13.60459,15.32532 13.819682,15.19985 C 14.464959,14.662119 14.626279,13.586658 14.930993,12.833834 C 15.146085,12.314028 16.257395,9.6432984 16.006454,9.2310381 C 15.665891,8.6933073 12.61875,8.9083996 11.812154,8.9083996 C 8.9980295,8.9083996 6.183905,8.9083996 3.3697804,8.926324 C 2.9575202,8.926324 2.5631842,8.9083996 2.150924,8.926324 C 1.505647,8.9442483 0.66320208,9.0876432 0.03584948,8.9083996 M 6.1480562,2.3480838 C 6.5603165,2.4018569 7.0263499,2.3660082 7.4206858,2.45563 C 8.6395423,2.7603441 9.4999116,3.6207134 10.037642,4.7320237 C 10.163113,5.0905109 10.306508,5.4489981 10.449903,5.8074853 L 10.5216,5.8074853 L 10.5216,5.7357879 C 11.238574,5.2159814 11.955549,4.696175 12.654599,4.1763686 C 13.461195,3.6565621 14.30364,3.3159993 15.146085,2.903739 C 15.271555,2.8499659 15.737589,2.7603441 15.737589,2.6348736 C 15.845135,2.6348736 15.880984,2.5990249 15.880984,2.7244954 C 15.98853,2.7244954 15.970606,2.7424198 15.970606,2.6348736 C 16.257395,2.5631762 16.526261,2.4914787 16.866824,2.4914787 C 17.010218,2.4735544 17.171538,2.4377056 17.314933,2.4197813 C 17.888512,2.1509159 18.78473,2.45563 19.268688,2.6707223 C 22.100737,3.9792006 20.953578,6.0763507 20.164906,8.2989714 C 17.314933,16.042295 14.447035,23.785618 11.579137,31.528942 C 11.148953,31.511018 8.872559,31.654412 8.872559,31.31385 C 8.7291641,31.403471 8.6574666,31.475169 8.478223,31.511018 C 7.6178538,31.636488 6.5065434,31.546866 5.6282498,31.528942 C 4.2122254,31.511018 2.8141253,31.511018 1.3981008,31.511018 C 1.2905547,31.493093 0.82452132,31.242152 1.0216893,31.242152 C 1.3801765,30.256312 1.7386637,29.288397 2.0971509,28.302557 C 2.2763945,27.800675 2.599033,27.209171 2.599033,26.635592 C 1.5414957,26.617667 0.48395848,26.599743 -0.57357876,26.581819 C -0.66320056,26.581819 -0.86036852,26.492197 -0.86036852,26.635592 C -1.1471583,27.083701 -1.2726288,27.621431 -1.433948,28.123314 C -1.7207378,28.92991 -2.0254519,29.736506 -2.330166,30.543102 C -2.4735609,30.865741 -2.6169558,31.206303 -2.7424263,31.528942 L -13.317799,31.528942 L -13.317799,31.457244 L -13.389496,31.457244 C -13.264026,30.847816 -12.977236,30.274237 -12.762144,29.700657 C -12.385732,28.678969 -12.00932,27.65728 -11.632909,26.635592 C -10.629145,23.87524 -9.6074562,21.114889 -8.603692,18.354537 C -8.155583,17.135681 -7.7253984,15.934749 -7.2772894,14.715892 L -7.3489868,14.715892 L -7.3489868,14.644195 L -9.9121703,14.644195 L -9.9121703,14.482876 L -9.8404729,14.482876 C -9.4282126,13.604582 -8.7112382,12.851759 -8.0838856,12.098936 C -5.0725931,8.4423662 -1.5952673,4.8754186 2.7424278,3.2084531 C 3.6027971,2.8678903 4.5348638,2.4914787 5.5565524,2.4914787 C 5.7537203,2.4377056 5.9508883,2.3839326 6.1480562,2.3480838"
     class="ps00 ps10"
     id="path55"
     style="fill:#147343;stroke-width:0.30000001;stroke-miterlimit:4" /><g
     id="xfrm1"
     transform="matrix(179.2436,0,0,-179.2436,-45.545798,141.36942)">
<g
   id="frm2"
   transform="scale(1e-2,1e-2)">
</g>
</g></g>
</svg>