<?xml version="1.0" encoding="UTF-8" standalone="no"?>
<!-- Created with Inkscape (http://www.inkscape.org/) -->
<svg
   xmlns:dc="http://purl.org/dc/elements/1.1/"
   xmlns:cc="http://creativecommons.org/ns#"
   xmlns:rdf="http://www.w3.org/1999/02/22-rdf-syntax-ns#"
   xmlns:svg="http://www.w3.org/2000/svg"
   xmlns="http://www.w3.org/2000/svg"
   xmlns:sodipodi="http://sodipodi.sourceforge.net/DTD/sodipodi-0.dtd"
   xmlns:inkscape="http://www.inkscape.org/namespaces/inkscape"
   width="73"
   height="78"
   id="svg3049"
   sodipodi:version="0.32"
   inkscape:version="0.46"
   version="1.0"
   sodipodi:docname="Universität Ōsaka Logo.svg"
   inkscape:output_extension="org.inkscape.output.svg.inkscape">
  <defs
     id="defs3051">
    <inkscape:perspective
       sodipodi:type="inkscape:persp3d"
       inkscape:vp_x="0 : 526.18109 : 1"
       inkscape:vp_y="0 : 1000 : 0"
       inkscape:vp_z="744.09448 : 526.18109 : 1"
       inkscape:persp3d-origin="372.04724 : 350.78739 : 1"
       id="perspective3057" />
  </defs>
  <sodipodi:namedview
     id="base"
     pagecolor="#ffffff"
     bordercolor="#666666"
     borderopacity="1.0"
     inkscape:pageopacity="0.0"
     inkscape:pageshadow="2"
     inkscape:zoom="3.959798"
     inkscape:cx="39.200147"
     inkscape:cy="-6.6343308"
     inkscape:document-units="px"
     inkscape:current-layer="g3103"
     showgrid="false"
     inkscape:window-width="1280"
     inkscape:window-height="968"
     inkscape:window-x="-4"
     inkscape:window-y="-4" />
  <metadata
     id="metadata3054">
    <rdf:RDF>
      <cc:Work
         rdf:about="">
        <dc:format>image/svg+xml</dc:format>
        <dc:type
           rdf:resource="http://purl.org/dc/dcmitype/StillImage" />
      </cc:Work>
    </rdf:RDF>
  </metadata>
  <g
     inkscape:label="Ebene 1"
     inkscape:groupmode="layer"
     id="layer1"
     transform="translate(-232.33717,-167.89817)">
    <g
       id="g3103"
       transform="translate(0.2657384,0.250278)">
      <g
         id="q78"
         class="ps00"
         style="fill:none;stroke:none"
         transform="matrix(1.2499487,0,0,-1.2499487,-403.75535,280.70679)">
<g
   id="xfrm79"
   transform="translate(513.3789,32.2275)">
<path
   d="M 0,0 C 0,-0.826 0.515,-1.393 1.575,-1.678 C 1.76,-1.727 2.356,-1.92 2.356,-2.307 C 2.356,-2.664 2.263,-2.977 1.725,-2.977 C 1.189,-2.977 1.096,-2.57 1.096,-2.244 L -0.057,-2.244 C -0.057,-3.346 0.727,-3.979 1.725,-3.979 C 2.742,-3.979 3.491,-3.309 3.491,-2.27 C 3.491,-1.455 2.941,-0.807 1.803,-0.553 C 1.191,-0.416 1.2,-0.133 1.182,0.043 C 1.145,0.414 1.452,0.576 1.75,0.576 C 2.041,0.576 2.319,0.471 2.319,0.018 L 3.368,0.018 C 3.368,0.9 2.742,1.512 1.725,1.512 C 0.729,1.512 0,0.963 0,0"
   class="ps02"
   id="path276"
   style="fill:#231f20;fill-rule:nonzero;stroke:none" />

</g>

</g>
      <g
         id="q80"
         class="ps00"
         style="fill:none;stroke:none"
         transform="matrix(1.2499487,0,0,-1.2499487,-403.75535,280.70679)">
<g
   id="xfrm81"
   transform="translate(554.2002,32.2275)">
<path
   d="M 0,0 C 0,-0.826 0.515,-1.393 1.577,-1.678 C 1.76,-1.727 2.358,-1.92 2.358,-2.307 C 2.358,-2.664 2.264,-2.977 1.727,-2.977 C 1.191,-2.977 1.095,-2.57 1.095,-2.244 L -0.056,-2.244 C -0.056,-3.346 0.728,-3.979 1.727,-3.979 C 2.742,-3.979 3.492,-3.309 3.492,-2.27 C 3.492,-1.455 2.94,-0.807 1.803,-0.553 C 1.193,-0.416 1.199,-0.133 1.181,0.043 C 1.145,0.414 1.452,0.576 1.751,0.576 C 2.042,0.576 2.319,0.471 2.319,0.018 L 3.369,0.018 C 3.369,0.9 2.742,1.512 1.727,1.512 C 0.729,1.512 0,0.963 0,0"
   class="ps02"
   id="path280"
   style="fill:#231f20;fill-rule:nonzero;stroke:none" />

</g>

</g>
      <g
         id="q82"
         class="ps00"
         style="fill:none;stroke:none"
         transform="matrix(1.2499487,0,0,-1.2499487,-403.75535,280.70679)">
<g
   id="xfrm83"
   transform="translate(510.0449,31.04)">
<path
   d="M 0,0 C 0,0.992 0.203,1.734 0.867,1.734 C 1.531,1.734 1.734,0.992 1.734,0 C 1.734,-0.996 1.552,-1.738 0.867,-1.738 C 0.185,-1.738 0,-0.996 0,0 M -1.15,0 C -1.15,-1.648 -0.265,-2.75 0.867,-2.75 C 1.999,-2.75 2.885,-1.615 2.885,0 C 2.885,1.611 1.999,2.684 0.867,2.684 C -0.265,2.684 -1.15,1.646 -1.15,0"
   class="ps02"
   id="path284"
   style="fill:#231f20;fill-rule:nonzero;stroke:none" />

</g>

</g>
      <path
         d="M 272.70438,245.14325 L 274.06683,245.14325 L 274.06683,238.62227 L 272.70438,238.62227 L 272.70438,245.14325 z"
         class="ps02"
         id="path286"
         style="fill:#231f20;fill-rule:nonzero;stroke:none" />
      <path
         d="M 294.141,245.14325 L 295.50345,245.14325 L 295.50345,238.62227 L 294.141,238.62227 L 294.141,245.14325 z"
         class="ps02"
         id="path288"
         style="fill:#231f20;fill-rule:nonzero;stroke:none" />
      <g
         id="q84"
         class="ps02"
         style="fill:#231f20;fill-rule:nonzero;stroke:none"
         transform="matrix(1.2499487,0,0,-1.2499487,-403.75535,280.70679)">
<g
   id="xfrm85"
   transform="translate(540.292,33.6768)">
<path
   d="M 0,0 L -1.092,0 L -1.089,-2.883 L -2.42,-0.006 L -3.512,-0.006 L -3.512,-5.225 L -2.42,-5.225 L -2.42,-2.361 L -1.01,-5.227 L -1.003,-5.227 L -0.002,-5.227 L 0.004,-5.227 L 0,0 z"
   class="ps02"
   id="path292"
   style="fill:#231f20;fill-rule:nonzero;stroke:none" />

</g>

</g>
      <g
         id="q86"
         class="ps02"
         style="fill:#231f20;fill-rule:nonzero;stroke:none"
         transform="matrix(1.2499487,0,0,-1.2499487,-403.75535,280.70679)">
<g
   id="xfrm87"
   transform="translate(549.668,32.7432)">
<path
   d="M 0,0 L 0,0.986 L -1.471,0.986 L -2.219,0.986 L -2.562,0.986 L -2.562,-4.217 L -2.219,-4.217 L -1.471,-4.217 L 0,-4.217 L 0,-3.232 L -1.471,-3.232 L -1.471,-2.027 L 0,-2.027 L 0,-1.043 L -1.471,-1.043 L -1.471,0 L 0,0 z"
   class="ps02"
   id="path296"
   style="fill:#231f20;fill-rule:nonzero;stroke:none" />

</g>

</g>
      <g
         id="q88"
         class="ps02"
         style="fill:#231f20;fill-rule:nonzero;stroke:none"
         transform="matrix(1.2499487,0,0,-1.2499487,-403.75535,280.70679)">
<g
   id="xfrm89"
   transform="translate(562.7207,33.6514)">
<path
   d="M 0,0 L -0.726,0 L -0.726,0.018 L -1.816,0.018 L -1.816,0 L -2.629,0 L -2.629,-1.082 L -1.816,-1.082 L -1.816,-5.199 L -0.726,-5.199 L -0.726,-1.082 L 0,-1.082 L 0,0 z"
   class="ps02"
   id="path300"
   style="fill:#231f20;fill-rule:nonzero;stroke:none" />

</g>

</g>
      <g
         id="q90"
         class="ps02"
         style="fill:#231f20;fill-rule:nonzero;stroke:none"
         transform="matrix(1.2499487,0,0,-1.2499487,-403.75535,280.70679)">
<g
   id="xfrm91"
   transform="translate(524.1113,28.4521)">
<path
   d="M 0,0 L 1.175,0 L -0.32,3.174 L 1.115,5.219 L -0.093,5.219 L -1.352,3.434 L -1.352,5.219 L -2.442,5.219 L -2.442,0 L -1.352,0 L -1.352,1.701 L -1.036,2.152 L 0,0 z"
   class="ps02"
   id="path304"
   style="fill:#231f20;fill-rule:nonzero;stroke:none" />

</g>

</g>
      <g
         id="q92"
         class="ps02"
         style="fill:#231f20;fill-rule:nonzero;stroke:none"
         transform="matrix(1.2499487,0,0,-1.2499487,-403.75535,280.70679)">
<g
   id="xfrm93"
   transform="translate(527.1621,30.3721)">
<path
   d="M 0,0 L 0.472,1.547 L 0.952,0 L 0,0 z M 1.543,-1.904 L 2.695,-1.904 L 0.98,3.316 L -0.049,3.316 L -1.761,-1.904 L -0.58,-1.904 L -0.289,-0.943 L 1.245,-0.943 L 1.543,-1.904 z"
   class="ps02"
   id="path308"
   style="fill:#231f20;fill-rule:nonzero;stroke:none" />

</g>

</g>
      <g
         id="q94"
         class="ps02"
         style="fill:#231f20;fill-rule:nonzero;stroke:none"
         transform="matrix(1.2499487,0,0,-1.2499487,-403.75535,280.70679)">
<g
   id="xfrm95"
   transform="translate(518.6475,30.3721)">
<path
   d="M 0,0 L 0.472,1.547 L 0.954,0 L 0,0 z M 1.547,-1.904 L 2.697,-1.904 L 0.982,3.316 L -0.047,3.316 L -1.762,-1.904 L -0.58,-1.904 L -0.287,-0.943 L 1.245,-0.943 L 1.547,-1.904 z"
   class="ps02"
   id="path312"
   style="fill:#231f20;fill-rule:nonzero;stroke:none" />

</g>

</g>
      <g
         id="q96"
         class="ps02"
         style="fill:#231f20;fill-rule:nonzero;stroke:none"
         transform="matrix(1.2499487,0,0,-1.2499487,-403.75535,280.70679)">
<g
   id="xfrm97"
   transform="translate(546.7373,33.6768)">
<path
   d="M 0,0 L -1.091,0 L -2,-3.047 L -2.869,0 L -3.96,0 L -2.558,-5.225 L -1.469,-5.225 L 0,0 z"
   class="ps02"
   id="path316"
   style="fill:#231f20;fill-rule:nonzero;stroke:none" />

</g>

</g>
      <g
         id="q98"
         class="ps02"
         style="fill:#231f20;fill-rule:nonzero;stroke:none"
         transform="matrix(1.2499487,0,0,-1.2499487,-403.75535,280.70679)">
<g
   id="xfrm99"
   transform="translate(566.8721,33.6631)">
<path
   d="M 0,0 L -1.109,0 L -2.037,-1.803 L -2.923,0 L -4.032,0 L -2.606,-3.086 L -2.606,-5.227 L -1.497,-5.227 L -1.497,-3.094 L -1.495,-3.094 L 0,0 z"
   class="ps02"
   id="path320"
   style="fill:#231f20;fill-rule:nonzero;stroke:none" />

</g>

</g>
      <g
         id="q100"
         class="ps02"
         style="fill:#231f20;fill-rule:nonzero;stroke:none"
         transform="matrix(1.2499487,0,0,-1.2499487,-403.75535,280.70679)">
<g
   id="xfrm101"
   transform="translate(534.7012,33.6768)">
<path
   d="M 0,0 L 0,-3.84 C 0,-4.271 -0.496,-4.35 -0.648,-4.35 C -0.8,-4.35 -1.296,-4.271 -1.296,-3.84 L -1.296,0 L -2.446,0 L -2.446,-3.84 C -2.446,-4.775 -1.689,-5.332 -0.648,-5.332 C 0.396,-5.332 1.15,-4.775 1.15,-3.84 L 1.15,0 L 0,0 z"
   class="ps02"
   id="path324"
   style="fill:#231f20;fill-rule:nonzero;stroke:none" />

</g>

</g>
      <g
         id="q102"
         class="ps02"
         style="fill:#231f20;fill-rule:nonzero;stroke:none"
         transform="matrix(1.2499487,0,0,-1.2499487,-403.75535,280.70679)">
<g
   id="xfrm103"
   transform="translate(551.9609,32.7002)">
<path
   d="M 0,0 C 0.383,0 0.695,-0.279 0.695,-0.623 C 0.695,-0.965 0.383,-1.244 0,-1.244 L -0.433,-1.244 L -0.433,0 L 0,0 z M 2.069,-4.248 L 0.729,-2.141 C 1.328,-1.873 1.747,-1.295 1.747,-0.623 C 1.747,0.301 1.123,1.051 0,1.051 L -0.433,1.051 L -1.098,1.051 L -1.522,1.051 L -1.522,-4.248 L -0.433,-4.248 L -0.433,-2.301 L 0.804,-4.248 L 2.069,-4.248 z"
   class="ps02"
   id="path328"
   style="fill:#231f20;fill-rule:nonzero;stroke:none" />

</g>

</g>
    </g>
    <g
       transform="matrix(1.2499487,0,0,-1.2499487,-403.48961,280.95707)"
       style="fill:#231f20;fill-rule:nonzero;stroke:none"
       class="ps02"
       id="q104">
<g
   transform="translate(537.7363,58.4756)"
   id="xfrm105">
<path
   style="fill:#485bb2;fill-rule:nonzero;stroke:none"
   id="path332"
   class="ps01"
   d="M 0,0 C -4.206,5.6 -10.608,9.455 -17.928,10.293 C -16.195,18.605 -8.828,24.854 0,24.854 L -6.924,31.775 L -6.921,31.775 C -18.012,28.74 -26.162,18.592 -26.162,6.539 C -26.162,4.979 -26.026,3.453 -25.764,1.969 L -25.762,1.971 C -24.224,2.391 -22.604,2.613 -20.931,2.613 C -10.815,2.613 -2.617,-5.586 -2.617,-15.699 C -2.617,-16.965 -2.744,-18.197 -2.988,-19.389 L -3.002,-19.453 C -2.016,-19.564 -1.015,-19.623 0,-19.623 C 1.016,-19.623 2.016,-19.564 3.002,-19.453 L 2.99,-19.389 C 2.744,-18.197 2.617,-16.965 2.617,-15.699 C 2.617,-5.586 10.815,2.613 20.931,2.613 C 22.604,2.613 24.224,2.391 25.764,1.971 L 25.766,1.969 C 26.026,3.453 26.162,4.979 26.162,6.539 C 26.162,18.592 18.012,28.74 6.922,31.775 L 0,24.854 C 8.829,24.854 16.197,18.605 17.928,10.293 C 10.61,9.455 4.208,5.6 0,0" />

</g>

</g>
  </g>
</svg>
