<?xml version="1.0" encoding="UTF-8" standalone="no"?>
<svg
   xmlns:dc="http://purl.org/dc/elements/1.1/"
   xmlns:cc="http://creativecommons.org/ns#"
   xmlns:rdf="http://www.w3.org/1999/02/22-rdf-syntax-ns#"
   xmlns:svg="http://www.w3.org/2000/svg"
   xmlns="http://www.w3.org/2000/svg"
   xmlns:sodipodi="http://sodipodi.sourceforge.net/DTD/sodipodi-0.dtd"
   xmlns:inkscape="http://www.inkscape.org/namespaces/inkscape"
   id="svgRoot"
   viewBox="0 0 200 200"
   xml:space="preserve"
   sodipodi:version="0.32"
   inkscape:version="0.46"
   width="205.25879"
   height="255.99998"
   sodipodi:docname="Tohoku University.svg"
   inkscape:output_extension="org.inkscape.output.svg.inkscape"
   version="1.0"><metadata
   id="metadata151"><rdf:RDF><cc:Work
       rdf:about=""><dc:format>image/svg+xml</dc:format><dc:type
         rdf:resource="http://purl.org/dc/dcmitype/StillImage" /></cc:Work></rdf:RDF></metadata><sodipodi:namedview
   inkscape:window-height="667"
   inkscape:window-width="915"
   inkscape:pageshadow="2"
   inkscape:pageopacity="0.0"
   guidetolerance="10.0"
   gridtolerance="10.0"
   objecttolerance="10.0"
   borderopacity="1.0"
   bordercolor="#666666"
   pagecolor="#ffffff"
   id="base"
   showgrid="false"
   inkscape:zoom="1.8046875"
   inkscape:cx="112.23195"
   inkscape:cy="105.8355"
   inkscape:window-x="44"
   inkscape:window-y="0"
   inkscape:current-layer="svgRoot" />
<defs
   id="defs3"><inkscape:perspective
   sodipodi:type="inkscape:persp3d"
   inkscape:vp_x="0 : 526.18109 : 1"
   inkscape:vp_y="0 : 1000 : 0"
   inkscape:vp_z="744.09448 : 526.18109 : 1"
   inkscape:persp3d-origin="372.04724 : 350.78739 : 1"
   id="perspective153" />









</defs>
<g
   id="g2553"
   transform="matrix(1.1635755,0,0,1.1635744,-3.1336841e-6,-8.3729585)"><g
     transform="matrix(2.6857314,0,0,-2.6857299,-107.51615,361.41552)"
     id="q2"
     class=""
     style="fill:#213e9a;fill-opacity:1">
<clipPath
   id="clp3"
   clip-rule="evenodd">
<path
   d="M 20.59,151.5 L 123.39,151.5 L 123.39,48.7 L 20.59,48.7 L 20.59,151.5 z"
   id="path24" />
</clipPath>
<g
   clip-path="url(#clp3)"
   id="g26"
   style="fill:#213e9a;fill-opacity:1">
<clipPath
   id="clp4"
   clip-rule="nonzero">
<path
   d="M 20.59,833.9 L 615.59,833.9 L 615.59,-7.1 L 20.59,-7.1 L 20.59,833.9 z"
   id="path29" />
</clipPath>
<g
   clip-path="url(#clp4)"
   id="g31"
   style="fill:#213e9a;fill-opacity:1">
<clipPath
   id="clp5"
   clip-rule="nonzero">
<path
   d="M 20.61,833.9 L 615.61,833.9 L 615.61,-7.1 L 20.61,-7.1 L 20.61,833.9 z"
   id="path34" />
</clipPath>
<g
   clip-path="url(#clp5)"
   id="g36"
   style="fill:#213e9a;fill-opacity:1">
<path
   d="M 51.08,127.2 C 50.56,127.8 50.01,128.5 49.59,129.4 C 49.87,129.7 50.42,129.9 50.87,129.9 C 51.13,129.9 51.72,129.8 51.72,129.1 C 51.72,128.6 51.49,127.8 51.08,127.2 M 44.32,120 C 44.84,120.1 45.16,121 45.4,121.9 C 45.38,121.5 45.34,120.9 45.37,120.5 C 45.28,120.1 45.18,120 44.93,119.6 C 44.26,118.8 44.27,117.7 44.74,117.7 C 45.32,117.7 45.56,118.8 45.56,119.4 C 46.01,118.9 46.67,119.3 46.91,119.9 C 47.15,120.6 46.9,121.2 46.07,120.7 C 45.9,120.6 45.73,120.5 45.62,120.6 C 45.59,121.1 45.62,121.5 45.65,121.9 C 46.17,121.3 46.81,121.7 47.05,122.3 C 47.29,123 47.05,123.6 46.21,123.1 C 46.04,123 45.87,122.9 45.76,123 C 45.78,123.4 45.89,123.8 45.96,124.1 C 46.33,124.4 46.79,124.8 47.19,125.4 C 48.05,126.6 48.15,127.7 48.04,128.3 C 47.02,127.1 45.54,124.4 45.22,123.7 C 45.29,123.7 45.46,123.8 45.67,123.9 C 45.55,123.5 45.51,123.1 45.48,123 C 45,122.3 43.98,121.4 43.98,120.6 C 43.98,120.3 44.1,120 44.32,120 M 47.56,97.44 C 46.42,97.44 45.68,96.12 46.07,94.49 C 47.3,94.67 49.59,95.43 50.59,95.81 C 49.79,96.99 48.5,97.48 47.56,97.44 M 47.77,128.4 C 47.48,128.2 46.78,127.9 46.06,127 C 45.21,125.9 44.79,124.4 45.02,123.7 C 45.25,124.4 46.52,126.9 47.77,128.4 M 41.5,114.3 C 40.95,112.6 40.54,110.1 40.43,108.3 C 41.54,108.6 41.72,112.1 41.5,114.3 M 40.19,108.4 C 40.31,110.5 40.73,112.4 41.34,114.5 C 39.85,113 39.91,109.7 40.19,108.4 M 43.57,105.5 C 43.22,106.7 42.37,109.3 42.1,112 C 41.72,110.9 41.57,108.4 42.45,106.7 C 42.87,105.9 43.25,105.5 43.57,105.5 M 53.43,133.5 L 53.24,133.6 C 51.35,132.4 49.07,130.3 47.8,128.5 L 48.27,128.5 C 49.23,130 51.2,132 53.43,133.5 M 46.46,114.8 C 46.53,115.7 46,117.2 44.74,117.2 C 44.01,117.2 42.88,116.3 42.56,114.9 C 43.81,115.1 45.69,114.9 46.46,114.8 M 48.62,127.5 C 48.62,126.1 50.57,126.7 50.81,126.9 C 50.29,127.6 49.75,128.3 49.39,129.2 C 48.93,128.8 48.62,128.1 48.62,127.5 M 44.01,112.3 C 45.22,112.2 46.06,113.7 46.41,114.5 C 46.06,114.5 44.12,114.7 42.54,114.6 C 42.48,113.7 43.03,112.3 44.01,112.3 M 61.61,137.1 C 61.65,137.1 58.03,136.6 54.27,134.4 C 55.28,133.9 59.22,135.1 61.61,137.1 M 52.61,127.9 C 54.1,130.1 56.85,133 59.37,134.8 C 58.7,134.7 56.44,134.3 54.1,132 C 52.16,130 52.39,128.5 52.61,127.9 M 54.27,134.7 C 57.1,136.3 59.74,137.1 61.61,137.4 C 61.61,138.4 56.99,137.4 54.27,134.7 M 42.3,112.5 C 42,114.9 42.42,118.6 43.75,121.7 L 43.59,121.8 C 42.38,119.2 41.73,115.6 41.99,112.3 L 42.3,112.5 M 99.06,98.73 C 100.2,98.73 100.8,99.8 101,100.7 C 99.9,100.7 98.63,100.6 97.48,100.7 C 97.41,99.64 98.09,98.73 99.06,98.73 M 97.65,90.21 L 97.95,90.14 C 100.1,93.17 101.8,97.76 101.8,103 L 101.4,102.8 C 101.4,97.99 99.78,93.31 97.65,90.21 M 88.37,82.56 C 89,82.36 90.09,82.57 91.21,82.95 C 95.81,84.5 97.41,88.19 97.41,88.92 C 95.6,86.72 91.23,83.63 88.37,82.56 M 97.1,89.17 C 97.1,89.17 95.7,89.72 91.26,86.35 C 89.38,84.93 88.44,83.67 88.23,82.94 C 91.29,84.16 94.8,86.76 97.1,89.17 M 102.1,101.3 C 102.8,102.6 103.5,104.4 103.7,106 C 103,105.5 101.9,102.9 102.1,101.3 M 103.9,106 C 103.7,104.2 103.2,102.7 102.2,101.2 C 102.6,101.3 103.2,101.9 103.7,103.3 C 104.1,104.4 104.1,105.6 103.9,106 M 41,106.8 L 40.76,106.8 C 41.17,100.4 43.86,95.72 47.17,91.71 L 47.46,92.1 C 44.27,95.81 41.39,100.6 41,106.8 M 45.2,93.28 C 44.5,93.43 44.53,90.19 45.95,87.97 C 45.29,90.09 45.09,91.99 45.2,93.28 M 46.29,87.94 C 46.75,88.55 46.5,91.36 45.51,93.25 C 45.48,93.29 45.32,90.78 46.29,87.94 M 89.07,86.36 C 81.26,74.01 62.72,75.49 52.37,83.97 L 52.22,83.78 C 62.59,74.79 81.72,73.56 89.67,86.1 L 89.07,86.36 M 55.6,85.03 C 56.3,84.4 56.29,81.33 58.33,81.33 C 58.95,81.33 59.47,81.76 59.47,82.35 C 59.47,83.05 58.66,83.81 57.62,84.29 C 58.38,84.05 58.97,83.84 59.85,83.7 C 61.23,83.24 61.24,80.66 63.24,80.66 C 64.1,80.66 64.45,81.24 64.45,81.66 C 64.45,82.39 63.58,82.98 62.49,83.39 C 63.18,83.33 63.91,83.25 64.61,83.25 C 65.92,82.76 66.08,80.95 67.64,80.95 C 68.37,80.95 68.75,81.49 68.75,81.9 C 68.75,82.64 67.95,83.25 66.87,83.39 C 67.53,83.41 67.93,83.48 68.44,83.54 C 69.17,83.51 70.12,82.02 71.48,82.02 C 72,82.02 72.48,82.41 72.48,82.91 C 72.48,84.39 69.87,84.03 69.24,83.91 C 70.11,84.12 71.12,84.72 71.12,85.6 C 71.12,86.11 70.75,86.56 70.11,86.56 C 68.58,86.56 69.13,84.47 68.37,83.88 C 67.74,83.78 67.01,83.7 66.49,83.67 C 67.29,83.85 67.82,84.49 67.82,85.03 C 67.82,85.7 67.44,86.24 66.44,86.24 C 65.7,86.21 65.02,85.76 64.86,84.86 C 64.76,84.33 64.64,83.78 64.26,83.64 C 63.46,83.64 62.74,83.74 61.97,83.81 C 63.47,83.81 64.15,84.4 64.15,85.17 C 64.15,85.89 63.49,86.56 62.64,86.56 C 61.83,86.56 61.24,86.14 60.99,85.44 C 60.56,84.28 60.08,84.16 59.85,84.12 C 59.15,84.26 57.93,84.64 57.34,84.86 C 58.8,84.51 60.41,84.9 60.41,86.24 C 60.41,86.84 59.9,87.54 58.79,87.54 C 57.21,87.54 56.76,85.59 55.6,85.51 C 53.79,86.18 52.48,87.07 51.63,87.65 C 51.39,88.22 51.04,88.83 50.57,89.42 C 49.81,90.4 48.62,91.41 47.66,91.75 C 47.66,91.75 49.87,87.69 52.07,85.52 C 52.12,85.85 52.05,86.41 51.84,87.06 C 52.82,86.42 54.02,85.69 55.6,85.03 M 48.61,87.86 C 49.69,86.47 50.63,85.73 51.79,85.36 C 51.79,85.36 49.11,88.11 47.48,91.52 C 47.3,90.79 47.58,89.18 48.61,87.86 M 94.58,108.8 C 92.41,108.8 91.12,106.4 91.39,103.1 C 90.93,104.6 90.34,106 89.58,107.3 C 89.64,107.9 89.79,108.4 90.24,109.2 C 90.56,109.7 92.06,111.8 92.06,113.5 C 92.06,114.8 91.26,116 89.76,116 C 88.37,116 87.08,114.7 87.19,112.8 C 87.22,112.2 87.35,111.2 87.83,110.2 C 86.87,111.6 86.08,112.4 85.06,113.5 C 84.4,114.9 85.83,116.8 85.83,118.8 C 85.83,121 82.73,122.1 81.59,119.9 C 80.96,118.7 81.55,117.1 82.35,116 C 81.48,116.7 80.62,117.3 79.75,117.8 C 79.04,119 79.81,120.9 79.36,122.3 C 79.12,123.1 78.31,123.6 77.52,123.6 C 76.64,123.6 75.71,122.8 75.71,121.6 C 75.71,120.6 76.44,119.7 77.03,119.1 C 76.3,119.4 75.26,119.9 74.59,120.1 C 73.63,121.1 74.59,124.6 72.09,124.6 C 71.22,124.6 70.55,123.9 70.55,123 C 70.55,121.8 71.6,121 72.68,120.6 C 72.3,120.7 70.49,121.1 70.11,121.1 C 68.58,122.2 68.89,124.2 66.87,124.2 C 66.07,124.2 65.44,123.6 65.44,122.8 C 65.44,121.9 66.49,120.9 68.44,120.9 C 66.66,120.8 65.48,119.7 65.48,118.8 C 65.48,118 66.11,117.4 66.8,117.4 C 68.68,117.4 68.9,120.2 69.87,120.6 C 70.32,120.6 71.36,120.4 72.05,120.2 C 70.83,120.1 69.3,119.2 69.3,117.8 C 69.3,116.9 69.97,116.4 70.78,116.4 C 72.57,116.4 72.79,119.1 74.53,119.5 C 74.98,119.4 75.99,119 76.47,118.8 C 74.94,118.9 73.23,118 73.23,116.5 C 73.23,115.4 74.38,114.7 75.56,115 C 77.13,115.5 78.01,117 79.64,117.2 C 80.19,117 81.37,116 81.72,115.8 C 80.78,116.1 79.2,116 78.15,115.1 C 76.45,113.6 77.56,111.1 79.93,111.4 C 81.7,111.6 82.82,113.6 84.6,113.1 C 85.57,112.2 86.37,111.2 87.1,110.2 C 86.07,110.8 85.06,111.3 83.92,111.3 C 82.28,111.3 81.03,110.5 81.03,109 C 81.03,107.6 82.35,106.7 83.82,106.7 C 85.16,106.6 86.17,107.1 86.93,107.2 C 87.85,107.2 88.51,107.1 89.06,106.8 C 89.67,106.1 90.37,104.3 90.66,103.2 C 89.72,104.6 88.58,105.8 86.72,105.8 C 85.26,105.8 83.98,104.7 83.98,103.1 C 83.98,100.1 88.09,99.92 89.56,99.81 C 90.46,99.74 91.26,99.67 91.57,99.15 C 91.68,98.53 91.71,97.97 91.71,97.42 C 90.77,96.48 90.17,95.74 89.58,94.49 C 87.98,91.17 88.37,87.81 89.42,86.79 C 93.01,92 94.7,97.62 95.22,99.49 C 94.49,99.49 93.41,98.89 92.37,97.99 C 92.33,98.53 92.3,98.96 92.24,99.49 C 92.41,100.3 93.21,101.1 94.74,102.5 C 96.24,103.8 96.82,105.3 96.82,106.5 C 96.82,108 95.82,108.8 94.58,108.8 M 60.92,132.3 C 61.56,130.3 63.76,130 65.23,130.2 C 64.27,132.1 63.35,133.9 62.5,136 C 61.66,135.5 60.42,133.9 60.92,132.3 M 69.3,128.7 C 68.75,129 68.38,129.2 67.82,129.2 C 67.23,129.2 66.8,128.8 66.8,128.2 C 66.8,127.7 67.27,127.3 68.07,127.3 C 68.57,127.3 69.37,127.5 69.76,127.7 C 69.24,127.2 68.65,126.5 68.65,125.8 C 68.65,125.1 69.17,124.8 69.52,124.8 C 71.25,124.8 70.33,127.1 70.91,128.1 C 71.18,128.3 72.08,128.7 72.37,128.8 C 71.78,128.3 71.51,127.6 71.51,127 C 71.51,126.3 71.91,126 72.37,126 C 74.07,126 73.28,128.4 73.86,129.3 C 74.53,129.5 75.15,129.7 75.66,129.8 C 74.69,129.2 74.49,128.3 74.49,127.9 C 74.49,127.3 74.91,126.9 75.49,126.9 C 76.47,126.9 76.82,127.9 76.99,128.9 C 77.13,129.6 77.22,129.9 77.41,130.2 C 77.89,130.2 78.76,130.4 79.32,130.5 C 78.6,130.1 77.76,129.2 77.76,128.3 C 77.76,127.7 78.26,127 78.98,127 C 81.03,127 80.61,129.8 81.72,130.6 L 82.53,130.6 C 83.02,129.5 84.11,128.3 86.11,127.7 C 88.86,126.7 90.85,127.1 91.95,128.3 C 87.81,130.5 83.25,131.5 82.22,131.7 C 82.24,131.5 82.28,131.3 82.34,131.1 C 82.05,131.1 81.77,131.1 81.45,131.1 C 80.61,131.4 80.31,134 78.28,134 C 77.66,134 77.07,133.5 77.07,132.8 C 77.07,131.8 78.15,131.1 79.32,130.9 C 78.59,130.8 78,130.7 77.34,130.6 C 76.18,130.8 75.5,132.7 74,132.7 C 73.38,132.7 72.8,132.3 72.8,131.6 C 72.8,130.4 74.33,130.1 75.35,130.1 C 74.69,130 74.14,129.8 73.51,129.6 C 72.53,129.7 71.94,131.2 70.69,131.2 C 70.05,131.2 69.54,130.8 69.54,130.2 C 69.54,129.2 70.77,128.8 71.92,128.9 C 71.32,128.7 70.92,128.5 70.68,128.4 C 70.2,128.3 69.69,128.4 69.3,128.7 M 79.34,82.84 C 81.32,81.76 84.83,82.22 86.43,83.47 C 83.37,85.39 80.14,87.12 77.36,89.32 C 76.42,87.72 76.39,84.44 79.34,82.84 M 67.19,134.9 C 65.86,137.1 62.89,136.2 62.89,136.2 C 63.77,134.2 64.71,132.3 65.66,130.4 C 66.81,130.9 68.13,133.4 67.19,134.9 M 90.43,126.2 C 88.52,124.8 88.41,122 89.7,120.1 C 91.3,122 92.97,123.9 94.58,126 C 94.25,126.2 92.03,127.3 90.43,126.2 M 78.01,136 C 79.39,136.2 79.95,137.3 79.88,137.6 C 77.93,137.5 76.36,137.1 74.91,136.8 C 75.53,136.3 76.58,135.9 78.01,136 M 95.36,121 C 96.46,123 95.56,124.9 94.94,125.8 C 93.51,123.7 91.8,121.7 90.1,119.8 C 92.4,119 94.45,119.3 95.36,121 M 97.53,101.1 C 98.61,101 100.1,101 101.1,101.1 C 101.1,102.2 100.4,102.9 99.8,102.9 C 98.83,102.9 97.85,102 97.53,101.1 M 100.1,108.2 C 99.38,107.5 99.2,106.6 99.22,105.8 C 99.25,104.5 100,103.3 101.4,103.1 C 101.2,105.1 100.6,107.2 100.1,108.2 M 86.53,89.13 C 84.27,91.67 79.43,91.26 77.79,89.83 C 80.57,87.72 83.61,85.8 86.77,83.85 C 87.3,84.58 88.19,87.29 86.53,89.13 M 102.4,106 C 102.4,107.1 102,107.9 101.4,108.2 C 101.3,108.8 101.2,109.2 101.1,109.8 C 101.1,110 101.2,110.3 101.4,110.6 C 102.3,111.8 102.4,113.5 101.5,113.5 C 100.7,113.5 100.5,112.2 100.6,111.2 C 100.4,111.8 100.1,112.4 100,112.8 C 100.1,113.2 100.1,113.1 100.3,113.7 C 100.9,115 100.8,116.4 100.1,116.4 C 99.35,116.4 99.06,115.1 99.35,114 C 98.97,114.9 98.53,115.4 98.28,115.7 C 98.21,116 98.67,116.9 98.67,117.7 C 98.67,118.2 98.46,118.9 97.9,118.9 C 97.07,118.9 96.72,117.6 97.65,116.2 C 97.28,116.6 96.68,116.7 96.43,116.7 C 94.83,116.7 95.12,114.9 96.39,114.9 C 97.36,114.9 97.65,115.4 98.18,115.3 C 98.64,114.7 98.95,114.1 99.19,113.6 C 98.67,114.2 98.13,114.4 97.62,114.4 C 97.05,114.4 96.63,113.9 96.63,113.5 C 96.63,112.4 97.77,112.3 98.54,112.5 C 99.01,112.7 99.35,112.8 99.63,112.6 C 99.87,112.2 100,111.8 100.2,111.1 C 99.73,111.6 99.2,111.9 98.64,111.9 C 98,111.9 97.53,111.5 97.53,110.9 C 97.53,109.7 98.62,109.5 99.55,109.7 C 99.94,109.7 100.3,109.8 100.6,109.7 C 100.8,109.3 100.8,109.3 101,108.4 C 100.8,108.5 100.6,108.5 100.4,108.5 C 100.9,107.3 101.5,105.4 101.6,103.2 C 102.1,104.1 102.5,105 102.4,106 M 92.35,127.9 C 97.7,125.2 103.6,117.4 103.6,109.2 C 103.6,108.4 103.6,107.6 103.5,107.2 L 103.7,107.2 C 104.8,115.7 99.27,124.8 92.35,128.6 L 92.35,127.9 M 95.82,92.02 C 97.38,95.5 96.82,97.94 95.73,99.36 C 95.21,97.51 93.42,91.78 89.86,86.56 C 91.26,86.56 94.29,88.6 95.82,92.02 M 95.36,127.3 C 95.56,127.7 95.82,130.3 93.01,133 C 92.13,133.8 90.78,134.5 90.25,134.5 C 90.28,134.5 93.1,132.4 95.36,127.3 M 80.67,139.4 C 79.98,139.7 79.18,139.8 78.78,139.8 C 79.81,139.4 80.95,138.9 81.98,138.2 C 82.02,138.4 82.03,138.8 80.67,139.4 M 60.01,134.8 C 64.3,138.2 69.69,139.7 75.18,139.5 L 75.18,139.8 C 70.41,139.8 65.03,139.1 59.53,135 L 60.01,134.8 M 78.52,138.9 C 79.89,138.2 81.17,138.1 81.62,138.2 C 80.71,138.8 79.63,139.3 78.35,139.8 C 77.72,139.8 77.66,139.3 78.52,138.9 M 73.69,137.8 C 73.08,137.8 72.56,138.6 71.38,138.6 C 70.92,138.6 70.43,138.5 70.43,138.2 C 70.43,137.6 71.78,137.5 72.5,137.5 C 72.05,137.4 71.36,137.2 71.01,137.1 C 70.39,137 70.05,137.3 69.13,137.3 C 68.59,137.3 67.99,137.1 67.99,136.7 C 67.99,136 69.41,136.1 70,136.5 C 69.76,136.2 69.69,135.8 69.69,135.5 C 69.69,135.2 70,134.7 70.55,134.7 C 71.45,134.7 71.6,135.4 71.32,135.9 C 70.97,136.4 71.05,136.7 71.18,136.8 C 71.57,137 72.06,137.1 72.55,137.2 C 71.62,136.3 72.14,135.2 73.01,135.2 C 73.96,135.2 74.05,136.2 73.8,136.7 C 73.58,137.1 73.58,137.3 73.8,137.4 C 74.34,137.5 74.87,137.6 75.41,137.6 C 75.16,137.5 74.97,137.3 74.88,137 C 76.41,137.4 77.93,137.8 79.74,137.8 C 78.76,138.4 77.2,138.4 76.09,138 C 75.31,137.9 74.54,137.9 73.69,137.8 M 51.84,101.3 C 51.84,101.8 51.52,102.1 51.06,102.2 C 50.84,102.2 50.61,102.1 50.35,101.8 C 49.9,101.4 49.7,100.9 49.14,100.9 C 48.59,101.2 48.27,101.5 47.8,101.8 C 49.07,101.1 49.86,101.8 49.86,102.6 C 49.86,103.4 49.04,104 48.27,103.3 C 47.73,102.8 47.32,102.6 46.94,102.7 C 46.5,103.1 46.01,103.7 45.68,104.3 C 46.67,103 48.17,103.5 48.17,104.8 C 48.17,105.5 47.64,106.1 46.32,105.5 C 45.78,105.2 45.28,105.3 45,105.5 C 44.82,105.7 44.38,106.6 44.28,107.1 C 44.33,107.6 44.34,108.1 44.29,108.8 C 44.19,110.3 43.14,112 42.37,112.2 C 42.65,109.5 43.52,106.8 43.84,105.6 C 43.97,105.8 44.08,106.1 44.16,106.4 C 44.34,105.9 44.64,105.4 44.79,105.1 C 44.79,104.8 44.63,104.5 44.39,103.7 C 44.08,102.8 43.98,101.3 45.03,101.3 C 45.68,101.3 46.07,102.6 45.55,103.9 C 45.9,103.3 46.48,102.7 46.8,102.4 C 46.97,101.9 46.74,101.2 46.74,100.6 C 46.74,99.75 47.11,99.12 47.77,99.12 C 48.5,99.12 48.85,100.3 47.77,101.5 C 48.13,101.2 48.5,100.9 49.04,100.6 C 49.27,100.2 49.28,99.66 49.5,98.89 C 49.74,98.09 50.22,97.94 50.59,97.94 C 51.03,97.94 51.26,98.33 51.26,98.68 C 51.26,99.44 50.5,100 50,100.3 C 51.39,99.92 51.84,100.9 51.84,101.3 M 58.29,130.2 C 60.17,132.2 59.97,134.1 59.69,134.6 C 57.03,132.6 54.35,129.7 52.9,127.7 C 53.12,127.7 53.34,127.7 53.56,127.7 C 53.37,127.3 53.16,126.8 53,126.3 C 52.38,125.7 51.34,125.3 50.22,124.9 C 48.59,124.2 47.65,122.6 48.1,121.5 C 48.48,120.5 50.48,120.1 52.29,123.8 C 51.98,122.6 51.8,121.9 51.65,120.4 C 51.45,119.9 51.14,119.6 50.56,119.3 C 47.25,117.9 47.25,114.5 48.56,114 C 49.82,113.6 51.32,115.5 51.59,117.1 C 51.59,116 51.59,115.5 51.72,114.3 C 51.47,113.5 51.39,113.3 50.53,112.5 C 49.74,111.8 49.15,110.8 49.15,109.8 C 49.15,108.7 49.84,108.2 50.61,108.2 C 51.48,108.2 52.48,109.1 52.52,111 C 52.72,110.2 52.99,109.5 53.28,108.9 C 53.4,107.8 51.43,107.2 51.43,105.4 C 51.43,104.4 52.07,103.8 52.94,103.8 C 53.76,103.8 54.56,104.7 54.45,106.4 C 54.72,105.8 55.1,105.2 55.41,104.7 C 55.37,104.1 54.38,102.8 54.38,101.8 C 54.38,101.1 54.76,100.3 55.8,100.3 C 56.92,100.3 57.6,101.7 55.98,104.2 C 56.5,103.6 57.37,102.9 58.24,102.9 C 59.21,102.9 59.74,103.6 59.74,104.2 C 59.74,105.1 59.11,105.4 58.55,105.4 C 57.4,105.4 56.98,104.8 55.7,105 C 55.29,105.6 54.97,106.2 54.62,106.9 C 55.04,106.3 55.74,106 56.5,106 C 57.34,106 57.94,106.8 57.94,107.5 C 57.94,108.5 56.98,108.9 56.07,108.9 C 55.17,108.9 54.34,108.5 53.65,109 C 53.44,109.4 53.05,110.4 52.94,111 C 53.53,110.2 54.32,109.9 55.01,109.9 C 56.1,109.9 56.62,110.7 56.62,111.6 C 56.62,112.5 56.09,113.2 54.28,113.5 C 53.38,113.6 52.61,113.9 52.24,114.4 C 52.1,115.4 52.14,115.8 52.1,116.8 C 52.31,115.9 52.99,114.9 54.45,114.9 C 55.74,114.9 56.68,116.5 55.64,118 C 54.62,119.3 52.63,119.4 52.25,120.6 C 52.35,121.9 52.53,122.5 52.8,123.6 C 52.88,122.4 53.56,120.9 55.13,120.9 C 56.58,120.9 57.67,122.8 56.17,124.2 C 55.09,125.2 53.98,125.8 53.69,126.5 C 53.78,126.8 53.99,127.3 54.17,127.7 C 55.65,128 57.02,128.9 58.29,130.2 M 82.39,132.1 C 83.47,131.9 87.64,131 91.95,128.7 C 90.94,130.5 89.91,131.5 88.41,132.2 C 84.33,134.2 82.39,132.1 82.39,132.1 M 80.22,137.6 C 82.44,137.6 86.11,137 88.8,135.2 L 88.91,135.4 C 86.68,137 82.63,138 79.96,138 L 80.22,137.6 M 80,136.6 C 79.78,136.1 79.85,135.1 80.93,134.6 C 81.25,135.5 81.73,136.5 82.11,137.2 C 81.98,137.2 80.45,137.6 80,136.6 M 82.34,137.1 C 81.92,136.2 81.58,135.3 81.26,134.4 C 81.82,134.3 82.89,134.2 83.39,135.1 C 83.69,135.7 83.63,136.6 82.34,137.1 M 49.06,92.65 C 49.89,92.65 51.36,93.73 50.76,95.43 C 50,95.15 47.56,94.37 46.24,94.14 C 46.93,92.82 48.4,92.65 49.06,92.65 M 94.94,127.3 C 93.6,130.3 91.83,132.7 90,134.4 C 89.41,134.2 89.73,131.2 94.94,127.3"
   class="ps02 ps10"
   id="path38"
   style="fill:#213e9a;fill-opacity:1;stroke-width:1;stroke-linecap:butt;stroke-linejoin:miter;stroke-miterlimit:10;stroke-dasharray:none" />
</g>
</g>
</g>
</g><g
     transform="matrix(2.6857314,0,0,-2.6857299,-107.51615,361.41552)"
     id="q3"
     class=""
     style="fill:#213e9a;fill-opacity:1">
<clipPath
   id="clp6"
   clip-rule="evenodd">
<path
   d="M 20.59,151.5 L 123.39,151.5 L 123.39,48.7 L 20.59,48.7 L 20.59,151.5 z"
   id="path42" />
</clipPath>
<g
   clip-path="url(#clp6)"
   id="g44"
   style="fill:#213e9a;fill-opacity:1">
<clipPath
   id="clp7"
   clip-rule="nonzero">
<path
   d="M 20.59,833.9 L 615.59,833.9 L 615.59,-7.1 L 20.59,-7.1 L 20.59,833.9 z"
   id="path47" />
</clipPath>
<g
   clip-path="url(#clp7)"
   id="g49"
   style="fill:#213e9a;fill-opacity:1">
<clipPath
   id="clp8"
   clip-rule="nonzero">
<path
   d="M 20.61,833.9 L 615.61,833.9 L 615.61,-7.1 L 20.61,-7.1 L 20.61,833.9 z"
   id="path52" />
</clipPath>
<g
   clip-path="url(#clp8)"
   id="g54"
   style="fill:#213e9a;fill-opacity:1">
<path
   d="M 60.43,61.06 C 59.26,61.45 58.05,62.17 57.22,62.94 C 57.54,62.94 59.45,62.94 59.45,62.94 L 59.45,66.73 C 59.45,66.73 56.53,66.73 56.39,66.73 C 56.39,66.84 56.39,67.18 56.39,67.29 C 56.53,67.29 60.23,67.29 60.23,67.29 L 60.23,68.29 L 56.39,68.29 L 56.39,69.16 L 55.28,69.16 L 55.28,68.29 L 51.53,68.29 L 51.53,67.29 C 51.53,67.29 55.14,67.29 55.28,67.29 C 55.28,67.18 55.28,66.84 55.28,66.73 C 55.14,66.73 52.37,66.73 52.37,66.73 L 52.37,62.94 C 52.37,62.94 54.15,62.94 54.47,62.94 C 53.65,62.17 52.47,61.45 51.33,61.05 L 51.21,61.01 L 51.3,60.92 C 51.49,60.75 51.77,60.42 51.92,60.18 L 51.95,60.12 L 52.01,60.15 C 53.2,60.63 54.41,61.46 55.28,62.37 C 55.28,62.05 55.28,60.01 55.28,60.01 L 56.39,60.01 C 56.39,60.01 56.39,62.08 56.39,62.41 C 57.31,61.45 58.54,60.61 59.72,60.13 L 59.78,60.1 L 59.81,60.16 C 59.95,60.39 60.23,60.75 60.45,60.93 L 60.56,61.02 L 60.43,61.06 M 55.28,63.8 C 55.15,63.8 53.55,63.8 53.41,63.8 C 53.41,63.91 53.41,64.32 53.41,64.43 C 53.55,64.43 55.15,64.43 55.28,64.43 C 55.28,64.32 55.28,63.91 55.28,63.8 M 55.28,65.25 C 55.15,65.25 53.55,65.25 53.41,65.25 C 53.41,65.36 53.41,65.77 53.41,65.88 C 53.55,65.88 55.15,65.88 55.28,65.88 C 55.28,65.77 55.28,65.36 55.28,65.25 M 56.39,65.88 C 56.52,65.88 58.23,65.88 58.37,65.88 C 58.37,65.77 58.37,65.36 58.37,65.25 C 58.23,65.25 56.52,65.25 56.39,65.25 C 56.39,65.36 56.39,65.77 56.39,65.88 M 56.39,63.8 C 56.39,63.91 56.39,64.32 56.39,64.43 C 56.52,64.43 58.23,64.43 58.37,64.43 C 58.37,64.32 58.37,63.91 58.37,63.8 C 58.23,63.8 56.52,63.8 56.39,63.8"
   class="ps02 ps10"
   id="path56"
   style="fill:#213e9a;fill-opacity:1;stroke-width:1;stroke-linecap:butt;stroke-linejoin:miter;stroke-miterlimit:10;stroke-dasharray:none" />
</g>
</g>
</g>
</g><g
     transform="matrix(2.6857314,0,0,-2.6857299,-107.51615,361.41552)"
     id="q4"
     class=""
     style="fill:#213e9a;fill-opacity:1">
<clipPath
   id="clp9"
   clip-rule="evenodd">
<path
   d="M 20.59,151.5 L 123.39,151.5 L 123.39,48.7 L 20.59,48.7 L 20.59,151.5 z"
   id="path60" />
</clipPath>
<g
   clip-path="url(#clp9)"
   id="g62"
   style="fill:#213e9a;fill-opacity:1">
<clipPath
   id="clp10"
   clip-rule="nonzero">
<path
   d="M 20.59,833.9 L 615.59,833.9 L 615.59,-7.1 L 20.59,-7.1 L 20.59,833.9 z"
   id="path65" />
</clipPath>
<g
   clip-path="url(#clp10)"
   id="g67"
   style="fill:#213e9a;fill-opacity:1">
<clipPath
   id="clp11"
   clip-rule="nonzero">
<path
   d="M 20.61,833.9 L 615.61,833.9 L 615.61,-7.1 L 20.61,-7.1 L 20.61,833.9 z"
   id="path70" />
</clipPath>
<g
   clip-path="url(#clp11)"
   id="g72"
   style="fill:#213e9a;fill-opacity:1">
<path
   d="M 64.77,66.77 C 64.63,66.77 62.35,66.77 62.35,66.77 L 62.35,65.7 C 62.35,65.7 64.63,65.7 64.77,65.7 C 64.77,65.56 64.77,63.36 64.77,63.26 C 63.95,62.96 62.01,62.28 62.01,62.28 L 62.49,61.22 C 62.49,61.22 64.06,61.86 64.77,62.17 C 64.77,61.96 64.77,60.09 64.77,60.09 L 65.87,60.09 L 65.87,68.99 L 64.77,68.99 C 64.77,68.99 64.77,66.91 64.77,66.77"
   class="ps02 ps10"
   id="path74"
   style="fill:#213e9a;fill-opacity:1;stroke-width:1;stroke-linecap:butt;stroke-linejoin:miter;stroke-miterlimit:10;stroke-dasharray:none" />
</g>
</g>
</g>
</g><g
     transform="matrix(2.6857314,0,0,-2.6857299,-107.51615,361.41552)"
     id="q5"
     class=""
     style="fill:#213e9a;fill-opacity:1">
<clipPath
   id="clp12"
   clip-rule="evenodd">
<path
   d="M 20.59,151.5 L 123.39,151.5 L 123.39,48.7 L 20.59,48.7 L 20.59,151.5 z"
   id="path78" />
</clipPath>
<g
   clip-path="url(#clp12)"
   id="g80"
   style="fill:#213e9a;fill-opacity:1">
<clipPath
   id="clp13"
   clip-rule="nonzero">
<path
   d="M 20.59,833.9 L 615.59,833.9 L 615.59,-7.1 L 20.59,-7.1 L 20.59,833.9 z"
   id="path83" />
</clipPath>
<g
   clip-path="url(#clp13)"
   id="g85"
   style="fill:#213e9a;fill-opacity:1">
<clipPath
   id="clp14"
   clip-rule="nonzero">
<path
   d="M 20.61,833.9 L 615.61,833.9 L 615.61,-7.1 L 20.61,-7.1 L 20.61,833.9 z"
   id="path88" />
</clipPath>
<g
   clip-path="url(#clp14)"
   id="g90"
   style="fill:#213e9a;fill-opacity:1">
<path
   d="M 67.17,61.82 C 67.17,60.58 67.49,60.21 68.53,60.21 L 69.99,60.21 C 71.09,60.21 71.32,61 71.41,62.76 L 71.41,62.83 L 71.18,62.88 C 70.95,62.92 70.7,62.97 70.49,63.1 L 70.37,63.17 L 70.37,63.04 C 70.3,61.38 70.24,61.26 69.91,61.26 L 68.66,61.26 C 68.33,61.26 68.27,61.27 68.27,61.8 C 68.27,61.8 68.27,64.72 68.27,64.81 C 69.49,65.48 70.38,66.03 70.97,66.49 C 70.98,66.49 71.01,66.52 71.01,66.52 C 71.06,66.55 71.11,66.59 71.14,66.63 L 71.19,66.67 L 70.44,67.55 L 70.38,67.5 C 69.8,66.99 69.02,66.42 68.27,65.95 C 68.27,66.2 68.27,68.99 68.27,68.99 L 67.17,68.99 L 67.17,61.82"
   class="ps02 ps10"
   id="path92"
   style="fill:#213e9a;fill-opacity:1;stroke-width:1;stroke-linecap:butt;stroke-linejoin:miter;stroke-miterlimit:10;stroke-dasharray:none" />
</g>
</g>
</g>
</g><g
     transform="matrix(2.6857314,0,0,-2.6857299,-107.51615,361.41552)"
     id="q6"
     class=""
     style="fill:#213e9a;fill-opacity:1">
<clipPath
   id="clp15"
   clip-rule="evenodd">
<path
   d="M 20.59,151.5 L 123.39,151.5 L 123.39,48.7 L 20.59,48.7 L 20.59,151.5 z"
   id="path96" />
</clipPath>
<g
   clip-path="url(#clp15)"
   id="g98"
   style="fill:#213e9a;fill-opacity:1">
<clipPath
   id="clp16"
   clip-rule="nonzero">
<path
   d="M 20.59,833.9 L 615.59,833.9 L 615.59,-7.1 L 20.59,-7.1 L 20.59,833.9 z"
   id="path101" />
</clipPath>
<g
   clip-path="url(#clp16)"
   id="g103"
   style="fill:#213e9a;fill-opacity:1">
<clipPath
   id="clp17"
   clip-rule="nonzero">
<path
   d="M 20.61,833.9 L 615.61,833.9 L 615.61,-7.1 L 20.61,-7.1 L 20.61,833.9 z"
   id="path106" />
</clipPath>
<g
   clip-path="url(#clp17)"
   id="g108"
   style="fill:#213e9a;fill-opacity:1">
<path
   d="M 77.04,69.17 L 77.04,68.64 C 77.03,67.93 77.03,67.19 76.96,66.45 C 76.82,66.45 73.27,66.45 73.27,66.45 L 73.27,65.36 C 73.27,65.36 76.62,65.36 76.8,65.36 C 76.36,63.17 75.19,61.76 73.14,60.93 L 73.02,60.89 L 73.13,60.8 C 73.37,60.61 73.64,60.29 73.77,60.05 L 73.8,59.99 L 73.87,60.01 C 75.81,60.85 77.05,62.21 77.66,64.18 C 78.44,62.06 79.64,60.73 81.42,60.01 L 81.48,59.99 L 81.52,60.05 C 81.65,60.3 81.94,60.7 82.16,60.9 L 82.26,60.99 L 82.14,61.03 C 81.18,61.36 80.38,61.93 79.75,62.71 C 79.18,63.41 78.74,64.3 78.43,65.36 C 78.63,65.36 82.01,65.36 82.01,65.36 L 82.01,66.45 C 82.01,66.45 78.25,66.45 78.09,66.45 C 78.17,67.28 78.18,68.09 78.19,68.8 L 78.19,69.17 L 77.04,69.17"
   class="ps02 ps10"
   id="path110"
   style="fill:#213e9a;fill-opacity:1;stroke-width:1;stroke-linecap:butt;stroke-linejoin:miter;stroke-miterlimit:10;stroke-dasharray:none" />
</g>
</g>
</g>
</g><g
     transform="matrix(2.6857314,0,0,-2.6857299,-107.51615,361.41552)"
     id="q7"
     class=""
     style="fill:#213e9a;fill-opacity:1">
<clipPath
   id="clp18"
   clip-rule="evenodd">
<path
   d="M 20.59,151.5 L 123.39,151.5 L 123.39,48.7 L 20.59,48.7 L 20.59,151.5 z"
   id="path114" />
</clipPath>
<g
   clip-path="url(#clp18)"
   id="g116"
   style="fill:#213e9a;fill-opacity:1">
<clipPath
   id="clp19"
   clip-rule="nonzero">
<path
   d="M 20.59,833.9 L 615.59,833.9 L 615.59,-7.1 L 20.59,-7.1 L 20.59,833.9 z"
   id="path119" />
</clipPath>
<g
   clip-path="url(#clp19)"
   id="g121"
   style="fill:#213e9a;fill-opacity:1">
<clipPath
   id="clp20"
   clip-rule="nonzero">
<path
   d="M 20.61,833.9 L 615.61,833.9 L 615.61,-7.1 L 20.61,-7.1 L 20.61,833.9 z"
   id="path124" />
</clipPath>
<g
   clip-path="url(#clp20)"
   id="g126"
   style="fill:#213e9a;fill-opacity:1">
<path
   d="M 90.42,65.82 C 90.4,65.82 85.75,65.82 85.75,65.82 L 85.75,64.86 C 85.75,64.86 88.92,64.86 89.31,64.86 C 89.04,64.65 88.76,64.45 88.49,64.29 C 88.45,64.29 87.91,64.29 87.91,64.29 C 87.91,64.29 87.91,63.69 87.91,63.57 C 87.77,63.57 84.08,63.57 84.08,63.57 L 84.08,62.57 C 84.08,62.57 87.77,62.57 87.91,62.57 C 87.91,62.43 87.91,61.12 87.91,61.12 C 87.91,61.03 87.91,61.03 87.87,61.02 C 87.78,61 87.6,61 87.3,61 C 86.99,61 86.58,61 86.17,61.02 L 86.02,61.02 L 86.1,60.9 C 86.23,60.68 86.41,60.3 86.47,60.04 L 86.49,59.98 L 86.55,59.98 C 88.36,59.98 88.99,60.03 88.99,61.09 C 88.99,61.09 88.99,62.43 88.99,62.57 C 89.14,62.57 92.86,62.57 92.86,62.57 L 92.86,63.57 C 92.86,63.57 89.14,63.57 88.99,63.57 C 88.99,63.57 88.99,63.57 88.99,63.57 C 89.88,64.06 90.69,64.73 91.15,65.2 C 91.15,65.2 91.36,65.41 91.36,65.41 L 91.28,65.45 L 90.59,65.86 C 90.59,65.86 90.43,65.82 90.42,65.82"
   class="ps02 ps10"
   id="path128"
   style="fill:#213e9a;fill-opacity:1;stroke-width:1;stroke-linecap:butt;stroke-linejoin:miter;stroke-miterlimit:10;stroke-dasharray:none" />
</g>
</g>
</g>
</g><g
     transform="matrix(2.6857314,0,0,-2.6857299,-107.51615,361.41552)"
     id="q8"
     class=""
     style="fill:#213e9a;fill-opacity:1">
<clipPath
   id="clp21"
   clip-rule="evenodd">
<path
   d="M 20.59,151.5 L 123.39,151.5 L 123.39,48.7 L 20.59,48.7 L 20.59,151.5 z"
   id="path132" />
</clipPath>
<g
   clip-path="url(#clp21)"
   id="g134"
   style="fill:#213e9a;fill-opacity:1">
<clipPath
   id="clp22"
   clip-rule="nonzero">
<path
   d="M 20.59,833.9 L 615.59,833.9 L 615.59,-7.1 L 20.59,-7.1 L 20.59,833.9 z"
   id="path137" />
</clipPath>
<g
   clip-path="url(#clp22)"
   id="g139"
   style="fill:#213e9a;fill-opacity:1">
<clipPath
   id="clp23"
   clip-rule="nonzero">
<path
   d="M 20.61,833.9 L 615.61,833.9 L 615.61,-7.1 L 20.61,-7.1 L 20.61,833.9 z"
   id="path142" />
</clipPath>
<g
   clip-path="url(#clp23)"
   id="g144"
   style="fill:#213e9a;fill-opacity:1">
<path
   d="M 88.23,69.21 L 87.34,68.88 L 87.39,68.8 C 87.63,68.43 87.88,67.97 88.03,67.58 C 87.87,67.58 87.19,67.58 86.8,67.58 C 86.79,67.59 86.79,67.59 86.79,67.59 L 86.76,67.66 C 86.61,68.03 86.22,68.59 85.82,69.04 L 85.78,69.08 L 84.86,68.66 L 84.92,68.58 C 85.17,68.28 85.43,67.9 85.62,67.58 C 85.41,67.58 84.29,67.58 84.29,67.58 L 84.29,65.17 L 85.3,65.17 C 85.3,65.17 85.3,66.47 85.3,66.61 C 85.44,66.61 91.52,66.61 91.67,66.61 C 91.67,66.47 91.67,65.17 91.67,65.17 L 92.73,65.17 L 92.73,67.58 C 92.73,67.58 91.63,67.58 91.38,67.58 C 91.65,67.92 91.89,68.23 92.06,68.49 C 92.06,68.49 92.21,68.73 92.21,68.73 L 92.12,68.76 C 92.06,68.79 91.84,68.87 91.2,69.1 L 91.14,69.13 L 91.11,69.07 C 90.88,68.61 90.5,68.03 90.15,67.58 C 90.1,67.58 89.55,67.58 89.15,67.58 C 89.15,67.58 89.14,67.59 89.14,67.59 L 89.12,67.66 C 88.99,68.11 88.62,68.75 88.31,69.18 L 88.28,69.23 L 88.23,69.21"
   class="ps02 ps10"
   id="path146"
   style="fill:#213e9a;fill-opacity:1;stroke-width:1;stroke-linecap:butt;stroke-linejoin:miter;stroke-miterlimit:10;stroke-dasharray:none" />
<g
   id="xfrm9"
   transform="scale(200,200)"
   style="fill:#213e9a;fill-opacity:1">
<g
   id="frm10"
   transform="scale(1e-2,1e-2)"
   style="fill:#213e9a;fill-opacity:1">
</g>
</g>
</g>
</g>
</g>
</g></g>
</svg>