<svg width="289" height="289" xmlns="http://www.w3.org/2000/svg">
 <g id="Layer_1">
  <title>Layer 1</title>
  <g id="svg_1" transform="matrix(1 0 0 1 -1.77636e-14 0)">
   <path id="svg_1" fill="#0B8BEE" d="m79.31847,260.91808c1.3,0.7 2.6,1.4 3.9,2.1c14.1,7.2 30,10.1 45.7,8.3c1.7,-0.2 3.3,0.6 4.2,2c0.9,1.4 0.9,3.2 0,4.6c-1.9,3 -3.8,5.9 -5.6,8.9c-0.3,0.5 -0.8,0.7 -1.4,0.7c-19,-2.5 -37.4,-8.7 -54,-18.3c-16,-9.3 -28.2,-23.8 -34.6,-41.2c-6.4,-17.3 -4.2,-36.6 5.8,-52c10.1,-15.4 26.9,-25.2 45.3,-26.3c17.6,-1.1 35.1,-1.2 52.7,-0.5c47.2,2 94.4,-1.7 140.6,-11.2c3.6,-0.7 6.9,2 6.9,5.6c0.2,34 -11.6,66.9 -33.3,93c-1.8,2.2 -5,2.7 -7.4,1.3c-12.1,-7.2 -23.4,-15.4 -34,-24.7c-0.3,-0.3 -0.8,0.2 -0.5,0.5c9.4,10.6 17.6,21.8 24.8,33.9c1.5,2.4 0.9,5.6 -1.2,7.4c-26,21.8 -58.9,33.7 -92.8,33.7c-4.1,0 -6.9,-4.1 -5.4,-7.9c9.1,-23.1 11.1,-48.3 5.8,-72.5c-2,-9.1 -5.4,-17.8 -10.2,-25.7c-7,-11.7 -18.4,-20 -31.7,-23c-13.3,-3 -27.2,-0.3 -38.5,7.3c-11.3,7.6 -18.9,19.5 -21.1,33c-2.2,13.4 1.2,27.2 9.4,38c7.1,9.3 16.2,17.2 26.6,23z" class="st0"/>
   <path id="svg_2" fill="#FFCD00" d="m2.21847,163.11808c-0.5,0.3 -0.8,0.9 -0.7,1.4c4.5,31.7 19.4,61 42.4,83.3c9.1,8.8 20.2,15.3 32.3,19c12.5,3.8 26,2.9 37.9,-2.6c11.9,-5.5 21.3,-15.2 26.6,-27.2c6.2,-14.3 12.4,-28.5 18.7,-42.8c21.1,-48.3 63.6,-83.9 114.8,-96.2c3.4,-0.8 5.3,-4.5 4,-7.8c-8.3,-20.5 -21.2,-38.9 -37.7,-53.6c-2,-1.8 -5.1,-2 -7.3,-0.3c-16.4,12.1 -30.7,26.9 -42.3,43.6c-0.3,0.4 -1,0.1 -0.8,-0.4c7.7,-18.2 17.1,-35.6 28.2,-52c1.9,-2.8 1,-6.6 -1.9,-8.2c-23.7,-13.7 -50.9,-20.3 -78.2,-19.2c-3.1,0.1 -5.5,2.6 -5.5,5.7c-0.5,30.9 1.1,61.5 4.6,92.2c0.1,0.5 -0.6,0.6 -0.7,0.1c-6.1,-30.3 -14.1,-59.9 -24.2,-89.1c-1,-2.9 -4.1,-4.5 -7,-3.7c-26.5,7.4 -50.2,22.2 -68.6,42.7c-2.2,2.5 -1.9,6.4 0.8,8.4c17.1,13.1 33,27.9 47.3,44c0.3,0.4 -0.2,0.9 -0.6,0.6c-17.8,-13 -37.2,-23.6 -57.7,-31.7c-2.7,-1 -5.7,0 -7.1,2.5c-10.7,18.4 -17.1,38.9 -19,60.1c-0.3,3.9 3.1,6.9 6.9,6.2c28.3,-5.9 57.7,-2.3 83.7,10.3c24.4,11.8 41.1,35.2 44.4,62c2,16.2 -5.1,32.1 -18.5,41.5s-30.7,10.6 -45.3,3.3c-5,-2.5 -9.7,-5.4 -14.2,-8.7c-26.7,-19.5 -41.7,-51.2 -39.9,-84.2c0.2,-3.3 -3.2,-5.5 -6.1,-4.2c-3.1,1.6 -6.3,3.2 -9.3,5z" class="st1"/>
  </g>
 </g>
</svg>